# jetski asset - posed mesh (debug export)
# vertices=586 indices=1920 parts=21
v -0.420000 0.180000 -1.500000
vn -1.000000 0.000000 0.000000
v -0.388029 -0.061091 -1.500000
vn -0.963923 -0.266180 0.000000
v -0.296985 -0.265477 -1.500000
vn -0.832050 -0.554700 0.000000
v -0.160727 -0.402044 -1.500000
vn -0.527750 -0.849400 0.000000
v 0.000000 -0.450000 -1.500000
vn 0.000000 -1.000000 0.000000
v 0.160727 -0.402044 -1.500000
vn 0.527750 -0.849400 0.000000
v 0.296985 -0.265477 -1.500000
vn 0.832050 -0.554700 0.000000
v 0.388029 -0.061090 -1.500000
vn 0.963923 -0.266180 0.000000
v 0.420000 0.180000 -1.500000
vn 1.000000 0.000000 0.000000
v -0.500000 0.200000 -1.200000
vn -1.000000 0.000000 0.000000
v -0.461940 -0.067878 -1.200000
vn -0.958910 -0.283710 0.000000
v -0.353553 -0.294975 -1.200000
vn -0.813733 -0.581238 0.000000
v -0.191342 -0.446716 -1.200000
vn -0.501653 -0.865069 0.000000
v 0.000000 -0.500000 -1.200000
vn 0.000000 -1.000000 0.000000
v 0.191342 -0.446716 -1.200000
vn 0.501653 -0.865069 0.000000
v 0.353553 -0.294975 -1.200000
vn 0.813733 -0.581238 0.000000
v 0.461940 -0.067878 -1.200000
vn 0.958910 -0.283710 0.000000
v 0.500000 0.200000 -1.200000
vn 1.000000 0.000000 0.000000
v -0.560000 0.220000 -0.900000
vn -1.000000 0.000000 0.000000
v -0.517373 -0.063186 -0.900000
vn -0.954219 -0.299109 0.000000
v -0.395980 -0.303259 -0.900000
vn -0.797406 -0.603443 0.000000
v -0.214303 -0.463671 -0.900000
vn -0.480136 -0.877194 0.000000
v 0.000000 -0.520000 -0.900000
vn 0.000000 -1.000000 0.000000
v 0.214303 -0.463671 -0.900000
vn 0.480136 -0.877194 0.000000
v 0.395980 -0.303259 -0.900000
vn 0.797406 -0.603443 0.000000
v 0.517373 -0.063186 -0.900000
vn 0.954219 -0.299108 0.000000
v 0.560000 0.220000 -0.900000
vn 1.000000 0.000000 0.000000
v -0.600000 0.220000 -0.600000
vn -1.000000 0.000000 0.000000
v -0.554328 -0.055532 -0.600000
vn -0.945271 -0.326287 0.000000
v -0.424264 -0.289117 -0.600000
vn -0.768221 -0.640184 0.000000
v -0.229610 -0.445193 -0.600000
vn -0.445104 -0.895479 0.000000
v 0.000000 -0.500000 -0.600000
vn 0.000000 -1.000000 0.000000
v 0.229610 -0.445193 -0.600000
vn 0.445104 -0.895479 0.000000
v 0.424264 -0.289117 -0.600000
vn 0.768221 -0.640184 0.000000
v 0.554328 -0.055532 -0.600000
vn 0.945271 -0.326287 0.000000
v 0.600000 0.220000 -0.600000
vn 1.000000 0.000000 0.000000
v -0.600000 0.220000 -0.300000
vn -1.000000 0.000000 0.000000
v -0.554328 -0.047878 -0.300000
vn -0.942368 -0.334579 0.000000
v -0.424264 -0.274975 -0.300000
vn -0.759257 -0.650791 0.000000
v -0.229610 -0.426716 -0.300000
vn -0.435107 -0.900379 0.000000
v 0.000000 -0.480000 -0.300000
vn 0.000000 -1.000000 0.000000
v 0.229610 -0.426716 -0.300000
vn 0.435107 -0.900379 0.000000
v 0.424264 -0.274975 -0.300000
vn 0.759257 -0.650791 0.000000
v 0.554328 -0.047878 -0.300000
vn 0.942368 -0.334578 0.000000
v 0.600000 0.220000 -0.300000
vn 1.000000 0.000000 0.000000
v -0.580000 0.240000 0.000000
vn -1.000000 0.000000 0.000000
v -0.535850 -0.027878 0.000000
vn -0.945845 -0.324619 0.000000
v -0.410122 -0.254975 0.000000
vn -0.770022 -0.638018 0.000000
v -0.221956 -0.406716 0.000000
vn -0.447151 -0.894458 0.000000
v 0.000000 -0.460000 0.000000
vn 0.000000 -1.000000 0.000000
v 0.221956 -0.406716 0.000000
vn 0.447151 -0.894458 0.000000
v 0.410122 -0.254975 0.000000
vn 0.770022 -0.638018 0.000000
v 0.535850 -0.027878 0.000000
vn 0.945845 -0.324619 0.000000
v 0.580000 0.240000 0.000000
vn 1.000000 0.000000 0.000000
v -0.540000 0.260000 0.300000
vn -1.000000 0.000000 0.000000
v -0.498895 -0.000225 0.300000
vn -0.949929 -0.312464 0.000000
v -0.381838 -0.220833 0.300000
vn -0.783111 -0.621882 0.000000
v -0.206649 -0.368238 0.300000
vn -0.462471 -0.886635 0.000000
v 0.000000 -0.420000 0.300000
vn 0.000000 -1.000000 0.000000
v 0.206649 -0.368238 0.300000
vn 0.462471 -0.886635 0.000000
v 0.381838 -0.220833 0.300000
vn 0.783111 -0.621882 0.000000
v 0.498895 -0.000225 0.300000
vn 0.949930 -0.312464 0.000000
v 0.540000 0.260000 0.300000
vn 1.000000 0.000000 0.000000
v -0.480000 0.300000 0.600000
vn -1.000000 0.000000 0.000000
v -0.443462 0.047429 0.600000
vn -0.957497 -0.288442 0.000000
v -0.339411 -0.166690 0.600000
vn -0.808736 -0.588172 0.000000
v -0.183688 -0.309761 0.600000
vn -0.494904 -0.868948 0.000000
v 0.000000 -0.360000 0.600000
vn 0.000000 -1.000000 0.000000
v 0.183688 -0.309761 0.600000
vn 0.494904 -0.868948 0.000000
v 0.339411 -0.166690 0.600000
vn 0.808736 -0.588172 0.000000
v 0.443462 0.047429 0.600000
vn 0.957497 -0.288442 0.000000
v 0.480000 0.300000 0.600000
vn 1.000000 0.000000 0.000000
v -0.400000 0.340000 0.900000
vn -1.000000 0.000000 0.000000
v -0.369552 0.095083 0.900000
vn -0.968085 -0.250621 0.000000
v -0.282843 -0.112548 0.900000
vn -0.847998 -0.529999 0.000000
v -0.153073 -0.251283 0.900000
vn -0.552433 -0.833557 0.000000
v 0.000000 -0.300000 0.900000
vn 0.000000 -1.000000 0.000000
v 0.153073 -0.251283 0.900000
vn 0.552433 -0.833557 0.000000
v 0.282843 -0.112548 0.900000
vn 0.847998 -0.529999 0.000000
v 0.369552 0.095083 0.900000
vn 0.968085 -0.250621 0.000000
v 0.400000 0.340000 0.900000
vn 1.000000 0.000000 0.000000
v -0.300000 0.400000 1.200000
vn -1.000000 0.000000 0.000000
v -0.277164 0.162736 1.200000
vn -0.980500 -0.196518 0.000000
v -0.212132 -0.038406 1.200000
vn -0.900159 -0.435561 0.000000
v -0.114805 -0.172805 1.200000
vn -0.650309 -0.759670 0.000000
v 0.000000 -0.220000 1.200000
vn 0.000000 -1.000000 0.000000
v 0.114805 -0.172805 1.200000
vn 0.650309 -0.759670 0.000000
v 0.212132 -0.038406 1.200000
vn 0.900159 -0.435561 0.000000
v 0.277164 0.162736 1.200000
vn 0.980500 -0.196518 0.000000
v 0.300000 0.400000 1.200000
vn 1.000000 0.000000 0.000000
v -0.060000 0.500000 1.500000
vn -1.000000 0.000000 0.000000
v -0.055433 0.270390 1.500000
vn -0.999143 -0.041386 0.000000
v -0.042426 0.075736 1.500000
vn -0.995037 -0.099504 0.000000
v -0.022961 -0.054328 1.500000
vn -0.972073 -0.234679 0.000000
v 0.000000 -0.100000 1.500000
vn 0.000000 -1.000000 0.000000
v 0.022961 -0.054328 1.500000
vn 0.972073 -0.234679 0.000000
v 0.042426 0.075736 1.500000
vn 0.995037 -0.099504 0.000000
v 0.055433 0.270390 1.500000
vn 0.999143 -0.041386 0.000000
v 0.060000 0.500000 1.500000
vn 1.000000 0.000000 0.000000
v -0.420000 0.180000 -1.500000
vn 0.000000 0.997785 -0.066519
v 0.000000 0.180000 -1.500000
vn 0.000000 0.997785 -0.066519
v 0.420000 0.180000 -1.500000
vn 0.000000 0.997785 -0.066519
v -0.500000 0.200000 -1.200000
vn 0.000000 0.997785 -0.066519
v 0.000000 0.200000 -1.200000
vn 0.000000 0.997785 -0.066519
v 0.500000 0.200000 -1.200000
vn 0.000000 0.997785 -0.066519
v -0.560000 0.220000 -0.900000
vn 0.000000 0.999445 -0.033315
v 0.000000 0.220000 -0.900000
vn 0.000000 0.999445 -0.033315
v 0.560000 0.220000 -0.900000
vn 0.000000 0.999445 -0.033315
v -0.600000 0.220000 -0.600000
vn 0.000000 1.000000 0.000000
v 0.000000 0.220000 -0.600000
vn 0.000000 1.000000 0.000000
v 0.600000 0.220000 -0.600000
vn 0.000000 1.000000 0.000000
v -0.600000 0.220000 -0.300000
vn 0.000000 0.999445 -0.033315
v 0.000000 0.220000 -0.300000
vn 0.000000 0.999445 -0.033315
v 0.600000 0.220000 -0.300000
vn 0.000000 0.999445 -0.033315
v -0.580000 0.240000 0.000000
vn 0.000000 0.997785 -0.066519
v 0.000000 0.240000 0.000000
vn 0.000000 0.997785 -0.066519
v 0.580000 0.240000 0.000000
vn 0.000000 0.997785 -0.066519
v -0.540000 0.260000 0.300000
vn 0.000000 0.995037 -0.099504
v 0.000000 0.260000 0.300000
vn 0.000000 0.995037 -0.099504
v 0.540000 0.260000 0.300000
vn 0.000000 0.995037 -0.099504
v -0.480000 0.300000 0.600000
vn 0.000000 0.991228 -0.132164
v 0.000000 0.300000 0.600000
vn 0.000000 0.991228 -0.132164
v 0.480000 0.300000 0.600000
vn 0.000000 0.991228 -0.132164
v -0.400000 0.340000 0.900000
vn 0.000000 0.986394 -0.164399
v 0.000000 0.340000 0.900000
vn 0.000000 0.986394 -0.164399
v 0.400000 0.340000 0.900000
vn 0.000000 0.986394 -0.164399
v -0.300000 0.400000 1.200000
vn 0.000000 0.966235 -0.257663
v 0.000000 0.400000 1.200000
vn 0.000000 0.966235 -0.257663
v 0.300000 0.400000 1.200000
vn 0.000000 0.966235 -0.257663
v -0.060000 0.500000 1.500000
vn 0.000000 0.948683 -0.316228
v 0.000000 0.500000 1.500000
vn 0.000000 0.948683 -0.316228
v 0.060000 0.500000 1.500000
vn 0.000000 0.948683 -0.316228
v 0.220000 0.390000 -0.470000
vn 1.000000 0.000000 0.000000
v 0.220000 0.570000 -0.470000
vn 1.000000 0.000000 0.000000
v 0.220000 0.570000 0.170000
vn 1.000000 0.000000 0.000000
v 0.220000 0.390000 0.170000
vn 1.000000 0.000000 0.000000
v -0.220000 0.390000 0.170000
vn -1.000000 0.000000 0.000000
v -0.220000 0.570000 0.170000
vn -1.000000 0.000000 0.000000
v -0.220000 0.570000 -0.470000
vn -1.000000 0.000000 0.000000
v -0.220000 0.390000 -0.470000
vn -1.000000 0.000000 0.000000
v -0.220000 0.570000 0.170000
vn 0.000000 1.000000 0.000000
v 0.220000 0.570000 0.170000
vn 0.000000 1.000000 0.000000
v 0.220000 0.570000 -0.470000
vn 0.000000 1.000000 0.000000
v -0.220000 0.570000 -0.470000
vn 0.000000 1.000000 0.000000
v -0.220000 0.390000 -0.470000
vn 0.000000 -1.000000 0.000000
v 0.220000 0.390000 -0.470000
vn 0.000000 -1.000000 0.000000
v 0.220000 0.390000 0.170000
vn 0.000000 -1.000000 0.000000
v -0.220000 0.390000 0.170000
vn 0.000000 -1.000000 0.000000
v 0.220000 0.390000 0.170000
vn 0.000000 0.000000 1.000000
v 0.220000 0.570000 0.170000
vn 0.000000 0.000000 1.000000
v -0.220000 0.570000 0.170000
vn 0.000000 0.000000 1.000000
v -0.220000 0.390000 0.170000
vn 0.000000 0.000000 1.000000
v -0.220000 0.390000 -0.470000
vn 0.000000 0.000000 -1.000000
v -0.220000 0.570000 -0.470000
vn 0.000000 0.000000 -1.000000
v 0.220000 0.570000 -0.470000
vn 0.000000 0.000000 -1.000000
v 0.220000 0.390000 -0.470000
vn 0.000000 0.000000 -1.000000
v 0.000000 0.200000 0.430000
vn 0.000000 0.000000 1.000000
v 0.017634 0.200000 0.424271
vn 0.587785 0.000000 0.809017
v 0.028532 0.200000 0.409271
vn 0.951057 0.000000 0.309017
v 0.028532 0.200000 0.390729
vn 0.951057 0.000000 -0.309017
v 0.017634 0.200000 0.375730
vn 0.587785 0.000000 -0.809017
v -0.000000 0.200000 0.370000
vn -0.000000 -0.000000 -1.000000
v -0.017634 0.200000 0.375730
vn -0.587785 -0.000000 -0.809017
v -0.028532 0.200000 0.390730
vn -0.951057 -0.000000 -0.309017
v -0.028532 0.200000 0.409271
vn -0.951056 0.000000 0.309017
v -0.017634 0.200000 0.424271
vn -0.587785 0.000000 0.809017
v 0.000000 0.920000 0.430000
vn 0.000000 0.000000 1.000000
v 0.017634 0.920000 0.424271
vn 0.587785 0.000000 0.809017
v 0.028532 0.920000 0.409271
vn 0.951057 0.000000 0.309017
v 0.028532 0.920000 0.390729
vn 0.951057 0.000000 -0.309017
v 0.017634 0.920000 0.375730
vn 0.587785 0.000000 -0.809017
v -0.000000 0.920000 0.370000
vn -0.000000 -0.000000 -1.000000
v -0.017634 0.920000 0.375730
vn -0.587785 -0.000000 -0.809017
v -0.028532 0.920000 0.390730
vn -0.951057 -0.000000 -0.309017
v -0.028532 0.920000 0.409271
vn -0.951056 0.000000 0.309017
v -0.017634 0.920000 0.424271
vn -0.587785 0.000000 0.809017
v 0.000000 0.200000 0.400000
vn 0.000000 -1.000000 0.000000
v 0.000000 0.920000 0.400000
vn 0.000000 1.000000 0.000000
v 0.200000 0.895000 0.375000
vn 1.000000 0.000000 0.000000
v 0.200000 0.945000 0.375000
vn 1.000000 0.000000 0.000000
v 0.200000 0.945000 0.425000
vn 1.000000 0.000000 0.000000
v 0.200000 0.895000 0.425000
vn 1.000000 0.000000 0.000000
v -0.200000 0.895000 0.425000
vn -1.000000 0.000000 0.000000
v -0.200000 0.945000 0.425000
vn -1.000000 0.000000 0.000000
v -0.200000 0.945000 0.375000
vn -1.000000 0.000000 0.000000
v -0.200000 0.895000 0.375000
vn -1.000000 0.000000 0.000000
v -0.200000 0.945000 0.425000
vn 0.000000 1.000000 0.000000
v 0.200000 0.945000 0.425000
vn 0.000000 1.000000 0.000000
v 0.200000 0.945000 0.375000
vn 0.000000 1.000000 0.000000
v -0.200000 0.945000 0.375000
vn 0.000000 1.000000 0.000000
v -0.200000 0.895000 0.375000
vn 0.000000 -1.000000 0.000000
v 0.200000 0.895000 0.375000
vn 0.000000 -1.000000 0.000000
v 0.200000 0.895000 0.425000
vn 0.000000 -1.000000 0.000000
v -0.200000 0.895000 0.425000
vn 0.000000 -1.000000 0.000000
v 0.200000 0.895000 0.425000
vn 0.000000 0.000000 1.000000
v 0.200000 0.945000 0.425000
vn 0.000000 0.000000 1.000000
v -0.200000 0.945000 0.425000
vn 0.000000 0.000000 1.000000
v -0.200000 0.895000 0.425000
vn 0.000000 0.000000 1.000000
v -0.200000 0.895000 0.375000
vn 0.000000 0.000000 -1.000000
v -0.200000 0.945000 0.375000
vn 0.000000 0.000000 -1.000000
v 0.200000 0.945000 0.375000
vn 0.000000 0.000000 -1.000000
v 0.200000 0.895000 0.375000
vn 0.000000 0.000000 -1.000000
v -0.150000 0.885000 0.365000
vn 1.000000 0.000000 0.000000
v -0.150000 0.955000 0.365000
vn 1.000000 0.000000 0.000000
v -0.150000 0.955000 0.435000
vn 1.000000 0.000000 0.000000
v -0.150000 0.885000 0.435000
vn 1.000000 0.000000 0.000000
v -0.250000 0.885000 0.435000
vn -1.000000 0.000000 0.000000
v -0.250000 0.955000 0.435000
vn -1.000000 0.000000 0.000000
v -0.250000 0.955000 0.365000
vn -1.000000 0.000000 0.000000
v -0.250000 0.885000 0.365000
vn -1.000000 0.000000 0.000000
v -0.250000 0.955000 0.435000
vn 0.000000 1.000000 0.000000
v -0.150000 0.955000 0.435000
vn 0.000000 1.000000 0.000000
v -0.150000 0.955000 0.365000
vn 0.000000 1.000000 0.000000
v -0.250000 0.955000 0.365000
vn 0.000000 1.000000 0.000000
v -0.250000 0.885000 0.365000
vn 0.000000 -1.000000 0.000000
v -0.150000 0.885000 0.365000
vn 0.000000 -1.000000 0.000000
v -0.150000 0.885000 0.435000
vn 0.000000 -1.000000 0.000000
v -0.250000 0.885000 0.435000
vn 0.000000 -1.000000 0.000000
v -0.150000 0.885000 0.435000
vn 0.000000 0.000000 1.000000
v -0.150000 0.955000 0.435000
vn 0.000000 0.000000 1.000000
v -0.250000 0.955000 0.435000
vn 0.000000 0.000000 1.000000
v -0.250000 0.885000 0.435000
vn 0.000000 0.000000 1.000000
v -0.250000 0.885000 0.365000
vn 0.000000 0.000000 -1.000000
v -0.250000 0.955000 0.365000
vn 0.000000 0.000000 -1.000000
v -0.150000 0.955000 0.365000
vn 0.000000 0.000000 -1.000000
v -0.150000 0.885000 0.365000
vn 0.000000 0.000000 -1.000000
v 0.250000 0.885000 0.365000
vn 1.000000 0.000000 0.000000
v 0.250000 0.955000 0.365000
vn 1.000000 0.000000 0.000000
v 0.250000 0.955000 0.435000
vn 1.000000 0.000000 0.000000
v 0.250000 0.885000 0.435000
vn 1.000000 0.000000 0.000000
v 0.150000 0.885000 0.435000
vn -1.000000 0.000000 0.000000
v 0.150000 0.955000 0.435000
vn -1.000000 0.000000 0.000000
v 0.150000 0.955000 0.365000
vn -1.000000 0.000000 0.000000
v 0.150000 0.885000 0.365000
vn -1.000000 0.000000 0.000000
v 0.150000 0.955000 0.435000
vn 0.000000 1.000000 0.000000
v 0.250000 0.955000 0.435000
vn 0.000000 1.000000 0.000000
v 0.250000 0.955000 0.365000
vn 0.000000 1.000000 0.000000
v 0.150000 0.955000 0.365000
vn 0.000000 1.000000 0.000000
v 0.150000 0.885000 0.365000
vn 0.000000 -1.000000 0.000000
v 0.250000 0.885000 0.365000
vn 0.000000 -1.000000 0.000000
v 0.250000 0.885000 0.435000
vn 0.000000 -1.000000 0.000000
v 0.150000 0.885000 0.435000
vn 0.000000 -1.000000 0.000000
v 0.250000 0.885000 0.435000
vn 0.000000 0.000000 1.000000
v 0.250000 0.955000 0.435000
vn 0.000000 0.000000 1.000000
v 0.150000 0.955000 0.435000
vn 0.000000 0.000000 1.000000
v 0.150000 0.885000 0.435000
vn 0.000000 0.000000 1.000000
v 0.150000 0.885000 0.365000
vn 0.000000 0.000000 -1.000000
v 0.150000 0.955000 0.365000
vn 0.000000 0.000000 -1.000000
v 0.250000 0.955000 0.365000
vn 0.000000 0.000000 -1.000000
v 0.250000 0.885000 0.365000
vn 0.000000 0.000000 -1.000000
v 0.160000 0.470000 -0.310000
vn 1.000000 0.000000 0.000000
v 0.160000 0.670000 -0.310000
vn 1.000000 0.000000 0.000000
v 0.160000 0.670000 0.010000
vn 1.000000 0.000000 0.000000
v 0.160000 0.470000 0.010000
vn 1.000000 0.000000 0.000000
v -0.160000 0.470000 0.010000
vn -1.000000 0.000000 0.000000
v -0.160000 0.670000 0.010000
vn -1.000000 0.000000 0.000000
v -0.160000 0.670000 -0.310000
vn -1.000000 0.000000 0.000000
v -0.160000 0.470000 -0.310000
vn -1.000000 0.000000 0.000000
v -0.160000 0.670000 0.010000
vn 0.000000 1.000000 0.000000
v 0.160000 0.670000 0.010000
vn 0.000000 1.000000 0.000000
v 0.160000 0.670000 -0.310000
vn 0.000000 1.000000 0.000000
v -0.160000 0.670000 -0.310000
vn 0.000000 1.000000 0.000000
v -0.160000 0.470000 -0.310000
vn 0.000000 -1.000000 0.000000
v 0.160000 0.470000 -0.310000
vn 0.000000 -1.000000 0.000000
v 0.160000 0.470000 0.010000
vn 0.000000 -1.000000 0.000000
v -0.160000 0.470000 0.010000
vn 0.000000 -1.000000 0.000000
v 0.160000 0.470000 0.010000
vn 0.000000 0.000000 1.000000
v 0.160000 0.670000 0.010000
vn 0.000000 0.000000 1.000000
v -0.160000 0.670000 0.010000
vn 0.000000 0.000000 1.000000
v -0.160000 0.470000 0.010000
vn 0.000000 0.000000 1.000000
v -0.160000 0.470000 -0.310000
vn 0.000000 0.000000 -1.000000
v -0.160000 0.670000 -0.310000
vn 0.000000 0.000000 -1.000000
v 0.160000 0.670000 -0.310000
vn 0.000000 0.000000 -1.000000
v 0.160000 0.470000 -0.310000
vn 0.000000 0.000000 -1.000000
v 0.150000 0.540000 -0.220000
vn 1.000000 0.000000 0.000000
v 0.150000 1.080000 -0.220000
vn 1.000000 0.000000 0.000000
v 0.150000 1.080000 0.040000
vn 1.000000 0.000000 0.000000
v 0.150000 0.540000 0.040000
vn 1.000000 0.000000 0.000000
v -0.150000 0.540000 0.040000
vn -1.000000 0.000000 0.000000
v -0.150000 1.080000 0.040000
vn -1.000000 0.000000 0.000000
v -0.150000 1.080000 -0.220000
vn -1.000000 0.000000 0.000000
v -0.150000 0.540000 -0.220000
vn -1.000000 0.000000 0.000000
v -0.150000 1.080000 0.040000
vn 0.000000 1.000000 0.000000
v 0.150000 1.080000 0.040000
vn 0.000000 1.000000 0.000000
v 0.150000 1.080000 -0.220000
vn 0.000000 1.000000 0.000000
v -0.150000 1.080000 -0.220000
vn 0.000000 1.000000 0.000000
v -0.150000 0.540000 -0.220000
vn 0.000000 -1.000000 0.000000
v 0.150000 0.540000 -0.220000
vn 0.000000 -1.000000 0.000000
v 0.150000 0.540000 0.040000
vn 0.000000 -1.000000 0.000000
v -0.150000 0.540000 0.040000
vn 0.000000 -1.000000 0.000000
v 0.150000 0.540000 0.040000
vn 0.000000 0.000000 1.000000
v 0.150000 1.080000 0.040000
vn 0.000000 0.000000 1.000000
v -0.150000 1.080000 0.040000
vn 0.000000 0.000000 1.000000
v -0.150000 0.540000 0.040000
vn 0.000000 0.000000 1.000000
v -0.150000 0.540000 -0.220000
vn 0.000000 0.000000 -1.000000
v -0.150000 1.080000 -0.220000
vn 0.000000 0.000000 -1.000000
v 0.150000 1.080000 -0.220000
vn 0.000000 0.000000 -1.000000
v 0.150000 0.540000 -0.220000
vn 0.000000 0.000000 -1.000000
v 0.100000 1.100000 -0.090000
vn 1.000000 0.000000 0.000000
v 0.100000 1.320000 -0.090000
vn 1.000000 0.000000 0.000000
v 0.100000 1.320000 0.130000
vn 1.000000 0.000000 0.000000
v 0.100000 1.100000 0.130000
vn 1.000000 0.000000 0.000000
v -0.100000 1.100000 0.130000
vn -1.000000 0.000000 0.000000
v -0.100000 1.320000 0.130000
vn -1.000000 0.000000 0.000000
v -0.100000 1.320000 -0.090000
vn -1.000000 0.000000 0.000000
v -0.100000 1.100000 -0.090000
vn -1.000000 0.000000 0.000000
v -0.100000 1.320000 0.130000
vn 0.000000 1.000000 0.000000
v 0.100000 1.320000 0.130000
vn 0.000000 1.000000 0.000000
v 0.100000 1.320000 -0.090000
vn 0.000000 1.000000 0.000000
v -0.100000 1.320000 -0.090000
vn 0.000000 1.000000 0.000000
v -0.100000 1.100000 -0.090000
vn 0.000000 -1.000000 0.000000
v 0.100000 1.100000 -0.090000
vn 0.000000 -1.000000 0.000000
v 0.100000 1.100000 0.130000
vn 0.000000 -1.000000 0.000000
v -0.100000 1.100000 0.130000
vn 0.000000 -1.000000 0.000000
v 0.100000 1.100000 0.130000
vn 0.000000 0.000000 1.000000
v 0.100000 1.320000 0.130000
vn 0.000000 0.000000 1.000000
v -0.100000 1.320000 0.130000
vn 0.000000 0.000000 1.000000
v -0.100000 1.100000 0.130000
vn 0.000000 0.000000 1.000000
v -0.100000 1.100000 -0.090000
vn 0.000000 0.000000 -1.000000
v -0.100000 1.320000 -0.090000
vn 0.000000 0.000000 -1.000000
v 0.100000 1.320000 -0.090000
vn 0.000000 0.000000 -1.000000
v 0.100000 1.100000 -0.090000
vn 0.000000 0.000000 -1.000000
v 0.100000 1.170000 0.100000
vn 1.000000 0.000000 0.000000
v 0.100000 1.270000 0.100000
vn 1.000000 0.000000 0.000000
v 0.100000 1.270000 0.140000
vn 1.000000 0.000000 0.000000
v 0.100000 1.170000 0.140000
vn 1.000000 0.000000 0.000000
v -0.100000 1.170000 0.140000
vn -1.000000 0.000000 0.000000
v -0.100000 1.270000 0.140000
vn -1.000000 0.000000 0.000000
v -0.100000 1.270000 0.100000
vn -1.000000 0.000000 0.000000
v -0.100000 1.170000 0.100000
vn -1.000000 0.000000 0.000000
v -0.100000 1.270000 0.140000
vn 0.000000 1.000000 0.000000
v 0.100000 1.270000 0.140000
vn 0.000000 1.000000 0.000000
v 0.100000 1.270000 0.100000
vn 0.000000 1.000000 0.000000
v -0.100000 1.270000 0.100000
vn 0.000000 1.000000 0.000000
v -0.100000 1.170000 0.100000
vn 0.000000 -1.000000 0.000000
v 0.100000 1.170000 0.100000
vn 0.000000 -1.000000 0.000000
v 0.100000 1.170000 0.140000
vn 0.000000 -1.000000 0.000000
v -0.100000 1.170000 0.140000
vn 0.000000 -1.000000 0.000000
v 0.100000 1.170000 0.140000
vn 0.000000 0.000000 1.000000
v 0.100000 1.270000 0.140000
vn 0.000000 0.000000 1.000000
v -0.100000 1.270000 0.140000
vn 0.000000 0.000000 1.000000
v -0.100000 1.170000 0.140000
vn 0.000000 0.000000 1.000000
v -0.100000 1.170000 0.100000
vn 0.000000 0.000000 -1.000000
v -0.100000 1.270000 0.100000
vn 0.000000 0.000000 -1.000000
v 0.100000 1.270000 0.100000
vn 0.000000 0.000000 -1.000000
v 0.100000 1.170000 0.100000
vn 0.000000 0.000000 -1.000000
v -0.110215 1.050000 -0.025369
vn 0.995701 0.000000 0.092623
v -0.127789 1.064372 0.005438
vn 0.644228 0.287439 0.708766
v -0.164231 1.070325 0.015486
vn -0.084625 0.406500 0.909723
v -0.198195 1.064372 -0.001111
vn -0.763906 0.287439 0.577777
v -0.209785 1.050000 -0.034631
vn -0.995701 -0.000000 -0.092623
v -0.192211 1.035628 -0.065438
vn -0.644228 -0.287439 -0.708766
v -0.155769 1.029675 -0.075486
vn 0.084625 -0.406500 -0.909723
v -0.121805 1.035628 -0.058889
vn 0.763906 -0.287439 -0.577776
v -0.124146 0.711949 0.124390
vn 0.995701 0.000000 0.092623
v -0.141720 0.726321 0.155197
vn 0.644228 0.287439 0.708766
v -0.178162 0.732274 0.165245
vn -0.084625 0.406500 0.909723
v -0.212126 0.726321 0.148647
vn -0.763906 0.287439 0.577777
v -0.223716 0.711949 0.115127
vn -0.995701 -0.000000 -0.092623
v -0.206142 0.697577 0.084320
vn -0.644228 -0.287439 -0.708766
v -0.169700 0.691624 0.074272
vn 0.084625 -0.406500 -0.909723
v -0.135736 0.697577 0.090870
vn 0.763906 -0.287439 -0.577776
v -0.160000 1.050000 -0.030000
vn 0.037651 0.913651 -0.404753
v -0.173931 0.711949 0.119759
vn -0.037651 -0.913651 0.404753
v 0.209785 1.050000 -0.034631
vn 0.995701 0.000000 -0.092623
v 0.198195 1.064372 -0.001111
vn 0.763906 0.287439 0.577777
v 0.164231 1.070325 0.015486
vn 0.084625 0.406500 0.909723
v 0.127789 1.064372 0.005438
vn -0.644228 0.287439 0.708766
v 0.110215 1.050000 -0.025369
vn -0.995701 -0.000000 0.092623
v 0.121805 1.035628 -0.058889
vn -0.763906 -0.287439 -0.577777
v 0.155769 1.029675 -0.075486
vn -0.084625 -0.406500 -0.909723
v 0.192211 1.035628 -0.065438
vn 0.644228 -0.287439 -0.708766
v 0.223716 0.711949 0.115127
vn 0.995701 0.000000 -0.092623
v 0.212126 0.726321 0.148647
vn 0.763906 0.287439 0.577777
v 0.178162 0.732274 0.165245
vn 0.084625 0.406500 0.909723
v 0.141720 0.726321 0.155197
vn -0.644228 0.287439 0.708766
v 0.124146 0.711949 0.124390
vn -0.995701 -0.000000 0.092623
v 0.135736 0.697577 0.090870
vn -0.763906 -0.287439 -0.577777
v 0.169700 0.691624 0.074272
vn -0.084625 -0.406500 -0.909723
v 0.206142 0.697577 0.084320
vn 0.644228 -0.287439 -0.708766
v 0.160000 1.050000 -0.030000
vn -0.037651 0.913651 -0.404753
v 0.173931 0.711949 0.119759
vn 0.037651 -0.913651 0.404753
v -0.129124 0.711949 0.123927
vn 0.995701 0.000000 0.092623
v -0.140496 0.737537 0.103872
vn 0.742999 0.568618 -0.353025
v -0.171453 0.748136 0.093124
vn 0.055058 0.804147 -0.591876
v -0.203862 0.737537 0.097978
vn -0.665135 0.568618 -0.484014
v -0.218738 0.711949 0.115591
vn -0.995701 -0.000000 -0.092623
v -0.207366 0.686361 0.135645
vn -0.742999 -0.568618 0.353025
v -0.176409 0.675763 0.146393
vn -0.055058 -0.804147 0.591875
v -0.144000 0.686361 0.141539
vn 0.665135 -0.568617 0.484014
v -0.155193 0.920000 0.404168
vn 0.995701 0.000000 0.092623
v -0.166565 0.945588 0.384114
vn 0.742999 0.568618 -0.353025
v -0.197522 0.956187 0.373366
vn 0.055058 0.804147 -0.591876
v -0.229931 0.945588 0.378219
vn -0.665135 0.568618 -0.484014
v -0.244807 0.920000 0.395832
vn -0.995701 -0.000000 -0.092623
v -0.233435 0.894412 0.415886
vn -0.742999 -0.568618 0.353025
v -0.202478 0.883813 0.426634
vn -0.055058 -0.804147 0.591875
v -0.170069 0.894412 0.421781
vn 0.665135 -0.568617 0.484014
v -0.173931 0.711949 0.119759
vn 0.074483 -0.594431 -0.800690
v -0.200000 0.920000 0.400000
vn -0.074483 0.594431 0.800690
v 0.218738 0.711949 0.115591
vn 0.995701 0.000000 -0.092623
v 0.203862 0.737537 0.097978
vn 0.665135 0.568618 -0.484014
v 0.171453 0.748136 0.093124
vn -0.055058 0.804147 -0.591875
v 0.140496 0.737537 0.103872
vn -0.742999 0.568618 -0.353025
v 0.129124 0.711949 0.123927
vn -0.995701 -0.000000 0.092623
v 0.144000 0.686361 0.141539
vn -0.665135 -0.568618 0.484014
v 0.176409 0.675763 0.146393
vn 0.055058 -0.804147 0.591875
v 0.207366 0.686361 0.135645
vn 0.742999 -0.568617 0.353024
v 0.244807 0.920000 0.395832
vn 0.995701 0.000000 -0.092623
v 0.229931 0.945588 0.378219
vn 0.665135 0.568618 -0.484014
v 0.197522 0.956187 0.373366
vn -0.055058 0.804147 -0.591875
v 0.166565 0.945588 0.384114
vn -0.742999 0.568618 -0.353025
v 0.155193 0.920000 0.404168
vn -0.995701 -0.000000 0.092623
v 0.170069 0.894412 0.421781
vn -0.665135 -0.568618 0.484014
v 0.202478 0.883813 0.426634
vn 0.055058 -0.804147 0.591875
v 0.233435 0.894412 0.415886
vn 0.742999 -0.568617 0.353024
v 0.173931 0.711949 0.119759
vn -0.074483 -0.594431 -0.800690
v 0.200000 0.920000 0.400000
vn 0.074483 0.594431 0.800690
v -0.160000 0.885000 0.360000
vn 1.000000 0.000000 0.000000
v -0.160000 0.955000 0.360000
vn 1.000000 0.000000 0.000000
v -0.160000 0.955000 0.480000
vn 1.000000 0.000000 0.000000
v -0.160000 0.885000 0.480000
vn 1.000000 0.000000 0.000000
v -0.240000 0.885000 0.480000
vn -1.000000 0.000000 0.000000
v -0.240000 0.955000 0.480000
vn -1.000000 0.000000 0.000000
v -0.240000 0.955000 0.360000
vn -1.000000 0.000000 0.000000
v -0.240000 0.885000 0.360000
vn -1.000000 0.000000 0.000000
v -0.240000 0.955000 0.480000
vn 0.000000 1.000000 0.000000
v -0.160000 0.955000 0.480000
vn 0.000000 1.000000 0.000000
v -0.160000 0.955000 0.360000
vn 0.000000 1.000000 0.000000
v -0.240000 0.955000 0.360000
vn 0.000000 1.000000 0.000000
v -0.240000 0.885000 0.360000
vn 0.000000 -1.000000 0.000000
v -0.160000 0.885000 0.360000
vn 0.000000 -1.000000 0.000000
v -0.160000 0.885000 0.480000
vn 0.000000 -1.000000 0.000000
v -0.240000 0.885000 0.480000
vn 0.000000 -1.000000 0.000000
v -0.160000 0.885000 0.480000
vn 0.000000 0.000000 1.000000
v -0.160000 0.955000 0.480000
vn 0.000000 0.000000 1.000000
v -0.240000 0.955000 0.480000
vn 0.000000 0.000000 1.000000
v -0.240000 0.885000 0.480000
vn 0.000000 0.000000 1.000000
v -0.240000 0.885000 0.360000
vn 0.000000 0.000000 -1.000000
v -0.240000 0.955000 0.360000
vn 0.000000 0.000000 -1.000000
v -0.160000 0.955000 0.360000
vn 0.000000 0.000000 -1.000000
v -0.160000 0.885000 0.360000
vn 0.000000 0.000000 -1.000000
v 0.240000 0.885000 0.360000
vn 1.000000 0.000000 0.000000
v 0.240000 0.955000 0.360000
vn 1.000000 0.000000 0.000000
v 0.240000 0.955000 0.480000
vn 1.000000 0.000000 0.000000
v 0.240000 0.885000 0.480000
vn 1.000000 0.000000 0.000000
v 0.160000 0.885000 0.480000
vn -1.000000 0.000000 0.000000
v 0.160000 0.955000 0.480000
vn -1.000000 0.000000 0.000000
v 0.160000 0.955000 0.360000
vn -1.000000 0.000000 0.000000
v 0.160000 0.885000 0.360000
vn -1.000000 0.000000 0.000000
v 0.160000 0.955000 0.480000
vn 0.000000 1.000000 0.000000
v 0.240000 0.955000 0.480000
vn 0.000000 1.000000 0.000000
v 0.240000 0.955000 0.360000
vn 0.000000 1.000000 0.000000
v 0.160000 0.955000 0.360000
vn 0.000000 1.000000 0.000000
v 0.160000 0.885000 0.360000
vn 0.000000 -1.000000 0.000000
v 0.240000 0.885000 0.360000
vn 0.000000 -1.000000 0.000000
v 0.240000 0.885000 0.480000
vn 0.000000 -1.000000 0.000000
v 0.160000 0.885000 0.480000
vn 0.000000 -1.000000 0.000000
v 0.240000 0.885000 0.480000
vn 0.000000 0.000000 1.000000
v 0.240000 0.955000 0.480000
vn 0.000000 0.000000 1.000000
v 0.160000 0.955000 0.480000
vn 0.000000 0.000000 1.000000
v 0.160000 0.885000 0.480000
vn 0.000000 0.000000 1.000000
v 0.160000 0.885000 0.360000
vn 0.000000 0.000000 -1.000000
v 0.160000 0.955000 0.360000
vn 0.000000 0.000000 -1.000000
v 0.240000 0.955000 0.360000
vn 0.000000 0.000000 -1.000000
v 0.240000 0.885000 0.360000
vn 0.000000 0.000000 -1.000000
v -0.032090 0.550000 -0.113023
vn 0.970143 0.000000 0.242536
v -0.051602 0.599473 -0.119510
vn 0.691406 0.706755 0.149853
v -0.099464 0.619965 -0.132143
vn 0.007653 0.999502 -0.030612
v -0.147641 0.599473 -0.143520
vn -0.680583 0.706755 -0.193144
v -0.167910 0.550000 -0.146977
vn -0.970143 -0.000000 -0.242536
v -0.148398 0.500527 -0.140490
vn -0.691406 -0.706755 -0.149853
v -0.100536 0.480035 -0.127857
vn -0.007653 -0.999502 0.030612
v -0.052359 0.500527 -0.116480
vn 0.680583 -0.706754 0.193144
v -0.133904 0.563253 0.294234
vn 0.970143 0.000000 0.242536
v -0.153416 0.612725 0.287747
vn 0.691406 0.706755 0.149853
v -0.201279 0.633218 0.275114
vn 0.007653 0.999502 -0.030612
v -0.249455 0.612725 0.263737
vn -0.680583 0.706755 -0.193144
v -0.269724 0.563253 0.260279
vn -0.970143 -0.000000 -0.242536
v -0.250213 0.513780 0.266767
vn -0.691406 -0.706755 -0.149853
v -0.202350 0.493287 0.279400
vn -0.007653 -0.999502 0.030612
v -0.154173 0.513780 0.290777
vn 0.680583 -0.706754 0.193144
v -0.100000 0.550000 -0.130000
vn 0.242415 -0.031554 -0.969659
v -0.201814 0.563253 0.277257
vn -0.242415 0.031554 0.969659
v 0.167910 0.550000 -0.146977
vn 0.970143 0.000000 -0.242536
v 0.147641 0.599473 -0.143520
vn 0.680583 0.706755 -0.193144
v 0.099464 0.619965 -0.132143
vn -0.007653 0.999502 -0.030612
v 0.051602 0.599473 -0.119510
vn -0.691406 0.706755 0.149853
v 0.032090 0.550000 -0.113023
vn -0.970143 -0.000000 0.242536
v 0.052359 0.500527 -0.116480
vn -0.680583 -0.706755 0.193144
v 0.100536 0.480035 -0.127857
vn 0.007653 -0.999502 0.030612
v 0.148398 0.500527 -0.140490
vn 0.691406 -0.706754 -0.149853
v 0.269724 0.563253 0.260279
vn 0.970143 0.000000 -0.242536
v 0.249455 0.612725 0.263737
vn 0.680583 0.706755 -0.193144
v 0.201279 0.633218 0.275114
vn -0.007653 0.999502 -0.030612
v 0.153416 0.612725 0.287747
vn -0.691406 0.706755 0.149853
v 0.133904 0.563253 0.294234
vn -0.970143 -0.000000 0.242536
v 0.154173 0.513780 0.290777
vn -0.680583 -0.706755 0.193144
v 0.202350 0.493287 0.279400
vn 0.007653 -0.999502 0.030612
v 0.250213 0.513780 0.266767
vn 0.691406 -0.706754 -0.149853
v 0.100000 0.550000 -0.130000
vn -0.242415 -0.031554 -0.969659
v 0.201814 0.563253 0.277257
vn 0.242415 0.031554 0.969659
v -0.143606 0.563253 0.291809
vn 0.970142 0.000000 0.242536
v -0.170779 0.570827 0.328045
vn 0.517251 0.126238 0.846472
v -0.216133 0.573964 0.334530
vn -0.238639 0.178528 0.954557
v -0.253098 0.570827 0.307465
vn -0.854738 0.126238 0.503475
v -0.260023 0.563253 0.262705
vn -0.970142 -0.000000 -0.242536
v -0.232849 0.555678 0.226469
vn -0.517251 -0.126238 -0.846472
v -0.187496 0.552541 0.219984
vn 0.238639 -0.178528 -0.954557
v -0.150530 0.555678 0.247048
vn 0.854738 -0.126238 -0.503475
v -0.161791 0.150000 0.364552
vn 0.970142 0.000000 0.242536
v -0.188965 0.157574 0.400788
vn 0.517251 0.126238 0.846472
v -0.234318 0.160712 0.407273
vn -0.238639 0.178528 0.954557
v -0.271284 0.157574 0.380208
vn -0.854738 0.126238 0.503475
v -0.278209 0.150000 0.335448
vn -0.970142 -0.000000 -0.242536
v -0.251035 0.142426 0.299212
vn -0.517251 -0.126238 -0.846472
v -0.205682 0.139288 0.292727
vn 0.238639 -0.178528 -0.954557
v -0.168716 0.142426 0.319792
vn 0.854738 -0.126238 -0.503475
v -0.201814 0.563253 0.277257
vn 0.043299 0.983935 -0.173198
v -0.220000 0.150000 0.350000
vn -0.043299 -0.983935 0.173198
v 0.260023 0.563253 0.262705
vn 0.970142 0.000000 -0.242536
v 0.253098 0.570827 0.307465
vn 0.854738 0.126238 0.503475
v 0.216133 0.573964 0.334530
vn 0.238639 0.178528 0.954557
v 0.170779 0.570827 0.328045
vn -0.517251 0.126238 0.846472
v 0.143606 0.563253 0.291809
vn -0.970143 -0.000000 0.242536
v 0.150530 0.555678 0.247048
vn -0.854738 -0.126238 -0.503475
v 0.187496 0.552541 0.219984
vn -0.238639 -0.178528 -0.954557
v 0.232849 0.555678 0.226469
vn 0.517251 -0.126238 -0.846472
v 0.278209 0.150000 0.335448
vn 0.970142 0.000000 -0.242536
v 0.271284 0.157574 0.380208
vn 0.854738 0.126238 0.503475
v 0.234318 0.160712 0.407273
vn 0.238639 0.178528 0.954557
v 0.188965 0.157574 0.400788
vn -0.517251 0.126238 0.846472
v 0.161791 0.150000 0.364552
vn -0.970143 -0.000000 0.242536
v 0.168716 0.142426 0.319791
vn -0.854738 -0.126238 -0.503475
v 0.205682 0.139288 0.292727
vn -0.238639 -0.178528 -0.954557
v 0.251035 0.142426 0.299212
vn 0.517251 -0.126238 -0.846472
v 0.201814 0.563253 0.277257
vn -0.043299 0.983935 -0.173198
v 0.220000 0.150000 0.350000
vn 0.043299 -0.983935 0.173198
v -0.170000 0.080000 0.280000
vn 1.000000 0.000000 0.000000
v -0.170000 0.160000 0.280000
vn 1.000000 0.000000 0.000000
v -0.170000 0.160000 0.540000
vn 1.000000 0.000000 0.000000
v -0.170000 0.080000 0.540000
vn 1.000000 0.000000 0.000000
v -0.270000 0.080000 0.540000
vn -1.000000 0.000000 0.000000
v -0.270000 0.160000 0.540000
vn -1.000000 0.000000 0.000000
v -0.270000 0.160000 0.280000
vn -1.000000 0.000000 0.000000
v -0.270000 0.080000 0.280000
vn -1.000000 0.000000 0.000000
v -0.270000 0.160000 0.540000
vn 0.000000 1.000000 0.000000
v -0.170000 0.160000 0.540000
vn 0.000000 1.000000 0.000000
v -0.170000 0.160000 0.280000
vn 0.000000 1.000000 0.000000
v -0.270000 0.160000 0.280000
vn 0.000000 1.000000 0.000000
v -0.270000 0.080000 0.280000
vn 0.000000 -1.000000 0.000000
v -0.170000 0.080000 0.280000
vn 0.000000 -1.000000 0.000000
v -0.170000 0.080000 0.540000
vn 0.000000 -1.000000 0.000000
v -0.270000 0.080000 0.540000
vn 0.000000 -1.000000 0.000000
v -0.170000 0.080000 0.540000
vn 0.000000 0.000000 1.000000
v -0.170000 0.160000 0.540000
vn 0.000000 0.000000 1.000000
v -0.270000 0.160000 0.540000
vn 0.000000 0.000000 1.000000
v -0.270000 0.080000 0.540000
vn 0.000000 0.000000 1.000000
v -0.270000 0.080000 0.280000
vn 0.000000 0.000000 -1.000000
v -0.270000 0.160000 0.280000
vn 0.000000 0.000000 -1.000000
v -0.170000 0.160000 0.280000
vn 0.000000 0.000000 -1.000000
v -0.170000 0.080000 0.280000
vn 0.000000 0.000000 -1.000000
v 0.270000 0.080000 0.280000
vn 1.000000 0.000000 0.000000
v 0.270000 0.160000 0.280000
vn 1.000000 0.000000 0.000000
v 0.270000 0.160000 0.540000
vn 1.000000 0.000000 0.000000
v 0.270000 0.080000 0.540000
vn 1.000000 0.000000 0.000000
v 0.170000 0.080000 0.540000
vn -1.000000 0.000000 0.000000
v 0.170000 0.160000 0.540000
vn -1.000000 0.000000 0.000000
v 0.170000 0.160000 0.280000
vn -1.000000 0.000000 0.000000
v 0.170000 0.080000 0.280000
vn -1.000000 0.000000 0.000000
v 0.170000 0.160000 0.540000
vn 0.000000 1.000000 0.000000
v 0.270000 0.160000 0.540000
vn 0.000000 1.000000 0.000000
v 0.270000 0.160000 0.280000
vn 0.000000 1.000000 0.000000
v 0.170000 0.160000 0.280000
vn 0.000000 1.000000 0.000000
v 0.170000 0.080000 0.280000
vn 0.000000 -1.000000 0.000000
v 0.270000 0.080000 0.280000
vn 0.000000 -1.000000 0.000000
v 0.270000 0.080000 0.540000
vn 0.000000 -1.000000 0.000000
v 0.170000 0.080000 0.540000
vn 0.000000 -1.000000 0.000000
v 0.270000 0.080000 0.540000
vn 0.000000 0.000000 1.000000
v 0.270000 0.160000 0.540000
vn 0.000000 0.000000 1.000000
v 0.170000 0.160000 0.540000
vn 0.000000 0.000000 1.000000
v 0.170000 0.080000 0.540000
vn 0.000000 0.000000 1.000000
v 0.170000 0.080000 0.280000
vn 0.000000 0.000000 -1.000000
v 0.170000 0.160000 0.280000
vn 0.000000 0.000000 -1.000000
v 0.270000 0.160000 0.280000
vn 0.000000 0.000000 -1.000000
v 0.270000 0.080000 0.280000
vn 0.000000 0.000000 -1.000000
f 1/1 10/10 2/2
f 2/2 10/10 11/11
f 2/2 11/11 3/3
f 3/3 11/11 12/12
f 3/3 12/12 4/4
f 4/4 12/12 13/13
f 4/4 13/13 5/5
f 5/5 13/13 14/14
f 5/5 14/14 6/6
f 6/6 14/14 15/15
f 6/6 15/15 7/7
f 7/7 15/15 16/16
f 7/7 16/16 8/8
f 8/8 16/16 17/17
f 8/8 17/17 9/9
f 9/9 17/17 18/18
f 10/10 19/19 11/11
f 11/11 19/19 20/20
f 11/11 20/20 12/12
f 12/12 20/20 21/21
f 12/12 21/21 13/13
f 13/13 21/21 22/22
f 13/13 22/22 14/14
f 14/14 22/22 23/23
f 14/14 23/23 15/15
f 15/15 23/23 24/24
f 15/15 24/24 16/16
f 16/16 24/24 25/25
f 16/16 25/25 17/17
f 17/17 25/25 26/26
f 17/17 26/26 18/18
f 18/18 26/26 27/27
f 19/19 28/28 20/20
f 20/20 28/28 29/29
f 20/20 29/29 21/21
f 21/21 29/29 30/30
f 21/21 30/30 22/22
f 22/22 30/30 31/31
f 22/22 31/31 23/23
f 23/23 31/31 32/32
f 23/23 32/32 24/24
f 24/24 32/32 33/33
f 24/24 33/33 25/25
f 25/25 33/33 34/34
f 25/25 34/34 26/26
f 26/26 34/34 35/35
f 26/26 35/35 27/27
f 27/27 35/35 36/36
f 28/28 37/37 29/29
f 29/29 37/37 38/38
f 29/29 38/38 30/30
f 30/30 38/38 39/39
f 30/30 39/39 31/31
f 31/31 39/39 40/40
f 31/31 40/40 32/32
f 32/32 40/40 41/41
f 32/32 41/41 33/33
f 33/33 41/41 42/42
f 33/33 42/42 34/34
f 34/34 42/42 43/43
f 34/34 43/43 35/35
f 35/35 43/43 44/44
f 35/35 44/44 36/36
f 36/36 44/44 45/45
f 37/37 46/46 38/38
f 38/38 46/46 47/47
f 38/38 47/47 39/39
f 39/39 47/47 48/48
f 39/39 48/48 40/40
f 40/40 48/48 49/49
f 40/40 49/49 41/41
f 41/41 49/49 50/50
f 41/41 50/50 42/42
f 42/42 50/50 51/51
f 42/42 51/51 43/43
f 43/43 51/51 52/52
f 43/43 52/52 44/44
f 44/44 52/52 53/53
f 44/44 53/53 45/45
f 45/45 53/53 54/54
f 46/46 55/55 47/47
f 47/47 55/55 56/56
f 47/47 56/56 48/48
f 48/48 56/56 57/57
f 48/48 57/57 49/49
f 49/49 57/57 58/58
f 49/49 58/58 50/50
f 50/50 58/58 59/59
f 50/50 59/59 51/51
f 51/51 59/59 60/60
f 51/51 60/60 52/52
f 52/52 60/60 61/61
f 52/52 61/61 53/53
f 53/53 61/61 62/62
f 53/53 62/62 54/54
f 54/54 62/62 63/63
f 55/55 64/64 56/56
f 56/56 64/64 65/65
f 56/56 65/65 57/57
f 57/57 65/65 66/66
f 57/57 66/66 58/58
f 58/58 66/66 67/67
f 58/58 67/67 59/59
f 59/59 67/67 68/68
f 59/59 68/68 60/60
f 60/60 68/68 69/69
f 60/60 69/69 61/61
f 61/61 69/69 70/70
f 61/61 70/70 62/62
f 62/62 70/70 71/71
f 62/62 71/71 63/63
f 63/63 71/71 72/72
f 64/64 73/73 65/65
f 65/65 73/73 74/74
f 65/65 74/74 66/66
f 66/66 74/74 75/75
f 66/66 75/75 67/67
f 67/67 75/75 76/76
f 67/67 76/76 68/68
f 68/68 76/76 77/77
f 68/68 77/77 69/69
f 69/69 77/77 78/78
f 69/69 78/78 70/70
f 70/70 78/78 79/79
f 70/70 79/79 71/71
f 71/71 79/79 80/80
f 71/71 80/80 72/72
f 72/72 80/80 81/81
f 73/73 82/82 74/74
f 74/74 82/82 83/83
f 74/74 83/83 75/75
f 75/75 83/83 84/84
f 75/75 84/84 76/76
f 76/76 84/84 85/85
f 76/76 85/85 77/77
f 77/77 85/85 86/86
f 77/77 86/86 78/78
f 78/78 86/86 87/87
f 78/78 87/87 79/79
f 79/79 87/87 88/88
f 79/79 88/88 80/80
f 80/80 88/88 89/89
f 80/80 89/89 81/81
f 81/81 89/89 90/90
f 82/82 91/91 83/83
f 83/83 91/91 92/92
f 83/83 92/92 84/84
f 84/84 92/92 93/93
f 84/84 93/93 85/85
f 85/85 93/93 94/94
f 85/85 94/94 86/86
f 86/86 94/94 95/95
f 86/86 95/95 87/87
f 87/87 95/95 96/96
f 87/87 96/96 88/88
f 88/88 96/96 97/97
f 88/88 97/97 89/89
f 89/89 97/97 98/98
f 89/89 98/98 90/90
f 90/90 98/98 99/99
f 100/100 103/103 101/101
f 101/101 103/103 104/104
f 101/101 104/104 102/102
f 102/102 104/104 105/105
f 103/103 106/106 104/104
f 104/104 106/106 107/107
f 104/104 107/107 105/105
f 105/105 107/107 108/108
f 106/106 109/109 107/107
f 107/107 109/109 110/110
f 107/107 110/110 108/108
f 108/108 110/110 111/111
f 109/109 112/112 110/110
f 110/110 112/112 113/113
f 110/110 113/113 111/111
f 111/111 113/113 114/114
f 112/112 115/115 113/113
f 113/113 115/115 116/116
f 113/113 116/116 114/114
f 114/114 116/116 117/117
f 115/115 118/118 116/116
f 116/116 118/118 119/119
f 116/116 119/119 117/117
f 117/117 119/119 120/120
f 118/118 121/121 119/119
f 119/119 121/121 122/122
f 119/119 122/122 120/120
f 120/120 122/122 123/123
f 121/121 124/124 122/122
f 122/122 124/124 125/125
f 122/122 125/125 123/123
f 123/123 125/125 126/126
f 124/124 127/127 125/125
f 125/125 127/127 128/128
f 125/125 128/128 126/126
f 126/126 128/128 129/129
f 127/127 130/130 128/128
f 128/128 130/130 131/131
f 128/128 131/131 129/129
f 129/129 131/131 132/132
f 133/133 134/134 135/135
f 133/133 135/135 136/136
f 137/137 138/138 139/139
f 137/137 139/139 140/140
f 141/141 142/142 143/143
f 141/141 143/143 144/144
f 145/145 146/146 147/147
f 145/145 147/147 148/148
f 149/149 150/150 151/151
f 149/149 151/151 152/152
f 153/153 154/154 155/155
f 153/153 155/155 156/156
f 157/157 168/168 158/158
f 157/157 167/167 168/168
f 158/158 169/169 159/159
f 158/158 168/168 169/169
f 159/159 170/170 160/160
f 159/159 169/169 170/170
f 160/160 171/171 161/161
f 160/160 170/170 171/171
f 161/161 172/172 162/162
f 161/161 171/171 172/172
f 162/162 173/173 163/163
f 162/162 172/172 173/173
f 163/163 174/174 164/164
f 163/163 173/173 174/174
f 164/164 175/175 165/165
f 164/164 174/174 175/175
f 165/165 176/176 166/166
f 165/165 175/175 176/176
f 166/166 167/167 157/157
f 166/166 176/176 167/167
f 177/177 158/158 157/157
f 177/177 159/159 158/158
f 177/177 160/160 159/159
f 177/177 161/161 160/160
f 177/177 162/162 161/161
f 177/177 163/163 162/162
f 177/177 164/164 163/163
f 177/177 165/165 164/164
f 177/177 166/166 165/165
f 177/177 157/157 166/166
f 178/178 167/167 168/168
f 178/178 168/168 169/169
f 178/178 169/169 170/170
f 178/178 170/170 171/171
f 178/178 171/171 172/172
f 178/178 172/172 173/173
f 178/178 173/173 174/174
f 178/178 174/174 175/175
f 178/178 175/175 176/176
f 178/178 176/176 167/167
f 179/179 180/180 181/181
f 179/179 181/181 182/182
f 183/183 184/184 185/185
f 183/183 185/185 186/186
f 187/187 188/188 189/189
f 187/187 189/189 190/190
f 191/191 192/192 193/193
f 191/191 193/193 194/194
f 195/195 196/196 197/197
f 195/195 197/197 198/198
f 199/199 200/200 201/201
f 199/199 201/201 202/202
f 203/203 204/204 205/205
f 203/203 205/205 206/206
f 207/207 208/208 209/209
f 207/207 209/209 210/210
f 211/211 212/212 213/213
f 211/211 213/213 214/214
f 215/215 216/216 217/217
f 215/215 217/217 218/218
f 219/219 220/220 221/221
f 219/219 221/221 222/222
f 223/223 224/224 225/225
f 223/223 225/225 226/226
f 227/227 228/228 229/229
f 227/227 229/229 230/230
f 231/231 232/232 233/233
f 231/231 233/233 234/234
f 235/235 236/236 237/237
f 235/235 237/237 238/238
f 239/239 240/240 241/241
f 239/239 241/241 242/242
f 243/243 244/244 245/245
f 243/243 245/245 246/246
f 247/247 248/248 249/249
f 247/247 249/249 250/250
f 251/251 252/252 253/253
f 251/251 253/253 254/254
f 255/255 256/256 257/257
f 255/255 257/257 258/258
f 259/259 260/260 261/261
f 259/259 261/261 262/262
f 263/263 264/264 265/265
f 263/263 265/265 266/266
f 267/267 268/268 269/269
f 267/267 269/269 270/270
f 271/271 272/272 273/273
f 271/271 273/273 274/274
f 275/275 276/276 277/277
f 275/275 277/277 278/278
f 279/279 280/280 281/281
f 279/279 281/281 282/282
f 283/283 284/284 285/285
f 283/283 285/285 286/286
f 287/287 288/288 289/289
f 287/287 289/289 290/290
f 291/291 292/292 293/293
f 291/291 293/293 294/294
f 295/295 296/296 297/297
f 295/295 297/297 298/298
f 299/299 300/300 301/301
f 299/299 301/301 302/302
f 303/303 304/304 305/305
f 303/303 305/305 306/306
f 307/307 308/308 309/309
f 307/307 309/309 310/310
f 311/311 312/312 313/313
f 311/311 313/313 314/314
f 315/315 316/316 317/317
f 315/315 317/317 318/318
f 319/319 320/320 321/321
f 319/319 321/321 322/322
f 323/323 324/324 325/325
f 323/323 325/325 326/326
f 327/327 328/328 329/329
f 327/327 329/329 330/330
f 331/331 332/332 333/333
f 331/331 333/333 334/334
f 335/335 336/336 337/337
f 335/335 337/337 338/338
f 339/339 340/340 341/341
f 339/339 341/341 342/342
f 343/343 344/344 345/345
f 343/343 345/345 346/346
f 347/347 356/356 348/348
f 347/347 355/355 356/356
f 348/348 357/357 349/349
f 348/348 356/356 357/357
f 349/349 358/358 350/350
f 349/349 357/357 358/358
f 350/350 359/359 351/351
f 350/350 358/358 359/359
f 351/351 360/360 352/352
f 351/351 359/359 360/360
f 352/352 361/361 353/353
f 352/352 360/360 361/361
f 353/353 362/362 354/354
f 353/353 361/361 362/362
f 354/354 355/355 347/347
f 354/354 362/362 355/355
f 363/363 348/348 347/347
f 363/363 349/349 348/348
f 363/363 350/350 349/349
f 363/363 351/351 350/350
f 363/363 352/352 351/351
f 363/363 353/353 352/352
f 363/363 354/354 353/353
f 363/363 347/347 354/354
f 364/364 355/355 356/356
f 364/364 356/356 357/357
f 364/364 357/357 358/358
f 364/364 358/358 359/359
f 364/364 359/359 360/360
f 364/364 360/360 361/361
f 364/364 361/361 362/362
f 364/364 362/362 355/355
f 365/365 374/374 366/366
f 365/365 373/373 374/374
f 366/366 375/375 367/367
f 366/366 374/374 375/375
f 367/367 376/376 368/368
f 367/367 375/375 376/376
f 368/368 377/377 369/369
f 368/368 376/376 377/377
f 369/369 378/378 370/370
f 369/369 377/377 378/378
f 370/370 379/379 371/371
f 370/370 378/378 379/379
f 371/371 380/380 372/372
f 371/371 379/379 380/380
f 372/372 373/373 365/365
f 372/372 380/380 373/373
f 381/381 366/366 365/365
f 381/381 367/367 366/366
f 381/381 368/368 367/367
f 381/381 369/369 368/368
f 381/381 370/370 369/369
f 381/381 371/371 370/370
f 381/381 372/372 371/371
f 381/381 365/365 372/372
f 382/382 373/373 374/374
f 382/382 374/374 375/375
f 382/382 375/375 376/376
f 382/382 376/376 377/377
f 382/382 377/377 378/378
f 382/382 378/378 379/379
f 382/382 379/379 380/380
f 382/382 380/380 373/373
f 383/383 392/392 384/384
f 383/383 391/391 392/392
f 384/384 393/393 385/385
f 384/384 392/392 393/393
f 385/385 394/394 386/386
f 385/385 393/393 394/394
f 386/386 395/395 387/387
f 386/386 394/394 395/395
f 387/387 396/396 388/388
f 387/387 395/395 396/396
f 388/388 397/397 389/389
f 388/388 396/396 397/397
f 389/389 398/398 390/390
f 389/389 397/397 398/398
f 390/390 391/391 383/383
f 390/390 398/398 391/391
f 399/399 384/384 383/383
f 399/399 385/385 384/384
f 399/399 386/386 385/385
f 399/399 387/387 386/386
f 399/399 388/388 387/387
f 399/399 389/389 388/388
f 399/399 390/390 389/389
f 399/399 383/383 390/390
f 400/400 391/391 392/392
f 400/400 392/392 393/393
f 400/400 393/393 394/394
f 400/400 394/394 395/395
f 400/400 395/395 396/396
f 400/400 396/396 397/397
f 400/400 397/397 398/398
f 400/400 398/398 391/391
f 401/401 410/410 402/402
f 401/401 409/409 410/410
f 402/402 411/411 403/403
f 402/402 410/410 411/411
f 403/403 412/412 404/404
f 403/403 411/411 412/412
f 404/404 413/413 405/405
f 404/404 412/412 413/413
f 405/405 414/414 406/406
f 405/405 413/413 414/414
f 406/406 415/415 407/407
f 406/406 414/414 415/415
f 407/407 416/416 408/408
f 407/407 415/415 416/416
f 408/408 409/409 401/401
f 408/408 416/416 409/409
f 417/417 402/402 401/401
f 417/417 403/403 402/402
f 417/417 404/404 403/403
f 417/417 405/405 404/404
f 417/417 406/406 405/405
f 417/417 407/407 406/406
f 417/417 408/408 407/407
f 417/417 401/401 408/408
f 418/418 409/409 410/410
f 418/418 410/410 411/411
f 418/418 411/411 412/412
f 418/418 412/412 413/413
f 418/418 413/413 414/414
f 418/418 414/414 415/415
f 418/418 415/415 416/416
f 418/418 416/416 409/409
f 419/419 420/420 421/421
f 419/419 421/421 422/422
f 423/423 424/424 425/425
f 423/423 425/425 426/426
f 427/427 428/428 429/429
f 427/427 429/429 430/430
f 431/431 432/432 433/433
f 431/431 433/433 434/434
f 435/435 436/436 437/437
f 435/435 437/437 438/438
f 439/439 440/440 441/441
f 439/439 441/441 442/442
f 443/443 444/444 445/445
f 443/443 445/445 446/446
f 447/447 448/448 449/449
f 447/447 449/449 450/450
f 451/451 452/452 453/453
f 451/451 453/453 454/454
f 455/455 456/456 457/457
f 455/455 457/457 458/458
f 459/459 460/460 461/461
f 459/459 461/461 462/462
f 463/463 464/464 465/465
f 463/463 465/465 466/466
f 467/467 476/476 468/468
f 467/467 475/475 476/476
f 468/468 477/477 469/469
f 468/468 476/476 477/477
f 469/469 478/478 470/470
f 469/469 477/477 478/478
f 470/470 479/479 471/471
f 470/470 478/478 479/479
f 471/471 480/480 472/472
f 471/471 479/479 480/480
f 472/472 481/481 473/473
f 472/472 480/480 481/481
f 473/473 482/482 474/474
f 473/473 481/481 482/482
f 474/474 475/475 467/467
f 474/474 482/482 475/475
f 483/483 468/468 467/467
f 483/483 469/469 468/468
f 483/483 470/470 469/469
f 483/483 471/471 470/470
f 483/483 472/472 471/471
f 483/483 473/473 472/472
f 483/483 474/474 473/473
f 483/483 467/467 474/474
f 484/484 475/475 476/476
f 484/484 476/476 477/477
f 484/484 477/477 478/478
f 484/484 478/478 479/479
f 484/484 479/479 480/480
f 484/484 480/480 481/481
f 484/484 481/481 482/482
f 484/484 482/482 475/475
f 485/485 494/494 486/486
f 485/485 493/493 494/494
f 486/486 495/495 487/487
f 486/486 494/494 495/495
f 487/487 496/496 488/488
f 487/487 495/495 496/496
f 488/488 497/497 489/489
f 488/488 496/496 497/497
f 489/489 498/498 490/490
f 489/489 497/497 498/498
f 490/490 499/499 491/491
f 490/490 498/498 499/499
f 491/491 500/500 492/492
f 491/491 499/499 500/500
f 492/492 493/493 485/485
f 492/492 500/500 493/493
f 501/501 486/486 485/485
f 501/501 487/487 486/486
f 501/501 488/488 487/487
f 501/501 489/489 488/488
f 501/501 490/490 489/489
f 501/501 491/491 490/490
f 501/501 492/492 491/491
f 501/501 485/485 492/492
f 502/502 493/493 494/494
f 502/502 494/494 495/495
f 502/502 495/495 496/496
f 502/502 496/496 497/497
f 502/502 497/497 498/498
f 502/502 498/498 499/499
f 502/502 499/499 500/500
f 502/502 500/500 493/493
f 503/503 512/512 504/504
f 503/503 511/511 512/512
f 504/504 513/513 505/505
f 504/504 512/512 513/513
f 505/505 514/514 506/506
f 505/505 513/513 514/514
f 506/506 515/515 507/507
f 506/506 514/514 515/515
f 507/507 516/516 508/508
f 507/507 515/515 516/516
f 508/508 517/517 509/509
f 508/508 516/516 517/517
f 509/509 518/518 510/510
f 509/509 517/517 518/518
f 510/510 511/511 503/503
f 510/510 518/518 511/511
f 519/519 504/504 503/503
f 519/519 505/505 504/504
f 519/519 506/506 505/505
f 519/519 507/507 506/506
f 519/519 508/508 507/507
f 519/519 509/509 508/508
f 519/519 510/510 509/509
f 519/519 503/503 510/510
f 520/520 511/511 512/512
f 520/520 512/512 513/513
f 520/520 513/513 514/514
f 520/520 514/514 515/515
f 520/520 515/515 516/516
f 520/520 516/516 517/517
f 520/520 517/517 518/518
f 520/520 518/518 511/511
f 521/521 530/530 522/522
f 521/521 529/529 530/530
f 522/522 531/531 523/523
f 522/522 530/530 531/531
f 523/523 532/532 524/524
f 523/523 531/531 532/532
f 524/524 533/533 525/525
f 524/524 532/532 533/533
f 525/525 534/534 526/526
f 525/525 533/533 534/534
f 526/526 535/535 527/527
f 526/526 534/534 535/535
f 527/527 536/536 528/528
f 527/527 535/535 536/536
f 528/528 529/529 521/521
f 528/528 536/536 529/529
f 537/537 522/522 521/521
f 537/537 523/523 522/522
f 537/537 524/524 523/523
f 537/537 525/525 524/524
f 537/537 526/526 525/525
f 537/537 527/527 526/526
f 537/537 528/528 527/527
f 537/537 521/521 528/528
f 538/538 529/529 530/530
f 538/538 530/530 531/531
f 538/538 531/531 532/532
f 538/538 532/532 533/533
f 538/538 533/533 534/534
f 538/538 534/534 535/535
f 538/538 535/535 536/536
f 538/538 536/536 529/529
f 539/539 540/540 541/541
f 539/539 541/541 542/542
f 543/543 544/544 545/545
f 543/543 545/545 546/546
f 547/547 548/548 549/549
f 547/547 549/549 550/550
f 551/551 552/552 553/553
f 551/551 553/553 554/554
f 555/555 556/556 557/557
f 555/555 557/557 558/558
f 559/559 560/560 561/561
f 559/559 561/561 562/562
f 563/563 564/564 565/565
f 563/563 565/565 566/566
f 567/567 568/568 569/569
f 567/567 569/569 570/570
f 571/571 572/572 573/573
f 571/571 573/573 574/574
f 575/575 576/576 577/577
f 575/575 577/577 578/578
f 579/579 580/580 581/581
f 579/579 581/581 582/582
f 583/583 584/584 585/585
f 583/583 585/585 586/586
