# jetski asset - posed mesh (debug export)
# vertices=586 indices=1920 parts=21
v -0.299828 0.440019 -1.483788
vn -0.941648 0.336600 0.000000
v -0.350676 0.202788 -1.500607
vn -0.997054 0.074420 -0.018570
v -0.333573 -0.019849 -1.514866
vn -0.969755 -0.240991 -0.038698
v -0.251123 -0.193998 -1.524393
vn -0.782166 -0.620246 -0.059257
v -0.115877 -0.293146 -1.527739
vn -0.335780 -0.939353 -0.069764
v 0.051574 -0.302199 -1.524393
vn 0.211743 -0.975527 -0.059257
v 0.225737 -0.219779 -1.514866
vn 0.597241 -0.801128 -0.038698
v 0.380098 -0.058433 -1.500607
vn 0.818298 -0.574494 -0.018570
v 0.491156 0.157275 -1.483788
vn 0.941648 -0.336600 0.000000
v -0.375489 0.466026 -1.183124
vn -0.941648 0.336600 0.000000
v -0.429598 0.201582 -1.201812
vn -0.998220 0.056266 -0.019793
v -0.403790 -0.048224 -1.217655
vn -0.961418 -0.272085 -0.040549
v -0.301996 -0.245363 -1.228241
vn -0.762853 -0.643749 -0.060350
v -0.139711 -0.359821 -1.231958
vn -0.335780 -0.939353 -0.069764
v 0.058357 -0.374174 -1.228241
vn 0.181907 -0.981462 -0.060350
v 0.262055 -0.286236 -1.217655
vn 0.571082 -0.819891 -0.040549
v 0.440371 -0.109395 -1.201812
vn 0.807692 -0.589273 -0.019793
v 0.566159 0.129426 -1.183124
vn 0.941648 -0.336600 0.000000
v -0.432317 0.485301 -0.882459
vn -0.941648 0.336600 0.000000
v -0.487265 0.204941 -0.902215
vn -0.998973 0.040222 -0.020867
v -0.453568 -0.061433 -0.918964
vn -0.953500 -0.298439 -0.042098
v -0.336355 -0.273269 -0.930155
vn -0.746663 -0.662382 -0.061196
v -0.153471 -0.398316 -0.934084
vn -0.335780 -0.939353 -0.069764
v 0.067240 -0.417538 -0.930155
vn 0.157574 -0.985609 -0.061196
v 0.292179 -0.328007 -0.918964
vn 0.548252 -0.835253 -0.042098
v 0.487100 -0.143354 -0.902215
vn 0.798104 -0.602159 -0.020867
v 0.622329 0.108309 -0.882459
vn 0.941648 -0.336600 0.000000
v -0.477028 0.479058 -0.583190
vn -0.941648 0.336600 0.000000
v -0.526539 0.204862 -0.602412
vn -0.999673 0.011680 -0.022763
v -0.482497 -0.058336 -0.618708
vn -0.938355 -0.342776 -0.044662
v -0.351609 -0.270467 -0.629596
vn -0.719815 -0.691349 -0.062472
v -0.153801 -0.399237 -0.633420
vn -0.335780 -0.939353 -0.069764
v 0.080814 -0.425041 -0.629596
vn 0.118447 -0.990993 -0.062472
v 0.316517 -0.343951 -0.618708
vn 0.508433 -0.859943 -0.044662
v 0.517424 -0.168311 -0.602412
vn 0.780552 -0.624677 -0.022763
v 0.652950 0.075137 -0.583190
vn 0.941648 -0.336600 0.000000
v -0.484072 0.459350 -0.283921
vn -0.941648 0.336600 0.000000
v -0.531013 0.192344 -0.302609
vn -0.999723 0.002914 -0.023341
v -0.484794 -0.064759 -0.318452
vn -0.933475 -0.355757 -0.045402
v -0.352450 -0.272818 -0.329038
vn -0.712047 -0.699317 -0.062814
v -0.154130 -0.400158 -0.332756
vn -0.335780 -0.939353 -0.069764
v 0.079974 -0.427392 -0.329038
vn 0.107389 -0.992231 -0.062814
v 0.314221 -0.350374 -0.318452
vn 0.496429 -0.866889 -0.045402
v 0.512950 -0.180830 -0.302609
vn 0.775034 -0.631489 -0.023341
v 0.645905 0.055430 -0.283921
vn 0.941648 -0.336600 0.000000
v -0.465568 0.451697 0.016743
vn -0.941648 0.336600 0.000000
v -0.513943 0.185204 -0.001945
vn -0.999653 0.013439 -0.022647
v -0.471806 -0.070440 -0.017788
vn -0.939323 -0.340135 -0.044510
v -0.345572 -0.276315 -0.028374
vn -0.721400 -0.689701 -0.062401
v -0.154459 -0.401078 -0.032091
vn -0.335780 -0.939353 -0.069764
v 0.072438 -0.425736 -0.028374
vn 0.120718 -0.990724 -0.062401
v 0.300575 -0.346534 -0.017788
vn 0.510855 -0.858514 -0.044510
v 0.495221 -0.175531 -0.001945
vn 0.781652 -0.623303 -0.022647
v 0.626743 0.061241 0.016743
vn 0.941648 -0.336600 0.000000
v -0.428232 0.437312 0.317408
vn -0.941648 0.336600 0.000000
v -0.476903 0.179033 0.299253
vn -0.999418 0.026232 -0.021799
v -0.440752 -0.067597 0.283863
vn -0.946230 -0.320572 -0.043385
v -0.325282 -0.265031 0.273580
vn -0.733199 -0.677196 -0.061855
v -0.148072 -0.383212 0.269968
vn -0.335780 -0.939353 -0.069764
v 0.063899 -0.404147 0.273580
vn 0.137770 -0.988531 -0.061855
v 0.278361 -0.324650 0.283863
vn 0.528599 -0.847762 -0.043385
v 0.462663 -0.156823 0.299253
vn 0.789580 -0.613261 -0.021799
v 0.588748 0.073784 0.317408
vn 0.941648 -0.336600 0.000000
v -0.365346 0.434983 0.619467
vn -0.941648 0.336600 0.000000
v -0.415749 0.185430 0.601847
vn -0.998478 0.051344 -0.020123
v -0.389667 -0.050727 0.586909
vn -0.959041 -0.280280 -0.041033
v -0.291070 -0.237537 0.576928
vn -0.757800 -0.649664 -0.060621
v -0.134970 -0.346559 0.573423
vn -0.335780 -0.939353 -0.069764
v 0.054869 -0.361196 0.576928
vn 0.174250 -0.982834 -0.060621
v 0.249545 -0.279219 0.586909
vn 0.564048 -0.824722 -0.041033
v 0.419421 -0.113108 0.601847
vn 0.804772 -0.593243 -0.020123
v 0.538635 0.111847 0.619467
vn 0.941648 -0.336600 0.000000
v -0.283628 0.425921 0.921527
vn -0.941648 0.336600 0.000000
v -0.337195 0.185608 0.904440
vn -0.995749 0.090436 -0.017484
v -0.325264 -0.038617 0.889955
vn -0.976479 -0.212420 -0.036975
v -0.249651 -0.212618 0.880277
vn -0.800089 -0.597056 -0.058152
v -0.121868 -0.309905 0.876878
vn -0.335780 -0.939353 -0.069764
v 0.038631 -0.315667 0.880277
vn 0.240306 -0.968954 -0.058152
v 0.207413 -0.229027 0.889955
vn 0.620553 -0.783293 -0.036975
v 0.358780 -0.063174 0.904440
vn 0.827442 -0.561279 -0.017484
v 0.469690 0.156641 0.921527
vn 0.941648 -0.336600 0.000000
v -0.176361 0.428914 1.224982
vn -0.941648 0.336600 0.000000
v -0.234526 0.198353 1.208429
vn -0.989273 0.145437 -0.013710
v -0.240829 -0.012480 1.194397
vn -0.993886 -0.106152 -0.030386
v -0.194309 -0.171489 1.185021
vn -0.867444 -0.494704 -0.052997
v -0.102050 -0.254465 1.181728
vn -0.335780 -0.939353 -0.069764
v 0.021902 -0.248776 1.185021
vn 0.357280 -0.932493 -0.052997
v 0.158679 -0.155288 1.194397
vn 0.701380 -0.712139 -0.030386
v 0.287455 0.011766 1.208429
vn 0.857299 -0.514636 -0.013710
v 0.388627 0.226954 1.224982
vn 0.941648 -0.336600 0.000000
v 0.076168 0.422358 1.531227
vn -0.941648 0.336600 0.000000
v 0.003370 0.205135 1.515209
vn -0.954737 0.297436 -0.002887
v -0.049744 0.017909 1.501629
vn -0.970386 0.241460 -0.006942
v -0.075087 -0.110819 1.492555
vn -0.994151 0.106753 -0.016372
v -0.068802 -0.161450 1.489369
vn -0.335780 -0.939354 -0.069764
v -0.031845 -0.126276 1.492555
vn 0.836550 -0.547647 -0.016372
v 0.030158 -0.010653 1.501629
vn 0.903563 -0.428399 -0.006942
v 0.107766 0.167818 1.515209
vn 0.926944 -0.375188 -0.002887
v 0.189165 0.381966 1.531227
vn 0.941648 -0.336600 0.000000
v -0.299828 0.440019 -1.483788
vn 0.336598 0.941643 0.003252
v 0.095664 0.298647 -1.483788
vn 0.336598 0.941643 0.003252
v 0.491156 0.157275 -1.483788
vn 0.336598 0.941643 0.003252
v -0.375489 0.466026 -1.183124
vn 0.336598 0.941643 0.003252
v 0.095335 0.297726 -1.183124
vn 0.336598 0.941643 0.003252
v 0.566159 0.129426 -1.183124
vn 0.336598 0.941643 0.003252
v -0.432317 0.485301 -0.882459
vn 0.336376 0.941021 0.036491
v 0.095006 0.296805 -0.882459
vn 0.336376 0.941021 0.036491
v 0.622329 0.108309 -0.882459
vn 0.336376 0.941021 0.036491
v -0.477028 0.479058 -0.583190
vn 0.335780 0.939353 0.069764
v 0.087961 0.277097 -0.583190
vn 0.335780 0.939353 0.069764
v 0.652950 0.075137 -0.583190
vn 0.335780 0.939353 0.069764
v -0.484072 0.459350 -0.283921
vn 0.336376 0.941021 0.036491
v 0.080916 0.257390 -0.283921
vn 0.336376 0.941021 0.036491
v 0.645905 0.055430 -0.283921
vn 0.336376 0.941021 0.036491
v -0.465568 0.451697 0.016743
vn 0.336598 0.941643 0.003252
v 0.080587 0.256469 0.016743
vn 0.336598 0.941643 0.003252
v 0.626743 0.061241 0.016743
vn 0.336598 0.941643 0.003252
v -0.428232 0.437312 0.317408
vn 0.336450 0.941228 -0.029844
v 0.080258 0.255548 0.317408
vn 0.336450 0.941228 -0.029844
v 0.588748 0.073784 0.317408
vn 0.336450 0.941228 -0.029844
v -0.365346 0.434983 0.619467
vn 0.335938 0.939795 -0.062690
v 0.086645 0.273415 0.619467
vn 0.335938 0.939795 -0.062690
v 0.538635 0.111846 0.619467
vn 0.335938 0.939795 -0.062690
v -0.283628 0.425921 0.921527
vn 0.335072 0.937372 -0.095184
v 0.093031 0.291281 0.921527
vn 0.335072 0.937372 -0.095184
v 0.469690 0.156641 0.921527
vn 0.335072 0.937372 -0.095184
v -0.176361 0.428914 1.224982
vn 0.330493 0.924563 -0.189627
v 0.106133 0.327934 1.224982
vn 0.330493 0.924563 -0.189627
v 0.388627 0.226954 1.224982
vn 0.330493 0.924563 -0.189627
v 0.076168 0.422358 1.531227
vn 0.325975 0.911923 -0.249274
v 0.132666 0.402162 1.531227
vn 0.325975 0.911923 -0.249274
v 0.189165 0.381966 1.531227
vn 0.325975 0.911923 -0.249274
v 0.349153 0.354195 -0.441647
vn 0.941648 -0.336600 0.000000
v 0.409594 0.523279 -0.429090
vn 0.941648 -0.336600 0.000000
v 0.394565 0.481236 0.209351
vn 0.941648 -0.336600 0.000000
v 0.334125 0.312152 0.196794
vn 0.941648 -0.336600 0.000000
v -0.080200 0.460256 0.196794
vn -0.941648 0.336600 0.000000
v -0.019760 0.629340 0.209351
vn -0.941648 0.336600 0.000000
v -0.004731 0.671383 -0.429090
vn -0.941648 0.336600 0.000000
v -0.065172 0.502299 -0.441647
vn -0.941648 0.336600 0.000000
v -0.019760 0.629340 0.209351
vn 0.335780 0.939353 0.069764
v 0.394565 0.481236 0.209351
vn 0.335780 0.939353 0.069764
v 0.409594 0.523279 -0.429090
vn 0.335780 0.939353 0.069764
v -0.004731 0.671383 -0.429090
vn 0.335780 0.939353 0.069764
v -0.065172 0.502299 -0.441647
vn -0.335780 -0.939353 -0.069764
v 0.349153 0.354195 -0.441647
vn -0.335780 -0.939353 -0.069764
v 0.334125 0.312152 0.196794
vn -0.335780 -0.939353 -0.069764
v -0.080200 0.460256 0.196794
vn -0.335780 -0.939353 -0.069764
v 0.334125 0.312152 0.196794
vn -0.023482 -0.065693 0.997564
v 0.394565 0.481236 0.209351
vn -0.023482 -0.065693 0.997564
v -0.019760 0.629340 0.209351
vn -0.023482 -0.065693 0.997564
v -0.080200 0.460256 0.196794
vn -0.023482 -0.065693 0.997564
v -0.065172 0.502299 -0.441647
vn 0.023482 0.065693 -0.997564
v -0.004731 0.671383 -0.429090
vn 0.023482 0.065693 -0.997564
v 0.409594 0.523279 -0.429090
vn 0.023482 0.065693 -0.997564
v 0.349153 0.354195 -0.441647
vn 0.023482 0.065693 -0.997564
v 0.057059 0.190647 0.442905
vn -0.023482 -0.065693 0.997564
v 0.073798 0.185088 0.437189
vn 0.534489 -0.250995 0.807046
v 0.084412 0.182405 0.422226
vn 0.888304 -0.340426 0.308264
v 0.084848 0.183623 0.403730
vn 0.902817 -0.299826 -0.308264
v 0.074938 0.188277 0.388767
vn 0.572484 -0.144702 -0.807046
v 0.058468 0.194588 0.383051
vn 0.023482 0.065693 -0.997564
v 0.041728 0.200148 0.388767
vn -0.534489 0.250995 -0.807046
v 0.031114 0.202830 0.403730
vn -0.888304 0.340426 -0.308264
v 0.030679 0.201612 0.422226
vn -0.902817 0.299826 0.308264
v 0.040589 0.196959 0.437189
vn -0.572484 0.144702 0.807046
v 0.298820 0.866981 0.493135
vn -0.023482 -0.065693 0.997564
v 0.315559 0.861422 0.487419
vn 0.534489 -0.250995 0.807046
v 0.326174 0.858739 0.472456
vn 0.888304 -0.340426 0.308264
v 0.326609 0.859957 0.453960
vn 0.902817 -0.299826 -0.308264
v 0.316699 0.864611 0.438996
vn 0.572484 -0.144702 -0.807046
v 0.300229 0.870923 0.433281
vn 0.023482 0.065693 -0.997564
v 0.283490 0.876482 0.438996
vn -0.534489 0.250995 -0.807046
v 0.272876 0.879165 0.453960
vn -0.888304 0.340426 -0.308264
v 0.272440 0.877947 0.472456
vn -0.902817 0.299826 0.308264
v 0.282350 0.873293 0.487419
vn -0.572484 0.144702 0.807046
v 0.057763 0.192618 0.412978
vn -0.335780 -0.939353 -0.069764
v 0.299525 0.868952 0.463208
vn 0.335780 0.939353 0.069764
v 0.472101 0.785646 0.395920
vn 0.926253 -0.315820 -0.205702
v 0.488890 0.832614 0.399408
vn 0.926253 -0.315820 -0.205702
v 0.497450 0.825930 0.448215
vn 0.926253 -0.315820 -0.205702
v 0.480661 0.778962 0.444727
vn 0.926253 -0.315820 -0.205702
v 0.110159 0.905290 0.527007
vn -0.926253 0.315820 0.205702
v 0.126948 0.952258 0.530495
vn -0.926253 0.315820 0.205702
v 0.118389 0.958942 0.481689
vn -0.926253 0.315820 0.205702
v 0.101600 0.911975 0.478201
vn -0.926253 0.315820 0.205702
v 0.126948 0.952258 0.530495
vn 0.335780 0.939353 0.069764
v 0.497450 0.825930 0.448215
vn 0.335780 0.939353 0.069764
v 0.488890 0.832614 0.399408
vn 0.335780 0.939353 0.069764
v 0.118389 0.958942 0.481689
vn 0.335780 0.939353 0.069764
v 0.101600 0.911975 0.478201
vn -0.335780 -0.939353 -0.069764
v 0.472101 0.785646 0.395920
vn -0.335780 -0.939353 -0.069764
v 0.480661 0.778962 0.444727
vn -0.335780 -0.939353 -0.069764
v 0.110159 0.905290 0.527007
vn -0.335780 -0.939353 -0.069764
v 0.480661 0.778962 0.444727
vn 0.171194 -0.133689 0.976125
v 0.497450 0.825930 0.448215
vn 0.171194 -0.133689 0.976125
v 0.126948 0.952258 0.530495
vn 0.171194 -0.133689 0.976125
v 0.110159 0.905290 0.527007
vn 0.171194 -0.133689 0.976125
v 0.101600 0.911975 0.478201
vn -0.171194 0.133689 -0.976125
v 0.118389 0.958942 0.481689
vn -0.171194 0.133689 -0.976125
v 0.488890 0.832614 0.399408
vn -0.171194 0.133689 -0.976125
v 0.472101 0.785646 0.395920
vn -0.171194 0.133689 -0.976125
v 0.142843 0.888127 0.457457
vn 0.926253 -0.315820 -0.205702
v 0.166347 0.953882 0.462340
vn 0.926253 -0.315820 -0.205702
v 0.178331 0.944523 0.530669
vn 0.926253 -0.315820 -0.205702
v 0.154826 0.878769 0.525786
vn 0.926253 -0.315820 -0.205702
v 0.062201 0.910351 0.546356
vn -0.926253 0.315820 0.205702
v 0.085706 0.976105 0.551239
vn -0.926253 0.315820 0.205702
v 0.073722 0.985464 0.482911
vn -0.926253 0.315820 0.205702
v 0.050217 0.919709 0.478027
vn -0.926253 0.315820 0.205702
v 0.085706 0.976105 0.551239
vn 0.335780 0.939353 0.069764
v 0.178331 0.944523 0.530669
vn 0.335780 0.939353 0.069764
v 0.166347 0.953882 0.462340
vn 0.335780 0.939353 0.069764
v 0.073722 0.985464 0.482911
vn 0.335780 0.939353 0.069764
v 0.050217 0.919709 0.478027
vn -0.335780 -0.939353 -0.069764
v 0.142843 0.888127 0.457457
vn -0.335780 -0.939353 -0.069764
v 0.154826 0.878769 0.525786
vn -0.335780 -0.939353 -0.069764
v 0.062201 0.910351 0.546356
vn -0.335780 -0.939353 -0.069764
v 0.154826 0.878769 0.525786
vn 0.171194 -0.133689 0.976125
v 0.178331 0.944523 0.530669
vn 0.171194 -0.133689 0.976125
v 0.085706 0.976105 0.551239
vn 0.171194 -0.133689 0.976125
v 0.062201 0.910351 0.546356
vn 0.171194 -0.133689 0.976125
v 0.050217 0.919709 0.478027
vn -0.171194 0.133689 -0.976125
v 0.073722 0.985464 0.482911
vn -0.171194 0.133689 -0.976125
v 0.166347 0.953882 0.462340
vn -0.171194 0.133689 -0.976125
v 0.142843 0.888127 0.457457
vn -0.171194 0.133689 -0.976125
v 0.513344 0.761799 0.375176
vn 0.926253 -0.315820 -0.205702
v 0.536848 0.827554 0.380060
vn 0.926253 -0.315820 -0.205702
v 0.548832 0.818195 0.448388
vn 0.926253 -0.315820 -0.205702
v 0.525327 0.752441 0.443505
vn 0.926253 -0.315820 -0.205702
v 0.432702 0.784023 0.464075
vn -0.926253 0.315820 0.205702
v 0.456207 0.849777 0.468959
vn -0.926253 0.315820 0.205702
v 0.444223 0.859136 0.400630
vn -0.926253 0.315820 0.205702
v 0.420718 0.793381 0.395746
vn -0.926253 0.315820 0.205702
v 0.456207 0.849777 0.468959
vn 0.335780 0.939353 0.069764
v 0.548832 0.818195 0.448388
vn 0.335780 0.939353 0.069764
v 0.536848 0.827554 0.380060
vn 0.335780 0.939353 0.069764
v 0.444223 0.859136 0.400630
vn 0.335780 0.939353 0.069764
v 0.420718 0.793381 0.395746
vn -0.335780 -0.939353 -0.069764
v 0.513344 0.761799 0.375176
vn -0.335780 -0.939353 -0.069764
v 0.525327 0.752441 0.443505
vn -0.335780 -0.939353 -0.069764
v 0.432702 0.784023 0.464075
vn -0.335780 -0.939353 -0.069764
v 0.525327 0.752441 0.443505
vn 0.171194 -0.133689 0.976125
v 0.548832 0.818195 0.448388
vn 0.171194 -0.133689 0.976125
v 0.456207 0.849777 0.468959
vn 0.171194 -0.133689 0.976125
v 0.432702 0.784023 0.464075
vn 0.171194 -0.133689 0.976125
v 0.420718 0.793381 0.395746
vn -0.171194 0.133689 -0.976125
v 0.444223 0.859136 0.400630
vn -0.171194 0.133689 -0.976125
v 0.536848 0.827554 0.380060
vn -0.171194 0.133689 -0.976125
v 0.513344 0.761799 0.375176
vn -0.171194 0.133689 -0.976125
v 0.315760 0.351650 -0.276456
vn 0.941648 -0.336600 0.000000
v 0.382916 0.539521 -0.262503
vn 0.941648 -0.336600 0.000000
v 0.375401 0.518499 0.056717
vn 0.941648 -0.336600 0.000000
v 0.308245 0.330629 0.042764
vn 0.941648 -0.336600 0.000000
v 0.006918 0.438341 0.042764
vn -0.941648 0.336600 0.000000
v 0.074074 0.626211 0.056717
vn -0.941648 0.336600 0.000000
v 0.081589 0.647233 -0.262503
vn -0.941648 0.336600 0.000000
v 0.014433 0.459362 -0.276456
vn -0.941648 0.336600 0.000000
v 0.074074 0.626211 0.056717
vn 0.335780 0.939353 0.069764
v 0.375401 0.518499 0.056717
vn 0.335780 0.939353 0.069764
v 0.382916 0.539521 -0.262503
vn 0.335780 0.939353 0.069764
v 0.081589 0.647233 -0.262503
vn 0.335780 0.939353 0.069764
v 0.014433 0.459362 -0.276456
vn -0.335780 -0.939353 -0.069764
v 0.315760 0.351650 -0.276456
vn -0.335780 -0.939353 -0.069764
v 0.308245 0.330629 0.042764
vn -0.335780 -0.939353 -0.069764
v 0.006918 0.438341 0.042764
vn -0.335780 -0.939353 -0.069764
v 0.308245 0.330629 0.042764
vn -0.023482 -0.065693 0.997564
v 0.375401 0.518499 0.056717
vn -0.023482 -0.065693 0.997564
v 0.074074 0.626211 0.056717
vn -0.023482 -0.065693 0.997564
v 0.006918 0.438341 0.042764
vn -0.023482 -0.065693 0.997564
v 0.014433 0.459362 -0.276456
vn 0.023482 0.065693 -0.997564
v 0.081589 0.647233 -0.262503
vn 0.023482 0.065693 -0.997564
v 0.382916 0.539521 -0.262503
vn 0.023482 0.065693 -0.997564
v 0.315760 0.351650 -0.276456
vn 0.023482 0.065693 -0.997564
v 0.314968 0.391449 -0.183634
vn 0.867304 -0.497626 -0.012354
v 0.583470 0.858496 -0.146557
vn 0.867304 -0.497626 -0.012354
v 0.577364 0.841416 0.112810
vn 0.867304 -0.497626 -0.012354
v 0.308863 0.374369 0.075733
vn 0.867304 -0.497626 -0.012354
v 0.048672 0.523657 0.079439
vn -0.867304 0.497626 0.012354
v 0.317173 0.990703 0.116516
vn -0.867304 0.497626 0.012354
v 0.323279 1.007784 -0.142851
vn -0.867304 0.497626 0.012354
v 0.054777 0.540737 -0.179928
vn -0.867304 0.497626 0.012354
v 0.317173 0.990703 0.116516
vn 0.497225 0.864901 0.068661
v 0.577364 0.841416 0.112810
vn 0.497225 0.864901 0.068661
v 0.583470 0.858496 -0.146557
vn 0.497225 0.864901 0.068661
v 0.323279 1.007784 -0.142851
vn 0.497225 0.864901 0.068661
v 0.054777 0.540737 -0.179928
vn -0.497225 -0.864901 -0.068661
v 0.314968 0.391449 -0.183634
vn -0.497225 -0.864901 -0.068661
v 0.308863 0.374369 0.075733
vn -0.497225 -0.864901 -0.068661
v 0.048672 0.523657 0.079439
vn -0.497225 -0.864901 -0.068661
v 0.308863 0.374369 0.075733
vn -0.023482 -0.065693 0.997564
v 0.577364 0.841416 0.112810
vn -0.023482 -0.065693 0.997564
v 0.317173 0.990703 0.116516
vn -0.023482 -0.065693 0.997564
v 0.048672 0.523657 0.079439
vn -0.023482 -0.065693 0.997564
v 0.054777 0.540737 -0.179928
vn 0.023482 0.065693 -0.997564
v 0.323279 1.007784 -0.142851
vn 0.023482 0.065693 -0.997564
v 0.583470 0.858496 -0.146557
vn 0.023482 0.065693 -0.997564
v 0.314968 0.391449 -0.183634
vn 0.023482 0.065693 -0.997564
v 0.541534 0.885683 -0.015833
vn 0.799171 -0.600746 -0.020749
v 0.673261 1.060039 0.009622
vn 0.799171 -0.600746 -0.020749
v 0.661587 1.036963 0.228097
vn 0.799171 -0.600746 -0.020749
v 0.529860 0.862607 0.202642
vn 0.799171 -0.600746 -0.020749
v 0.370026 0.982756 0.206792
vn -0.799171 0.600746 0.020749
v 0.501753 1.157112 0.232247
vn -0.799171 0.600746 0.020749
v 0.513427 1.180188 0.013772
vn -0.799171 0.600746 0.020749
v 0.381700 1.005832 -0.011683
vn -0.799171 0.600746 0.020749
v 0.501753 1.157112 0.232247
vn 0.598758 0.792529 0.115704
v 0.661587 1.036963 0.228097
vn 0.598758 0.792529 0.115704
v 0.673261 1.060039 0.009622
vn 0.598758 0.792529 0.115704
v 0.513427 1.180188 0.013772
vn 0.598758 0.792529 0.115704
v 0.381700 1.005832 -0.011683
vn -0.598758 -0.792529 -0.115704
v 0.541534 0.885683 -0.015833
vn -0.598758 -0.792529 -0.115704
v 0.529860 0.862607 0.202642
vn -0.598758 -0.792529 -0.115704
v 0.370026 0.982756 0.206792
vn -0.598758 -0.792529 -0.115704
v 0.529860 0.862607 0.202642
vn -0.053065 -0.104891 0.993067
v 0.661587 1.036963 0.228097
vn -0.053065 -0.104891 0.993067
v 0.501753 1.157112 0.232247
vn -0.053065 -0.104891 0.993067
v 0.370026 0.982756 0.206792
vn -0.053065 -0.104891 0.993067
v 0.381700 1.005832 -0.011683
vn 0.053065 0.104891 -0.993067
v 0.513427 1.180188 0.013772
vn 0.053065 0.104891 -0.993067
v 0.673261 1.060039 0.009622
vn 0.053065 0.104891 -0.993067
v 0.541534 0.885683 -0.015833
vn 0.053065 0.104891 -0.993067
v 0.573365 0.921230 0.180949
vn 0.799171 -0.600746 -0.020749
v 0.633241 1.000483 0.192520
vn 0.799171 -0.600746 -0.020749
v 0.631118 0.996288 0.232242
vn 0.799171 -0.600746 -0.020749
v 0.571242 0.917035 0.220672
vn 0.799171 -0.600746 -0.020749
v 0.411408 1.037184 0.224822
vn -0.799171 0.600746 0.020749
v 0.471284 1.116437 0.236392
vn -0.799171 0.600746 0.020749
v 0.473407 1.120633 0.196669
vn -0.799171 0.600746 0.020749
v 0.413531 1.041380 0.185099
vn -0.799171 0.600746 0.020749
v 0.471284 1.116437 0.236392
vn 0.598758 0.792529 0.115704
v 0.631118 0.996288 0.232242
vn 0.598758 0.792529 0.115704
v 0.633241 1.000483 0.192520
vn 0.598758 0.792529 0.115704
v 0.473407 1.120633 0.196669
vn 0.598758 0.792529 0.115704
v 0.413531 1.041380 0.185099
vn -0.598758 -0.792529 -0.115704
v 0.573365 0.921230 0.180949
vn -0.598758 -0.792529 -0.115704
v 0.571242 0.917035 0.220672
vn -0.598758 -0.792529 -0.115704
v 0.411408 1.037184 0.224822
vn -0.598758 -0.792529 -0.115704
v 0.571242 0.917035 0.220672
vn -0.053065 -0.104891 0.993067
v 0.631118 0.996288 0.232242
vn -0.053065 -0.104891 0.993067
v 0.471284 1.116437 0.236392
vn -0.053065 -0.104891 0.993067
v 0.411408 1.037184 0.224822
vn -0.053065 -0.104891 0.993067
v 0.413531 1.041380 0.185099
vn 0.053065 0.104891 -0.993067
v 0.473407 1.120633 0.196669
vn 0.053065 0.104891 -0.993067
v 0.633241 1.000483 0.192520
vn 0.053065 0.104891 -0.993067
v 0.573365 0.921230 0.180949
vn 0.053065 0.104891 -0.993067
v 0.341751 0.974331 0.063068
vn 0.930478 0.000000 0.366348
v 0.318244 0.997190 0.082799
vn 0.460329 0.457184 0.760973
v 0.281253 1.006659 0.080242
vn -0.279475 0.646556 0.709830
v 0.252449 0.997190 0.056894
vn -0.855566 0.457184 0.242879
v 0.248703 0.974331 0.026433
vn -0.930478 -0.000000 -0.366348
v 0.272211 0.951472 0.006701
vn -0.460329 -0.457184 -0.760973
v 0.309201 0.942003 0.009259
vn 0.279475 -0.646556 -0.709830
v 0.338005 0.951472 0.032606
vn 0.855566 -0.457184 -0.242878
v 0.254111 0.692071 0.285662
vn 0.930478 0.000000 0.366348
v 0.230604 0.714930 0.305393
vn 0.460329 0.457184 0.760973
v 0.193614 0.724398 0.302836
vn -0.279475 0.646556 0.709830
v 0.164809 0.714930 0.279488
vn -0.855566 0.457184 0.242879
v 0.161063 0.692071 0.249027
vn -0.930478 -0.000000 -0.366348
v 0.184571 0.669211 0.229296
vn -0.460329 -0.457184 -0.760973
v 0.221561 0.659743 0.231853
vn 0.279475 -0.646556 -0.709830
v 0.250366 0.669211 0.255201
vn 0.855566 -0.457184 -0.242878
v 0.295227 0.974331 0.044750
vn 0.236865 0.762866 -0.601606
v 0.207587 0.692071 0.267345
vn -0.236865 -0.762866 0.601606
v 0.621484 0.815091 0.052040
vn 0.974389 0.000000 0.224868
v 0.600623 0.834858 0.077310
vn 0.557164 0.395337 0.730258
v 0.563442 0.843046 0.081190
vn -0.186440 0.559091 0.807872
v 0.531723 0.834858 0.061409
vn -0.820830 0.395337 0.412246
v 0.524045 0.815091 0.029553
vn -0.974389 -0.000000 -0.224869
v 0.544906 0.795324 0.004284
vn -0.557164 -0.395337 -0.730258
v 0.582086 0.787136 0.000403
vn 0.186440 -0.559091 -0.807872
v 0.613806 0.795324 0.020185
vn 0.820830 -0.395337 -0.412246
v 0.574967 0.508322 0.253606
vn 0.974389 0.000000 0.224868
v 0.554106 0.528089 0.278875
vn 0.557164 0.395337 0.730258
v 0.516925 0.536276 0.282756
vn -0.186440 0.559091 0.807872
v 0.485206 0.528089 0.262975
vn -0.820830 0.395337 0.412246
v 0.477528 0.508322 0.231119
vn -0.974389 -0.000000 -0.224869
v 0.498389 0.488555 0.205850
vn -0.557164 -0.395337 -0.730258
v 0.535569 0.480367 0.201969
vn 0.186440 -0.559091 -0.807872
v 0.567289 0.488555 0.221750
vn 0.820830 -0.395337 -0.412246
v 0.572764 0.815091 0.040797
vn 0.125722 0.829106 -0.544772
v 0.526247 0.508322 0.242363
vn -0.125722 -0.829106 0.544772
v 0.249459 0.692071 0.283830
vn 0.930478 0.000000 0.366348
v 0.245190 0.715227 0.258695
vn 0.835613 0.514596 -0.192202
v 0.218894 0.724819 0.238627
vn 0.251258 0.727748 -0.638163
v 0.185975 0.715227 0.235381
vn -0.480281 0.514596 -0.710297
v 0.165716 0.692071 0.250859
vn -0.930478 -0.000000 -0.366348
v 0.169985 0.668914 0.275994
vn -0.835613 -0.514596 0.192203
v 0.196281 0.659322 0.296062
vn -0.251258 -0.727748 0.638163
v 0.229200 0.668914 0.299308
vn 0.480281 -0.514595 0.710297
v 0.156146 0.932116 0.520834
vn 0.930478 0.000000 0.366348
v 0.151877 0.955273 0.495699
vn 0.835613 0.514596 -0.192202
v 0.125581 0.964865 0.475631
vn 0.251258 0.727748 -0.638163
v 0.092661 0.955273 0.472385
vn -0.480281 0.514596 -0.710297
v 0.072403 0.932116 0.487863
vn -0.930478 -0.000000 -0.366348
v 0.076672 0.908959 0.512997
vn -0.835613 -0.514596 0.192203
v 0.102968 0.899368 0.533066
vn -0.251258 -0.727748 0.638163
v 0.135887 0.908959 0.536312
vn 0.480281 -0.514595 0.710297
v 0.207587 0.692071 0.267345
vn 0.266609 -0.685845 -0.677153
v 0.114274 0.932116 0.504348
vn -0.266609 0.685845 0.677153
v 0.570095 0.508322 0.252482
vn 0.974389 0.000000 0.224868
v 0.563334 0.525089 0.223167
vn 0.824137 0.372601 -0.426575
v 0.534848 0.532034 0.205096
vn 0.191116 0.526938 -0.828137
v 0.501324 0.525089 0.208856
vn -0.553857 0.372601 -0.744587
v 0.482400 0.508322 0.232244
vn -0.974389 -0.000000 -0.224868
v 0.489161 0.491555 0.261559
vn -0.824137 -0.372601 0.426576
v 0.517647 0.484610 0.279629
vn -0.191117 -0.526938 0.828137
v 0.551171 0.491555 0.275869
vn 0.553858 -0.372601 0.744587
v 0.528623 0.805788 0.432187
vn 0.974389 0.000000 0.224868
v 0.521861 0.822555 0.402872
vn 0.824137 0.372601 -0.426575
v 0.493375 0.829500 0.384801
vn 0.191116 0.526938 -0.828137
v 0.459852 0.822555 0.388561
vn -0.553857 0.372601 -0.744587
v 0.440928 0.805788 0.411948
vn -0.974389 -0.000000 -0.224868
v 0.447689 0.789021 0.441263
vn -0.824137 -0.372601 0.426576
v 0.476175 0.782076 0.459334
vn -0.191117 -0.526938 0.828137
v 0.509699 0.789021 0.455574
vn 0.553858 -0.372601 0.744587
v 0.526247 0.508322 0.242363
vn 0.118492 -0.849904 -0.513442
v 0.484775 0.805788 0.422067
vn -0.118492 0.849904 0.513442
v 0.132724 0.891954 0.454633
vn 0.926253 -0.315820 -0.205702
v 0.156229 0.957708 0.459517
vn 0.926253 -0.315820 -0.205702
v 0.176772 0.941666 0.576652
vn 0.926253 -0.315820 -0.205702
v 0.153267 0.875911 0.571768
vn 0.926253 -0.315820 -0.205702
v 0.079167 0.901177 0.588225
vn -0.926253 0.315820 0.205702
v 0.102672 0.966931 0.593108
vn -0.926253 0.315820 0.205702
v 0.082129 0.982974 0.475973
vn -0.926253 0.315820 0.205702
v 0.058624 0.917219 0.471090
vn -0.926253 0.315820 0.205702
v 0.102672 0.966931 0.593108
vn 0.335780 0.939353 0.069764
v 0.176772 0.941666 0.576652
vn 0.335780 0.939353 0.069764
v 0.156229 0.957708 0.459517
vn 0.335780 0.939353 0.069764
v 0.082129 0.982974 0.475973
vn 0.335780 0.939353 0.069764
v 0.058624 0.917219 0.471090
vn -0.335780 -0.939353 -0.069764
v 0.132724 0.891954 0.454633
vn -0.335780 -0.939353 -0.069764
v 0.153267 0.875911 0.571768
vn -0.335780 -0.939353 -0.069764
v 0.079167 0.901177 0.588225
vn -0.335780 -0.939353 -0.069764
v 0.153267 0.875911 0.571768
vn 0.171194 -0.133689 0.976125
v 0.176772 0.941666 0.576652
vn 0.171194 -0.133689 0.976125
v 0.102672 0.966931 0.593108
vn 0.171194 -0.133689 0.976125
v 0.079167 0.901177 0.588225
vn 0.171194 -0.133689 0.976125
v 0.058624 0.917219 0.471090
vn -0.171194 0.133689 -0.976125
v 0.082129 0.982974 0.475973
vn -0.171194 0.133689 -0.976125
v 0.156229 0.957708 0.459517
vn -0.171194 0.133689 -0.976125
v 0.132724 0.891954 0.454633
vn -0.171194 0.133689 -0.976125
v 0.503225 0.765625 0.372353
vn 0.926253 -0.315820 -0.205702
v 0.526730 0.831380 0.377236
vn 0.926253 -0.315820 -0.205702
v 0.547273 0.815338 0.494371
vn 0.926253 -0.315820 -0.205702
v 0.523769 0.749583 0.489488
vn 0.926253 -0.315820 -0.205702
v 0.449668 0.774848 0.505944
vn -0.926253 0.315820 0.205702
v 0.473173 0.840603 0.510827
vn -0.926253 0.315820 0.205702
v 0.452630 0.856646 0.393692
vn -0.926253 0.315820 0.205702
v 0.429125 0.790891 0.388809
vn -0.926253 0.315820 0.205702
v 0.473173 0.840603 0.510827
vn 0.335780 0.939353 0.069764
v 0.547273 0.815338 0.494371
vn 0.335780 0.939353 0.069764
v 0.526730 0.831380 0.377236
vn 0.335780 0.939353 0.069764
v 0.452630 0.856646 0.393692
vn 0.335780 0.939353 0.069764
v 0.429125 0.790891 0.388809
vn -0.335780 -0.939353 -0.069764
v 0.503225 0.765625 0.372353
vn -0.335780 -0.939353 -0.069764
v 0.523769 0.749583 0.489488
vn -0.335780 -0.939353 -0.069764
v 0.449668 0.774848 0.505944
vn -0.335780 -0.939353 -0.069764
v 0.523769 0.749583 0.489488
vn 0.171194 -0.133689 0.976125
v 0.547273 0.815338 0.494371
vn 0.171194 -0.133689 0.976125
v 0.473173 0.840603 0.510827
vn 0.171194 -0.133689 0.976125
v 0.449668 0.774848 0.505944
vn 0.171194 -0.133689 0.976125
v 0.429125 0.790891 0.388809
vn -0.171194 0.133689 -0.976125
v 0.452630 0.856646 0.393692
vn -0.171194 0.133689 -0.976125
v 0.526730 0.831380 0.377236
vn -0.171194 0.133689 -0.976125
v 0.503225 0.765625 0.372353
vn -0.171194 0.133689 -0.976125
v 0.154291 0.502490 -0.056491
vn 0.867488 0.000000 0.497458
v 0.143744 0.549800 -0.079314
vn 0.716817 0.675860 0.171425
v 0.103804 0.569397 -0.109165
vn 0.146244 0.955811 -0.255027
v 0.057867 0.549800 -0.128559
vn -0.509997 0.675860 -0.532087
v 0.032843 0.502490 -0.126135
vn -0.867488 -0.000000 -0.497458
v 0.043390 0.455180 -0.103313
vn -0.716817 -0.675860 -0.171425
v 0.083330 0.435583 -0.073461
vn -0.146244 -0.955811 0.255027
v 0.129267 0.455180 -0.054067
vn 0.509997 -0.675860 0.532087
v -0.045409 0.625963 0.291754
vn 0.867488 0.000000 0.497458
v -0.055956 0.673273 0.268931
vn 0.716817 0.675860 0.171425
v -0.095896 0.692870 0.239080
vn 0.146244 0.955811 -0.255027
v -0.141833 0.673273 0.219685
vn -0.509997 0.675860 -0.532087
v -0.166857 0.625963 0.222109
vn -0.867488 -0.000000 -0.497458
v -0.156310 0.578653 0.244932
vn -0.716817 -0.675860 -0.171425
v -0.116370 0.559056 0.274783
vn -0.146244 -0.955811 0.255027
v -0.070433 0.578653 0.294178
vn 0.509997 -0.675860 0.532087
v 0.093567 0.502490 -0.091313
vn 0.475476 -0.293983 -0.829154
v -0.106133 0.625963 0.256932
vn -0.475476 0.293983 0.829154
v 0.351714 0.435170 -0.086268
vn 0.997399 0.000000 0.072077
v 0.331759 0.484191 -0.094581
vn 0.712325 0.700296 -0.046688
v 0.282595 0.504496 -0.100981
vn 0.009980 0.990368 -0.138103
v 0.233022 0.484191 -0.101717
vn -0.698211 0.700296 -0.148619
v 0.212079 0.435170 -0.096359
vn -0.997399 -0.000000 -0.072076
v 0.232034 0.386149 -0.088045
vn -0.712324 -0.700296 0.046688
v 0.281198 0.365844 -0.081646
vn -0.009980 -0.990368 0.138103
v 0.330771 0.386149 -0.080910
vn 0.698211 -0.700296 0.148619
v 0.321734 0.493324 0.328605
vn 0.997399 0.000000 0.072077
v 0.301779 0.542345 0.320291
vn 0.712325 0.700296 -0.046688
v 0.252615 0.562650 0.313892
vn 0.009980 0.990368 -0.138103
v 0.203041 0.542345 0.313156
vn -0.698211 0.700296 -0.148619
v 0.182098 0.493324 0.318514
vn -0.997399 -0.000000 -0.072076
v 0.202053 0.444304 0.326827
vn -0.712324 -0.700296 0.046688
v 0.251217 0.423999 0.333226
vn -0.009980 -0.990368 0.138103
v 0.300791 0.444304 0.333963
vn 0.698211 -0.700296 0.148619
v 0.281897 0.435170 -0.091313
vn 0.071382 -0.138463 -0.987792
v 0.251916 0.493324 0.323559
vn -0.071382 0.138463 0.987792
v -0.054083 0.625963 0.286779
vn 0.867488 0.000000 0.497458
v -0.089578 0.637920 0.313349
vn 0.275909 0.199278 0.940299
v -0.134770 0.642872 0.306871
vn -0.477294 0.281821 0.832326
v -0.163187 0.637920 0.271139
vn -0.950905 0.199278 0.236788
v -0.158182 0.625963 0.227084
vn -0.867488 -0.000000 -0.497458
v -0.122687 0.614006 0.200514
vn -0.275909 -0.199278 -0.940299
v -0.077495 0.609054 0.206992
vn 0.477294 -0.281821 -0.832326
v -0.049078 0.614006 0.242724
vn 0.950905 -0.199278 -0.236788
v -0.112965 0.222987 0.389459
vn 0.867488 0.000000 0.497458
v -0.148460 0.234943 0.416030
vn 0.275909 0.199278 0.940299
v -0.193652 0.239896 0.409551
vn -0.477294 0.281821 0.832326
v -0.222069 0.234943 0.373819
vn -0.950905 0.199278 0.236788
v -0.217064 0.222987 0.329764
vn -0.867488 -0.000000 -0.497458
v -0.181569 0.211030 0.303194
vn -0.275909 -0.199278 -0.940299
v -0.136377 0.206077 0.309672
vn 0.477294 -0.281821 -0.832326
v -0.107960 0.211030 0.345404
vn 0.950905 -0.199278 -0.236788
v -0.106133 0.625963 0.256932
vn 0.140194 0.959467 -0.244477
v -0.165014 0.222987 0.359612
vn -0.140194 -0.959467 0.244477
v 0.311760 0.493324 0.327884
vn 0.997399 0.000000 0.072076
v 0.291185 0.496976 0.368776
vn 0.654491 0.060856 0.753616
v 0.247607 0.498488 0.383181
vn -0.071809 0.086063 0.993698
v 0.206553 0.496976 0.362660
vn -0.756044 0.060856 0.651685
v 0.192072 0.493324 0.319235
vn -0.997399 -0.000000 -0.072076
v 0.212646 0.489673 0.278342
vn -0.654491 -0.060856 -0.753617
v 0.256224 0.488161 0.263937
vn 0.071809 -0.086063 -0.993698
v 0.297279 0.489673 0.284458
vn 0.756044 -0.060856 -0.651685
v 0.309155 0.074883 0.363936
vn 0.997399 0.000000 0.072076
v 0.288580 0.078534 0.404829
vn 0.654491 0.060856 0.753616
v 0.245002 0.080046 0.419234
vn -0.071809 0.086063 0.993698
v 0.203948 0.078534 0.398713
vn -0.756044 0.060856 0.651685
v 0.189467 0.074883 0.355287
vn -0.997399 -0.000000 -0.072076
v 0.210041 0.071231 0.314395
vn -0.654491 -0.060856 -0.753617
v 0.253619 0.069719 0.299990
vn 0.071809 -0.086063 -0.993698
v 0.294673 0.071231 0.320511
vn 0.756044 -0.060856 -0.651685
v 0.251916 0.493324 0.323559
vn 0.006203 0.996290 -0.085839
v 0.249311 0.074883 0.359612
vn -0.006203 -0.996290 0.085839
v -0.139793 0.145000 0.284899
vn 0.941648 -0.336600 0.000000
v -0.112930 0.220149 0.290480
vn 0.941648 -0.336600 0.000000
v -0.119036 0.203069 0.549846
vn 0.941648 -0.336600 0.000000
v -0.145898 0.127920 0.544265
vn 0.941648 -0.336600 0.000000
v -0.240063 0.161580 0.544265
vn -0.941648 0.336600 0.000000
v -0.213201 0.236729 0.549846
vn -0.941648 0.336600 0.000000
v -0.207095 0.253809 0.290480
vn -0.941648 0.336600 0.000000
v -0.233958 0.178660 0.284899
vn -0.941648 0.336600 0.000000
v -0.213201 0.236729 0.549846
vn 0.335780 0.939353 0.069764
v -0.119036 0.203069 0.549846
vn 0.335780 0.939353 0.069764
v -0.112930 0.220149 0.290480
vn 0.335780 0.939353 0.069764
v -0.207095 0.253809 0.290480
vn 0.335780 0.939353 0.069764
v -0.233958 0.178660 0.284899
vn -0.335780 -0.939353 -0.069764
v -0.139793 0.145000 0.284899
vn -0.335780 -0.939353 -0.069764
v -0.145898 0.127920 0.544265
vn -0.335780 -0.939353 -0.069764
v -0.240063 0.161580 0.544265
vn -0.335780 -0.939353 -0.069764
v -0.145898 0.127920 0.544265
vn -0.023482 -0.065693 0.997564
v -0.119036 0.203069 0.549846
vn -0.023482 -0.065693 0.997564
v -0.213201 0.236729 0.549846
vn -0.023482 -0.065693 0.997564
v -0.240063 0.161580 0.544265
vn -0.023482 -0.065693 0.997564
v -0.233958 0.178660 0.284899
vn 0.023482 0.065693 -0.997564
v -0.207095 0.253809 0.290480
vn 0.023482 0.065693 -0.997564
v -0.112930 0.220149 0.290480
vn 0.023482 0.065693 -0.997564
v -0.139793 0.145000 0.284899
vn 0.023482 0.065693 -0.997564
v 0.274532 -0.003104 0.284899
vn 0.941648 -0.336600 0.000000
v 0.301395 0.072045 0.290480
vn 0.941648 -0.336600 0.000000
v 0.295289 0.054965 0.549846
vn 0.941648 -0.336600 0.000000
v 0.268427 -0.020184 0.544265
vn 0.941648 -0.336600 0.000000
v 0.174262 0.013476 0.544265
vn -0.941648 0.336600 0.000000
v 0.201124 0.088625 0.549846
vn -0.941648 0.336600 0.000000
v 0.207230 0.105705 0.290480
vn -0.941648 0.336600 0.000000
v 0.180367 0.030556 0.284899
vn -0.941648 0.336600 0.000000
v 0.201124 0.088625 0.549846
vn 0.335780 0.939353 0.069764
v 0.295289 0.054965 0.549846
vn 0.335780 0.939353 0.069764
v 0.301395 0.072045 0.290480
vn 0.335780 0.939353 0.069764
v 0.207230 0.105705 0.290480
vn 0.335780 0.939353 0.069764
v 0.180367 0.030556 0.284899
vn -0.335780 -0.939353 -0.069764
v 0.274532 -0.003104 0.284899
vn -0.335780 -0.939353 -0.069764
v 0.268427 -0.020184 0.544265
vn -0.335780 -0.939353 -0.069764
v 0.174262 0.013476 0.544265
vn -0.335780 -0.939353 -0.069764
v 0.268427 -0.020184 0.544265
vn -0.023482 -0.065693 0.997564
v 0.295289 0.054965 0.549846
vn -0.023482 -0.065693 0.997564
v 0.201124 0.088625 0.549846
vn -0.023482 -0.065693 0.997564
v 0.174262 0.013476 0.544265
vn -0.023482 -0.065693 0.997564
v 0.180367 0.030556 0.284899
vn 0.023482 0.065693 -0.997564
v 0.207230 0.105705 0.290480
vn 0.023482 0.065693 -0.997564
v 0.301395 0.072045 0.290480
vn 0.023482 0.065693 -0.997564
v 0.274532 -0.003104 0.284899
vn 0.023482 0.065693 -0.997564
f 1/1 10/10 2/2
f 2/2 10/10 11/11
f 2/2 11/11 3/3
f 3/3 11/11 12/12
f 3/3 12/12 4/4
f 4/4 12/12 13/13
f 4/4 13/13 5/5
f 5/5 13/13 14/14
f 5/5 14/14 6/6
f 6/6 14/14 15/15
f 6/6 15/15 7/7
f 7/7 15/15 16/16
f 7/7 16/16 8/8
f 8/8 16/16 17/17
f 8/8 17/17 9/9
f 9/9 17/17 18/18
f 10/10 19/19 11/11
f 11/11 19/19 20/20
f 11/11 20/20 12/12
f 12/12 20/20 21/21
f 12/12 21/21 13/13
f 13/13 21/21 22/22
f 13/13 22/22 14/14
f 14/14 22/22 23/23
f 14/14 23/23 15/15
f 15/15 23/23 24/24
f 15/15 24/24 16/16
f 16/16 24/24 25/25
f 16/16 25/25 17/17
f 17/17 25/25 26/26
f 17/17 26/26 18/18
f 18/18 26/26 27/27
f 19/19 28/28 20/20
f 20/20 28/28 29/29
f 20/20 29/29 21/21
f 21/21 29/29 30/30
f 21/21 30/30 22/22
f 22/22 30/30 31/31
f 22/22 31/31 23/23
f 23/23 31/31 32/32
f 23/23 32/32 24/24
f 24/24 32/32 33/33
f 24/24 33/33 25/25
f 25/25 33/33 34/34
f 25/25 34/34 26/26
f 26/26 34/34 35/35
f 26/26 35/35 27/27
f 27/27 35/35 36/36
f 28/28 37/37 29/29
f 29/29 37/37 38/38
f 29/29 38/38 30/30
f 30/30 38/38 39/39
f 30/30 39/39 31/31
f 31/31 39/39 40/40
f 31/31 40/40 32/32
f 32/32 40/40 41/41
f 32/32 41/41 33/33
f 33/33 41/41 42/42
f 33/33 42/42 34/34
f 34/34 42/42 43/43
f 34/34 43/43 35/35
f 35/35 43/43 44/44
f 35/35 44/44 36/36
f 36/36 44/44 45/45
f 37/37 46/46 38/38
f 38/38 46/46 47/47
f 38/38 47/47 39/39
f 39/39 47/47 48/48
f 39/39 48/48 40/40
f 40/40 48/48 49/49
f 40/40 49/49 41/41
f 41/41 49/49 50/50
f 41/41 50/50 42/42
f 42/42 50/50 51/51
f 42/42 51/51 43/43
f 43/43 51/51 52/52
f 43/43 52/52 44/44
f 44/44 52/52 53/53
f 44/44 53/53 45/45
f 45/45 53/53 54/54
f 46/46 55/55 47/47
f 47/47 55/55 56/56
f 47/47 56/56 48/48
f 48/48 56/56 57/57
f 48/48 57/57 49/49
f 49/49 57/57 58/58
f 49/49 58/58 50/50
f 50/50 58/58 59/59
f 50/50 59/59 51/51
f 51/51 59/59 60/60
f 51/51 60/60 52/52
f 52/52 60/60 61/61
f 52/52 61/61 53/53
f 53/53 61/61 62/62
f 53/53 62/62 54/54
f 54/54 62/62 63/63
f 55/55 64/64 56/56
f 56/56 64/64 65/65
f 56/56 65/65 57/57
f 57/57 65/65 66/66
f 57/57 66/66 58/58
f 58/58 66/66 67/67
f 58/58 67/67 59/59
f 59/59 67/67 68/68
f 59/59 68/68 60/60
f 60/60 68/68 69/69
f 60/60 69/69 61/61
f 61/61 69/69 70/70
f 61/61 70/70 62/62
f 62/62 70/70 71/71
f 62/62 71/71 63/63
f 63/63 71/71 72/72
f 64/64 73/73 65/65
f 65/65 73/73 74/74
f 65/65 74/74 66/66
f 66/66 74/74 75/75
f 66/66 75/75 67/67
f 67/67 75/75 76/76
f 67/67 76/76 68/68
f 68/68 76/76 77/77
f 68/68 77/77 69/69
f 69/69 77/77 78/78
f 69/69 78/78 70/70
f 70/70 78/78 79/79
f 70/70 79/79 71/71
f 71/71 79/79 80/80
f 71/71 80/80 72/72
f 72/72 80/80 81/81
f 73/73 82/82 74/74
f 74/74 82/82 83/83
f 74/74 83/83 75/75
f 75/75 83/83 84/84
f 75/75 84/84 76/76
f 76/76 84/84 85/85
f 76/76 85/85 77/77
f 77/77 85/85 86/86
f 77/77 86/86 78/78
f 78/78 86/86 87/87
f 78/78 87/87 79/79
f 79/79 87/87 88/88
f 79/79 88/88 80/80
f 80/80 88/88 89/89
f 80/80 89/89 81/81
f 81/81 89/89 90/90
f 82/82 91/91 83/83
f 83/83 91/91 92/92
f 83/83 92/92 84/84
f 84/84 92/92 93/93
f 84/84 93/93 85/85
f 85/85 93/93 94/94
f 85/85 94/94 86/86
f 86/86 94/94 95/95
f 86/86 95/95 87/87
f 87/87 95/95 96/96
f 87/87 96/96 88/88
f 88/88 96/96 97/97
f 88/88 97/97 89/89
f 89/89 97/97 98/98
f 89/89 98/98 90/90
f 90/90 98/98 99/99
f 100/100 103/103 101/101
f 101/101 103/103 104/104
f 101/101 104/104 102/102
f 102/102 104/104 105/105
f 103/103 106/106 104/104
f 104/104 106/106 107/107
f 104/104 107/107 105/105
f 105/105 107/107 108/108
f 106/106 109/109 107/107
f 107/107 109/109 110/110
f 107/107 110/110 108/108
f 108/108 110/110 111/111
f 109/109 112/112 110/110
f 110/110 112/112 113/113
f 110/110 113/113 111/111
f 111/111 113/113 114/114
f 112/112 115/115 113/113
f 113/113 115/115 116/116
f 113/113 116/116 114/114
f 114/114 116/116 117/117
f 115/115 118/118 116/116
f 116/116 118/118 119/119
f 116/116 119/119 117/117
f 117/117 119/119 120/120
f 118/118 121/121 119/119
f 119/119 121/121 122/122
f 119/119 122/122 120/120
f 120/120 122/122 123/123
f 121/121 124/124 122/122
f 122/122 124/124 125/125
f 122/122 125/125 123/123
f 123/123 125/125 126/126
f 124/124 127/127 125/125
f 125/125 127/127 128/128
f 125/125 128/128 126/126
f 126/126 128/128 129/129
f 127/127 130/130 128/128
f 128/128 130/130 131/131
f 128/128 131/131 129/129
f 129/129 131/131 132/132
f 133/133 134/134 135/135
f 133/133 135/135 136/136
f 137/137 138/138 139/139
f 137/137 139/139 140/140
f 141/141 142/142 143/143
f 141/141 143/143 144/144
f 145/145 146/146 147/147
f 145/145 147/147 148/148
f 149/149 150/150 151/151
f 149/149 151/151 152/152
f 153/153 154/154 155/155
f 153/153 155/155 156/156
f 157/157 168/168 158/158
f 157/157 167/167 168/168
f 158/158 169/169 159/159
f 158/158 168/168 169/169
f 159/159 170/170 160/160
f 159/159 169/169 170/170
f 160/160 171/171 161/161
f 160/160 170/170 171/171
f 161/161 172/172 162/162
f 161/161 171/171 172/172
f 162/162 173/173 163/163
f 162/162 172/172 173/173
f 163/163 174/174 164/164
f 163/163 173/173 174/174
f 164/164 175/175 165/165
f 164/164 174/174 175/175
f 165/165 176/176 166/166
f 165/165 175/175 176/176
f 166/166 167/167 157/157
f 166/166 176/176 167/167
f 177/177 158/158 157/157
f 177/177 159/159 158/158
f 177/177 160/160 159/159
f 177/177 161/161 160/160
f 177/177 162/162 161/161
f 177/177 163/163 162/162
f 177/177 164/164 163/163
f 177/177 165/165 164/164
f 177/177 166/166 165/165
f 177/177 157/157 166/166
f 178/178 167/167 168/168
f 178/178 168/168 169/169
f 178/178 169/169 170/170
f 178/178 170/170 171/171
f 178/178 171/171 172/172
f 178/178 172/172 173/173
f 178/178 173/173 174/174
f 178/178 174/174 175/175
f 178/178 175/175 176/176
f 178/178 176/176 167/167
f 179/179 180/180 181/181
f 179/179 181/181 182/182
f 183/183 184/184 185/185
f 183/183 185/185 186/186
f 187/187 188/188 189/189
f 187/187 189/189 190/190
f 191/191 192/192 193/193
f 191/191 193/193 194/194
f 195/195 196/196 197/197
f 195/195 197/197 198/198
f 199/199 200/200 201/201
f 199/199 201/201 202/202
f 203/203 204/204 205/205
f 203/203 205/205 206/206
f 207/207 208/208 209/209
f 207/207 209/209 210/210
f 211/211 212/212 213/213
f 211/211 213/213 214/214
f 215/215 216/216 217/217
f 215/215 217/217 218/218
f 219/219 220/220 221/221
f 219/219 221/221 222/222
f 223/223 224/224 225/225
f 223/223 225/225 226/226
f 227/227 228/228 229/229
f 227/227 229/229 230/230
f 231/231 232/232 233/233
f 231/231 233/233 234/234
f 235/235 236/236 237/237
f 235/235 237/237 238/238
f 239/239 240/240 241/241
f 239/239 241/241 242/242
f 243/243 244/244 245/245
f 243/243 245/245 246/246
f 247/247 248/248 249/249
f 247/247 249/249 250/250
f 251/251 252/252 253/253
f 251/251 253/253 254/254
f 255/255 256/256 257/257
f 255/255 257/257 258/258
f 259/259 260/260 261/261
f 259/259 261/261 262/262
f 263/263 264/264 265/265
f 263/263 265/265 266/266
f 267/267 268/268 269/269
f 267/267 269/269 270/270
f 271/271 272/272 273/273
f 271/271 273/273 274/274
f 275/275 276/276 277/277
f 275/275 277/277 278/278
f 279/279 280/280 281/281
f 279/279 281/281 282/282
f 283/283 284/284 285/285
f 283/283 285/285 286/286
f 287/287 288/288 289/289
f 287/287 289/289 290/290
f 291/291 292/292 293/293
f 291/291 293/293 294/294
f 295/295 296/296 297/297
f 295/295 297/297 298/298
f 299/299 300/300 301/301
f 299/299 301/301 302/302
f 303/303 304/304 305/305
f 303/303 305/305 306/306
f 307/307 308/308 309/309
f 307/307 309/309 310/310
f 311/311 312/312 313/313
f 311/311 313/313 314/314
f 315/315 316/316 317/317
f 315/315 317/317 318/318
f 319/319 320/320 321/321
f 319/319 321/321 322/322
f 323/323 324/324 325/325
f 323/323 325/325 326/326
f 327/327 328/328 329/329
f 327/327 329/329 330/330
f 331/331 332/332 333/333
f 331/331 333/333 334/334
f 335/335 336/336 337/337
f 335/335 337/337 338/338
f 339/339 340/340 341/341
f 339/339 341/341 342/342
f 343/343 344/344 345/345
f 343/343 345/345 346/346
f 347/347 356/356 348/348
f 347/347 355/355 356/356
f 348/348 357/357 349/349
f 348/348 356/356 357/357
f 349/349 358/358 350/350
f 349/349 357/357 358/358
f 350/350 359/359 351/351
f 350/350 358/358 359/359
f 351/351 360/360 352/352
f 351/351 359/359 360/360
f 352/352 361/361 353/353
f 352/352 360/360 361/361
f 353/353 362/362 354/354
f 353/353 361/361 362/362
f 354/354 355/355 347/347
f 354/354 362/362 355/355
f 363/363 348/348 347/347
f 363/363 349/349 348/348
f 363/363 350/350 349/349
f 363/363 351/351 350/350
f 363/363 352/352 351/351
f 363/363 353/353 352/352
f 363/363 354/354 353/353
f 363/363 347/347 354/354
f 364/364 355/355 356/356
f 364/364 356/356 357/357
f 364/364 357/357 358/358
f 364/364 358/358 359/359
f 364/364 359/359 360/360
f 364/364 360/360 361/361
f 364/364 361/361 362/362
f 364/364 362/362 355/355
f 365/365 374/374 366/366
f 365/365 373/373 374/374
f 366/366 375/375 367/367
f 366/366 374/374 375/375
f 367/367 376/376 368/368
f 367/367 375/375 376/376
f 368/368 377/377 369/369
f 368/368 376/376 377/377
f 369/369 378/378 370/370
f 369/369 377/377 378/378
f 370/370 379/379 371/371
f 370/370 378/378 379/379
f 371/371 380/380 372/372
f 371/371 379/379 380/380
f 372/372 373/373 365/365
f 372/372 380/380 373/373
f 381/381 366/366 365/365
f 381/381 367/367 366/366
f 381/381 368/368 367/367
f 381/381 369/369 368/368
f 381/381 370/370 369/369
f 381/381 371/371 370/370
f 381/381 372/372 371/371
f 381/381 365/365 372/372
f 382/382 373/373 374/374
f 382/382 374/374 375/375
f 382/382 375/375 376/376
f 382/382 376/376 377/377
f 382/382 377/377 378/378
f 382/382 378/378 379/379
f 382/382 379/379 380/380
f 382/382 380/380 373/373
f 383/383 392/392 384/384
f 383/383 391/391 392/392
f 384/384 393/393 385/385
f 384/384 392/392 393/393
f 385/385 394/394 386/386
f 385/385 393/393 394/394
f 386/386 395/395 387/387
f 386/386 394/394 395/395
f 387/387 396/396 388/388
f 387/387 395/395 396/396
f 388/388 397/397 389/389
f 388/388 396/396 397/397
f 389/389 398/398 390/390
f 389/389 397/397 398/398
f 390/390 391/391 383/383
f 390/390 398/398 391/391
f 399/399 384/384 383/383
f 399/399 385/385 384/384
f 399/399 386/386 385/385
f 399/399 387/387 386/386
f 399/399 388/388 387/387
f 399/399 389/389 388/388
f 399/399 390/390 389/389
f 399/399 383/383 390/390
f 400/400 391/391 392/392
f 400/400 392/392 393/393
f 400/400 393/393 394/394
f 400/400 394/394 395/395
f 400/400 395/395 396/396
f 400/400 396/396 397/397
f 400/400 397/397 398/398
f 400/400 398/398 391/391
f 401/401 410/410 402/402
f 401/401 409/409 410/410
f 402/402 411/411 403/403
f 402/402 410/410 411/411
f 403/403 412/412 404/404
f 403/403 411/411 412/412
f 404/404 413/413 405/405
f 404/404 412/412 413/413
f 405/405 414/414 406/406
f 405/405 413/413 414/414
f 406/406 415/415 407/407
f 406/406 414/414 415/415
f 407/407 416/416 408/408
f 407/407 415/415 416/416
f 408/408 409/409 401/401
f 408/408 416/416 409/409
f 417/417 402/402 401/401
f 417/417 403/403 402/402
f 417/417 404/404 403/403
f 417/417 405/405 404/404
f 417/417 406/406 405/405
f 417/417 407/407 406/406
f 417/417 408/408 407/407
f 417/417 401/401 408/408
f 418/418 409/409 410/410
f 418/418 410/410 411/411
f 418/418 411/411 412/412
f 418/418 412/412 413/413
f 418/418 413/413 414/414
f 418/418 414/414 415/415
f 418/418 415/415 416/416
f 418/418 416/416 409/409
f 419/419 420/420 421/421
f 419/419 421/421 422/422
f 423/423 424/424 425/425
f 423/423 425/425 426/426
f 427/427 428/428 429/429
f 427/427 429/429 430/430
f 431/431 432/432 433/433
f 431/431 433/433 434/434
f 435/435 436/436 437/437
f 435/435 437/437 438/438
f 439/439 440/440 441/441
f 439/439 441/441 442/442
f 443/443 444/444 445/445
f 443/443 445/445 446/446
f 447/447 448/448 449/449
f 447/447 449/449 450/450
f 451/451 452/452 453/453
f 451/451 453/453 454/454
f 455/455 456/456 457/457
f 455/455 457/457 458/458
f 459/459 460/460 461/461
f 459/459 461/461 462/462
f 463/463 464/464 465/465
f 463/463 465/465 466/466
f 467/467 476/476 468/468
f 467/467 475/475 476/476
f 468/468 477/477 469/469
f 468/468 476/476 477/477
f 469/469 478/478 470/470
f 469/469 477/477 478/478
f 470/470 479/479 471/471
f 470/470 478/478 479/479
f 471/471 480/480 472/472
f 471/471 479/479 480/480
f 472/472 481/481 473/473
f 472/472 480/480 481/481
f 473/473 482/482 474/474
f 473/473 481/481 482/482
f 474/474 475/475 467/467
f 474/474 482/482 475/475
f 483/483 468/468 467/467
f 483/483 469/469 468/468
f 483/483 470/470 469/469
f 483/483 471/471 470/470
f 483/483 472/472 471/471
f 483/483 473/473 472/472
f 483/483 474/474 473/473
f 483/483 467/467 474/474
f 484/484 475/475 476/476
f 484/484 476/476 477/477
f 484/484 477/477 478/478
f 484/484 478/478 479/479
f 484/484 479/479 480/480
f 484/484 480/480 481/481
f 484/484 481/481 482/482
f 484/484 482/482 475/475
f 485/485 494/494 486/486
f 485/485 493/493 494/494
f 486/486 495/495 487/487
f 486/486 494/494 495/495
f 487/487 496/496 488/488
f 487/487 495/495 496/496
f 488/488 497/497 489/489
f 488/488 496/496 497/497
f 489/489 498/498 490/490
f 489/489 497/497 498/498
f 490/490 499/499 491/491
f 490/490 498/498 499/499
f 491/491 500/500 492/492
f 491/491 499/499 500/500
f 492/492 493/493 485/485
f 492/492 500/500 493/493
f 501/501 486/486 485/485
f 501/501 487/487 486/486
f 501/501 488/488 487/487
f 501/501 489/489 488/488
f 501/501 490/490 489/489
f 501/501 491/491 490/490
f 501/501 492/492 491/491
f 501/501 485/485 492/492
f 502/502 493/493 494/494
f 502/502 494/494 495/495
f 502/502 495/495 496/496
f 502/502 496/496 497/497
f 502/502 497/497 498/498
f 502/502 498/498 499/499
f 502/502 499/499 500/500
f 502/502 500/500 493/493
f 503/503 512/512 504/504
f 503/503 511/511 512/512
f 504/504 513/513 505/505
f 504/504 512/512 513/513
f 505/505 514/514 506/506
f 505/505 513/513 514/514
f 506/506 515/515 507/507
f 506/506 514/514 515/515
f 507/507 516/516 508/508
f 507/507 515/515 516/516
f 508/508 517/517 509/509
f 508/508 516/516 517/517
f 509/509 518/518 510/510
f 509/509 517/517 518/518
f 510/510 511/511 503/503
f 510/510 518/518 511/511
f 519/519 504/504 503/503
f 519/519 505/505 504/504
f 519/519 506/506 505/505
f 519/519 507/507 506/506
f 519/519 508/508 507/507
f 519/519 509/509 508/508
f 519/519 510/510 509/509
f 519/519 503/503 510/510
f 520/520 511/511 512/512
f 520/520 512/512 513/513
f 520/520 513/513 514/514
f 520/520 514/514 515/515
f 520/520 515/515 516/516
f 520/520 516/516 517/517
f 520/520 517/517 518/518
f 520/520 518/518 511/511
f 521/521 530/530 522/522
f 521/521 529/529 530/530
f 522/522 531/531 523/523
f 522/522 530/530 531/531
f 523/523 532/532 524/524
f 523/523 531/531 532/532
f 524/524 533/533 525/525
f 524/524 532/532 533/533
f 525/525 534/534 526/526
f 525/525 533/533 534/534
f 526/526 535/535 527/527
f 526/526 534/534 535/535
f 527/527 536/536 528/528
f 527/527 535/535 536/536
f 528/528 529/529 521/521
f 528/528 536/536 529/529
f 537/537 522/522 521/521
f 537/537 523/523 522/522
f 537/537 524/524 523/523
f 537/537 525/525 524/524
f 537/537 526/526 525/525
f 537/537 527/527 526/526
f 537/537 528/528 527/527
f 537/537 521/521 528/528
f 538/538 529/529 530/530
f 538/538 530/530 531/531
f 538/538 531/531 532/532
f 538/538 532/532 533/533
f 538/538 533/533 534/534
f 538/538 534/534 535/535
f 538/538 535/535 536/536
f 538/538 536/536 529/529
f 539/539 540/540 541/541
f 539/539 541/541 542/542
f 543/543 544/544 545/545
f 543/543 545/545 546/546
f 547/547 548/548 549/549
f 547/547 549/549 550/550
f 551/551 552/552 553/553
f 551/551 553/553 554/554
f 555/555 556/556 557/557
f 555/555 557/557 558/558
f 559/559 560/560 561/561
f 559/559 561/561 562/562
f 563/563 564/564 565/565
f 563/563 565/565 566/566
f 567/567 568/568 569/569
f 567/567 569/569 570/570
f 571/571 572/572 573/573
f 571/571 573/573 574/574
f 575/575 576/576 577/577
f 575/575 577/577 578/578
f 579/579 580/580 581/581
f 579/579 581/581 582/582
f 583/583 584/584 585/585
f 583/583 585/585 586/586
