# jetski asset - posed mesh (debug export)
# vertices=586 indices=1920 parts=21
v -0.422846 0.140618 -1.502620
vn -0.999826 -0.018635 0.000000
v -0.386389 -0.099806 -1.498868
vn -0.958796 -0.284064 0.004142
v -0.291552 -0.302435 -1.495687
vn -0.821570 -0.570042 0.008632
v -0.152773 -0.436423 -1.493562
vn -0.511831 -0.858984 0.013218
v 0.008820 -0.481369 -1.492815
vn 0.018633 -0.999705 0.015562
v 0.168625 -0.430433 -1.493562
vn 0.543485 -0.839315 0.013218
v 0.302315 -0.291367 -1.495687
vn 0.842241 -0.539031 0.008632
v 0.389535 -0.085344 -1.498868
vn 0.968716 -0.248139 0.004142
v 0.417008 0.156272 -1.502620
vn 0.999826 0.018635 -0.000000
v -0.503292 0.163789 -1.202967
vn -0.999826 -0.018635 0.000000
v -0.460247 -0.103301 -1.198798
vn -0.953457 -0.301496 0.004415
v -0.347648 -0.328311 -1.195264
vn -0.802762 -0.596231 0.009045
v -0.182637 -0.476984 -1.192903
vn -0.485447 -0.874162 0.013462
v 0.009664 -0.526687 -1.192074
vn 0.018633 -0.999705 0.015562
v 0.199980 -0.469853 -1.192903
vn 0.517684 -0.855466 0.013462
v 0.359336 -0.315134 -1.195264
vn 0.824422 -0.565903 0.009045
v 0.463472 -0.086084 -1.198798
vn 0.964030 -0.265757 0.004415
v 0.496535 0.182424 -1.202967
vn 0.999826 0.018635 -0.000000
v -0.563741 0.187333 -0.903315
vn -0.999826 -0.018635 0.000000
v -0.515844 -0.094975 -0.898908
vn -0.948480 -0.316802 0.004655
v -0.389999 -0.332715 -0.895172
vn -0.786024 -0.618125 0.009391
v -0.205365 -0.489694 -0.892675
vn -0.463708 -0.885883 0.013651
v 0.009950 -0.542013 -0.891799
vn 0.018633 -0.999705 0.015562
v 0.223166 -0.481707 -0.892675
vn 0.496397 -0.867988 0.013651
v 0.401823 -0.317957 -0.895172
vn 0.808512 -0.588405 0.009391
v 0.518721 -0.075692 -0.898908
vn 0.959627 -0.281238 0.004655
v 0.556065 0.208204 -0.903315
vn 0.999826 0.018635 -0.000000
v -0.603821 0.191255 -0.603351
vn -0.999826 -0.018635 0.000000
v -0.553023 -0.083344 -0.599063
vn -0.939027 -0.343806 0.005078
v -0.418629 -0.314437 -0.595428
vn -0.756159 -0.654312 0.009963
v -0.221101 -0.466840 -0.592999
vn -0.428341 -0.903510 0.013935
v 0.009490 -0.517351 -0.592146
vn 0.018633 -0.999705 0.015562
v 0.238039 -0.458282 -0.592999
vn 0.461712 -0.886921 0.013935
v 0.429751 -0.298624 -0.595428
vn 0.780016 -0.625680 0.009963
v 0.555440 -0.062684 -0.599063
vn 0.951186 -0.308575 0.005078
v 0.595971 0.213617 -0.603351
vn 0.999826 0.018635 -0.000000
v -0.603908 0.195923 -0.303387
vn -0.999826 -0.018635 0.000000
v -0.553252 -0.071025 -0.299219
vn -0.935970 -0.352041 0.005207
v -0.418980 -0.295631 -0.295685
vn -0.746999 -0.664748 0.010128
v -0.221532 -0.443700 -0.293323
vn -0.418255 -0.908222 0.014012
v 0.009031 -0.492690 -0.292494
vn 0.018633 -0.999705 0.015562
v 0.237608 -0.435142 -0.293323
vn 0.451808 -0.892005 0.014012
v 0.429401 -0.279818 -0.295685
vn 0.771251 -0.636451 0.010128
v 0.555211 -0.050365 -0.299219
vn 0.948438 -0.316919 0.005207
v 0.595884 0.218285 -0.303387
vn 0.999826 0.018635 -0.000000
v -0.584371 0.220958 -0.003735
vn -0.999826 -0.018635 0.000000
v -0.535238 -0.046019 0.000434
vn -0.939632 -0.342149 0.005052
v -0.405300 -0.270705 0.003968
vn -0.758000 -0.652179 0.009929
v -0.214340 -0.418895 0.006329
vn -0.430407 -0.902527 0.013920
v 0.008571 -0.468028 0.007159
vn 0.018633 -0.999705 0.015562
v 0.229496 -0.410623 0.006329
vn 0.463740 -0.885862 0.013920
v 0.414802 -0.255420 0.003968
vn 0.781776 -0.623480 0.009929
v 0.536277 -0.026048 0.000434
vn 0.951729 -0.306897 0.005052
v 0.575427 0.242574 -0.003735
vn 0.999826 0.018635 -0.000000
v -0.544838 0.246365 0.295918
vn -0.999826 -0.018635 0.000000
v -0.498891 -0.013017 0.299967
vn -0.943942 -0.330074 0.004863
v -0.377744 -0.231379 0.303400
vn -0.771387 -0.636292 0.009678
v -0.199839 -0.375476 0.305694
vn -0.445870 -0.894992 0.013798
v 0.007739 -0.423372 0.306500
vn 0.018633 -0.999705 0.015562
v 0.213388 -0.367774 0.305694
vn 0.478911 -0.877755 0.013798
v 0.385799 -0.217147 0.303400
vn 0.794562 -0.607106 0.009678
v 0.498726 0.005577 0.299967
vn 0.955587 -0.294670 0.004863
v 0.534975 0.266491 0.295918
vn 0.999826 0.018635 -0.000000
v -0.485680 0.292139 0.595259
vn -0.999826 -0.018635 0.000000
v -0.444443 0.040323 0.599189
vn -0.951957 -0.306200 0.004489
v -0.336420 -0.171794 0.602521
vn -0.797636 -0.603069 0.009153
v -0.178058 -0.311920 0.604748
vn -0.478627 -0.877914 0.013523
v 0.006534 -0.358722 0.605530
vn 0.018633 -0.999705 0.015562
v 0.189254 -0.305074 0.604748
vn 0.511009 -0.859469 0.013523
v 0.342284 -0.159144 0.602521
vn 0.819555 -0.572927 0.009153
v 0.442327 0.056851 0.599189
vn 0.962706 -0.270514 0.004489
v 0.474153 0.310029 0.595259
vn 0.999826 0.018635 -0.000000
v -0.406527 0.338286 0.894600
vn -0.999826 -0.018635 0.000000
v -0.371520 0.094008 0.898411
vn -0.963247 -0.268588 0.003900
v -0.280958 -0.111946 0.901642
vn -0.837976 -0.545645 0.008248
v -0.148626 -0.248221 0.903801
vn -0.536806 -0.843606 0.012972
v 0.005329 -0.294071 0.904560
vn 0.018633 -0.999705 0.015562
v 0.157468 -0.242516 0.903801
vn 0.567869 -0.823017 0.012972
v 0.284630 -0.101404 0.901642
vn 0.857726 -0.514040 0.008248
v 0.367455 0.107781 0.898411
vn 0.972587 -0.232507 0.003900
v 0.393334 0.353194 0.894600
vn 0.999826 0.018635 -0.000000
v -0.307749 0.404799 1.193630
vn -0.999826 -0.018635 0.000000
v -0.280496 0.168031 1.197322
vn -0.976668 -0.214731 0.003058
v -0.211728 -0.031840 1.200452
vn -0.891887 -0.452207 0.006778
v -0.111913 -0.164386 1.202544
vn -0.636041 -0.771565 0.011822
v 0.003751 -0.209427 1.203278
vn 0.018633 -0.999705 0.015562
v 0.117657 -0.160107 1.202544
vn 0.664351 -0.747327 0.011822
v 0.212463 -0.023934 1.200452
vn 0.908119 -0.418658 0.006778
v 0.273736 0.178361 1.197322
vn 0.983992 -0.178188 0.003058
v 0.292147 0.415981 1.193630
vn 0.999826 0.018635 -0.000000
v -0.069741 0.513910 1.492037
vn -0.999826 -0.018635 0.000000
v -0.060896 0.284453 1.495610
vn -0.998199 -0.059993 0.000644
v -0.044265 0.090099 1.498640
vn -0.993010 -0.118017 0.001548
v -0.022380 -0.039564 1.500664
vn -0.967531 -0.252725 0.003652
v 0.001428 -0.084795 1.501374
vn 0.018633 -0.999705 0.015562
v 0.023534 -0.038708 1.500664
vn 0.976277 -0.216495 0.003652
v 0.040573 0.091680 1.498640
vn 0.996718 -0.080932 0.001548
v 0.049950 0.286519 1.495610
vn 0.999741 -0.022755 0.000644
v 0.050238 0.516146 1.492037
vn 0.999826 0.018635 -0.000000
v -0.422846 0.140618 -1.502620
vn -0.018572 0.996456 -0.082038
v -0.002919 0.148445 -1.502620
vn -0.018572 0.996456 -0.082038
v 0.417008 0.156272 -1.502620
vn -0.018572 0.996456 -0.082038
v -0.503292 0.163789 -1.202967
vn -0.018572 0.996456 -0.082038
v -0.003379 0.173107 -1.202967
vn -0.018572 0.996456 -0.082038
v 0.496535 0.182424 -1.202967
vn -0.018572 0.996456 -0.082038
v -0.563741 0.187333 -0.903315
vn -0.018613 0.998632 -0.048864
v -0.003838 0.197769 -0.903315
vn -0.018613 0.998632 -0.048864
v 0.556065 0.208204 -0.903315
vn -0.018613 0.998632 -0.048864
v -0.603821 0.191255 -0.603351
vn -0.018633 0.999705 -0.015562
v -0.003925 0.202436 -0.603351
vn -0.018633 0.999705 -0.015562
v 0.595971 0.213617 -0.603351
vn -0.018633 0.999705 -0.015562
v -0.603908 0.195923 -0.303387
vn -0.018613 0.998632 -0.048864
v -0.004012 0.207104 -0.303387
vn -0.018613 0.998632 -0.048864
v 0.595884 0.218285 -0.303387
vn -0.018613 0.998632 -0.048864
v -0.584371 0.220958 -0.003735
vn -0.018572 0.996456 -0.082038
v -0.004472 0.231766 -0.003735
vn -0.018572 0.996456 -0.082038
v 0.575427 0.242574 -0.003735
vn -0.018572 0.996456 -0.082038
v -0.544838 0.246365 0.295918
vn -0.018511 0.993196 -0.114976
v -0.004932 0.256428 0.295918
vn -0.018511 0.993196 -0.114976
v 0.534975 0.266491 0.295918
vn -0.018511 0.993196 -0.114976
v -0.485680 0.292139 0.595259
vn -0.018431 0.988879 -0.147573
v -0.005764 0.301084 0.595259
vn -0.018431 0.988879 -0.147573
v 0.474153 0.310029 0.595259
vn -0.018431 0.988879 -0.147573
v -0.406527 0.338286 0.894600
vn -0.018332 0.983545 -0.179729
v -0.006596 0.345740 0.894600
vn -0.018332 0.983545 -0.179729
v 0.393334 0.353194 0.894600
vn -0.018332 0.983545 -0.179729
v -0.307749 0.404799 1.193630
vn -0.017929 0.961941 -0.272668
v -0.007801 0.410390 1.193630
vn -0.017929 0.961941 -0.272668
v 0.292147 0.415981 1.193630
vn -0.017929 0.961941 -0.272668
v -0.069741 0.513910 1.492037
vn -0.017585 0.943483 -0.330953
v -0.009751 0.515028 1.492037
vn -0.017585 0.943483 -0.330953
v 0.050238 0.516146 1.492037
vn -0.017585 0.943483 -0.330953
v 0.212831 0.378509 -0.476012
vn 0.999826 0.018635 0.000000
v 0.209477 0.558456 -0.478813
vn 0.999826 0.018635 0.000000
v 0.209292 0.568414 0.161109
vn 0.999826 0.018635 0.000000
v 0.212646 0.388467 0.163910
vn 0.999826 0.018635 0.000000
v -0.227278 0.380267 0.163910
vn -0.999826 -0.018635 0.000000
v -0.230632 0.560214 0.161109
vn -0.999826 -0.018635 0.000000
v -0.230446 0.550256 -0.478813
vn -0.999826 -0.018635 0.000000
v -0.227092 0.370309 -0.476012
vn -0.999826 -0.018635 0.000000
v -0.230632 0.560214 0.161109
vn -0.018633 0.999705 -0.015562
v 0.209292 0.568414 0.161109
vn -0.018633 0.999705 -0.015562
v 0.209477 0.558456 -0.478813
vn -0.018633 0.999705 -0.015562
v -0.230446 0.550256 -0.478813
vn -0.018633 0.999705 -0.015562
v -0.227092 0.370309 -0.476012
vn 0.018633 -0.999705 0.015562
v 0.212831 0.378509 -0.476012
vn 0.018633 -0.999705 0.015562
v 0.212646 0.388467 0.163910
vn 0.018633 -0.999705 0.015562
v -0.227278 0.380267 0.163910
vn 0.018633 -0.999705 0.015562
v 0.212646 0.388467 0.163910
vn -0.000290 0.015559 0.999879
v 0.209292 0.568414 0.161109
vn -0.000290 0.015559 0.999879
v -0.230632 0.560214 0.161109
vn -0.000290 0.015559 0.999879
v -0.227278 0.380267 0.163910
vn -0.000290 0.015559 0.999879
v -0.227092 0.370309 -0.476012
vn 0.000290 -0.015559 -0.999879
v -0.230446 0.550256 -0.478813
vn 0.000290 -0.015559 -0.999879
v 0.209477 0.558456 -0.478813
vn 0.000290 -0.015559 -0.999879
v 0.212831 0.378509 -0.476012
vn 0.000290 -0.015559 -0.999879
v -0.003851 0.198468 0.426836
vn -0.000290 0.015559 0.999879
v 0.013781 0.198708 0.421107
vn 0.587449 0.023541 0.808919
v 0.024681 0.198677 0.406109
vn 0.950802 0.022531 0.308980
v 0.024687 0.198389 0.387570
vn 0.950981 0.012915 -0.308980
v 0.013795 0.197953 0.372572
vn 0.587918 -0.001634 -0.808919
v -0.003834 0.197535 0.366843
vn 0.000290 -0.015559 -0.999879
v -0.021466 0.197295 0.372572
vn -0.587449 -0.023541 -0.808919
v -0.032367 0.197326 0.387570
vn -0.950802 -0.022531 -0.308979
v -0.032372 0.197614 0.406109
vn -0.950981 -0.012915 0.308980
v -0.021480 0.198051 0.421107
vn -0.587918 0.001634 0.808919
v -0.017267 0.918256 0.415631
vn -0.000290 0.015559 0.999879
v 0.000365 0.918496 0.409902
vn 0.587449 0.023541 0.808919
v 0.011266 0.918465 0.394904
vn 0.950802 0.022531 0.308980
v 0.011271 0.918177 0.376365
vn 0.950981 0.012915 -0.308980
v 0.000379 0.917740 0.361367
vn 0.587918 -0.001634 -0.808919
v -0.017249 0.917323 0.355638
vn 0.000290 -0.015559 -0.999879
v -0.034882 0.917083 0.361367
vn -0.587449 -0.023541 -0.808919
v -0.045782 0.917113 0.376365
vn -0.950802 -0.022531 -0.308979
v -0.045788 0.917402 0.394904
vn -0.950981 -0.012915 0.308980
v -0.034896 0.917838 0.409902
vn -0.587918 0.001634 0.808919
v -0.003843 0.198002 0.396839
vn 0.018633 -0.999705 0.015562
v -0.017258 0.917789 0.385635
vn -0.018633 0.999705 -0.015562
v 0.183180 0.896135 0.361027
vn 0.999826 0.018635 0.000000
v 0.182249 0.946120 0.360249
vn 0.999826 0.018635 0.000000
v 0.182234 0.946898 0.410242
vn 0.999826 0.018635 0.000000
v 0.183166 0.896913 0.411021
vn 0.999826 0.018635 0.000000
v -0.216765 0.889459 0.411021
vn -0.999826 -0.018635 0.000000
v -0.217697 0.939444 0.410242
vn -0.999826 -0.018635 0.000000
v -0.217682 0.938666 0.360249
vn -0.999826 -0.018635 0.000000
v -0.216750 0.888681 0.361027
vn -0.999826 -0.018635 0.000000
v -0.217697 0.939444 0.410242
vn -0.018633 0.999705 -0.015562
v 0.182234 0.946898 0.410242
vn -0.018633 0.999705 -0.015562
v 0.182249 0.946120 0.360249
vn -0.018633 0.999705 -0.015562
v -0.217682 0.938666 0.360249
vn -0.018633 0.999705 -0.015562
v -0.216750 0.888681 0.361027
vn 0.018633 -0.999705 0.015562
v 0.183180 0.896135 0.361027
vn 0.018633 -0.999705 0.015562
v 0.183166 0.896913 0.411021
vn 0.018633 -0.999705 0.015562
v -0.216765 0.889459 0.411021
vn 0.018633 -0.999705 0.015562
v 0.183166 0.896913 0.411021
vn -0.000290 0.015559 0.999879
v 0.182234 0.946898 0.410242
vn -0.000290 0.015559 0.999879
v -0.217697 0.939444 0.410242
vn -0.000290 0.015559 0.999879
v -0.216765 0.889459 0.411021
vn -0.000290 0.015559 0.999879
v -0.216750 0.888681 0.361027
vn 0.000290 -0.015559 -0.999879
v -0.217682 0.938666 0.360249
vn 0.000290 -0.015559 -0.999879
v 0.182249 0.946120 0.360249
vn 0.000290 -0.015559 -0.999879
v 0.183180 0.896135 0.361027
vn 0.000290 -0.015559 -0.999879
v -0.166570 0.879460 0.351183
vn 0.999826 0.018635 0.000000
v -0.167874 0.949439 0.350094
vn 0.999826 0.018635 0.000000
v -0.167894 0.950528 0.420086
vn 0.999826 0.018635 0.000000
v -0.166590 0.880549 0.421175
vn 0.999826 0.018635 0.000000
v -0.266573 0.878685 0.421175
vn -0.999826 -0.018635 0.000000
v -0.267877 0.948665 0.420086
vn -0.999826 -0.018635 0.000000
v -0.267857 0.947576 0.350094
vn -0.999826 -0.018635 0.000000
v -0.266552 0.877596 0.351183
vn -0.999826 -0.018635 0.000000
v -0.267877 0.948665 0.420086
vn -0.018633 0.999705 -0.015562
v -0.167894 0.950528 0.420086
vn -0.018633 0.999705 -0.015562
v -0.167874 0.949439 0.350094
vn -0.018633 0.999705 -0.015562
v -0.267857 0.947576 0.350094
vn -0.018633 0.999705 -0.015562
v -0.266552 0.877596 0.351183
vn 0.018633 -0.999705 0.015562
v -0.166570 0.879460 0.351183
vn 0.018633 -0.999705 0.015562
v -0.166590 0.880549 0.421175
vn 0.018633 -0.999705 0.015562
v -0.266573 0.878685 0.421175
vn 0.018633 -0.999705 0.015562
v -0.166590 0.880549 0.421175
vn -0.000290 0.015559 0.999879
v -0.167894 0.950528 0.420086
vn -0.000290 0.015559 0.999879
v -0.267877 0.948665 0.420086
vn -0.000290 0.015559 0.999879
v -0.266573 0.878685 0.421175
vn -0.000290 0.015559 0.999879
v -0.266552 0.877596 0.351183
vn 0.000290 -0.015559 -0.999879
v -0.267857 0.947576 0.350094
vn 0.000290 -0.015559 -0.999879
v -0.167874 0.949439 0.350094
vn 0.000290 -0.015559 -0.999879
v -0.166570 0.879460 0.351183
vn 0.000290 -0.015559 -0.999879
v 0.233361 0.886914 0.351183
vn 0.999826 0.018635 0.000000
v 0.232056 0.956893 0.350094
vn 0.999826 0.018635 0.000000
v 0.232036 0.957982 0.420086
vn 0.999826 0.018635 0.000000
v 0.233340 0.888003 0.421175
vn 0.999826 0.018635 0.000000
v 0.133358 0.886140 0.421175
vn -0.999826 -0.018635 0.000000
v 0.132053 0.956119 0.420086
vn -0.999826 -0.018635 0.000000
v 0.132074 0.955030 0.350094
vn -0.999826 -0.018635 0.000000
v 0.133378 0.885050 0.351183
vn -0.999826 -0.018635 0.000000
v 0.132053 0.956119 0.420086
vn -0.018633 0.999705 -0.015562
v 0.232036 0.957982 0.420086
vn -0.018633 0.999705 -0.015562
v 0.232056 0.956893 0.350094
vn -0.018633 0.999705 -0.015562
v 0.132074 0.955030 0.350094
vn -0.018633 0.999705 -0.015562
v 0.133378 0.885050 0.351183
vn 0.018633 -0.999705 0.015562
v 0.233361 0.886914 0.351183
vn 0.018633 -0.999705 0.015562
v 0.233340 0.888003 0.421175
vn 0.018633 -0.999705 0.015562
v 0.133358 0.886140 0.421175
vn 0.018633 -0.999705 0.015562
v 0.233340 0.888003 0.421175
vn -0.000290 0.015559 0.999879
v 0.232036 0.957982 0.420086
vn -0.000290 0.015559 0.999879
v 0.132053 0.956119 0.420086
vn -0.000290 0.015559 0.999879
v 0.133358 0.886140 0.421175
vn -0.000290 0.015559 0.999879
v 0.133378 0.885050 0.351183
vn 0.000290 -0.015559 -0.999879
v 0.132074 0.955030 0.350094
vn 0.000290 -0.015559 -0.999879
v 0.232056 0.956893 0.350094
vn 0.000290 -0.015559 -0.999879
v 0.233361 0.886914 0.351183
vn 0.000290 -0.015559 -0.999879
v 0.151305 0.513515 -0.317277
vn 0.999826 0.018635 0.000000
v 0.147578 0.713456 -0.320389
vn 0.999826 0.018635 0.000000
v 0.147485 0.718435 -0.000428
vn 0.999826 0.018635 0.000000
v 0.151212 0.518494 0.002685
vn 0.999826 0.018635 0.000000
v -0.168733 0.512531 0.002685
vn -0.999826 -0.018635 0.000000
v -0.172459 0.712472 -0.000428
vn -0.999826 -0.018635 0.000000
v -0.172366 0.707493 -0.320389
vn -0.999826 -0.018635 0.000000
v -0.168640 0.507552 -0.317277
vn -0.999826 -0.018635 0.000000
v -0.172459 0.712472 -0.000428
vn -0.018633 0.999705 -0.015562
v 0.147485 0.718435 -0.000428
vn -0.018633 0.999705 -0.015562
v 0.147578 0.713456 -0.320389
vn -0.018633 0.999705 -0.015562
v -0.172366 0.707493 -0.320389
vn -0.018633 0.999705 -0.015562
v -0.168640 0.507552 -0.317277
vn 0.018633 -0.999705 0.015562
v 0.151305 0.513515 -0.317277
vn 0.018633 -0.999705 0.015562
v 0.151212 0.518494 0.002685
vn 0.018633 -0.999705 0.015562
v -0.168733 0.512531 0.002685
vn 0.018633 -0.999705 0.015562
v 0.151212 0.518494 0.002685
vn -0.000290 0.015559 0.999879
v 0.147485 0.718435 -0.000428
vn -0.000290 0.015559 0.999879
v -0.172459 0.712472 -0.000428
vn -0.000290 0.015559 0.999879
v -0.168733 0.512531 0.002685
vn -0.000290 0.015559 0.999879
v -0.168640 0.507552 -0.317277
vn 0.000290 -0.015559 -0.999879
v -0.172366 0.707493 -0.320389
vn 0.000290 -0.015559 -0.999879
v 0.147578 0.713456 -0.320389
vn 0.000290 -0.015559 -0.999879
v 0.151305 0.513515 -0.317277
vn 0.000290 -0.015559 -0.999879
v 0.139976 0.584709 -0.228377
vn 0.999826 0.018635 0.000000
v 0.129914 1.124549 -0.236780
vn 0.999826 0.018635 0.000000
v 0.129839 1.128595 0.023188
vn 0.999826 0.018635 0.000000
v 0.139901 0.588754 0.031592
vn 0.999826 0.018635 0.000000
v -0.160047 0.583163 0.031592
vn -0.999826 -0.018635 0.000000
v -0.170109 1.123004 0.023188
vn -0.999826 -0.018635 0.000000
v -0.170034 1.118959 -0.236780
vn -0.999826 -0.018635 0.000000
v -0.159972 0.579118 -0.228377
vn -0.999826 -0.018635 0.000000
v -0.170109 1.123004 0.023188
vn -0.018633 0.999705 -0.015562
v 0.129839 1.128595 0.023188
vn -0.018633 0.999705 -0.015562
v 0.129914 1.124549 -0.236780
vn -0.018633 0.999705 -0.015562
v -0.170034 1.118959 -0.236780
vn -0.018633 0.999705 -0.015562
v -0.159972 0.579118 -0.228377
vn 0.018633 -0.999705 0.015562
v 0.139976 0.584709 -0.228377
vn 0.018633 -0.999705 0.015562
v 0.139901 0.588754 0.031592
vn 0.018633 -0.999705 0.015562
v -0.160047 0.583163 0.031592
vn 0.018633 -0.999705 0.015562
v 0.139901 0.588754 0.031592
vn -0.000290 0.015559 0.999879
v 0.129839 1.128595 0.023188
vn -0.000290 0.015559 0.999879
v -0.170109 1.123004 0.023188
vn -0.000290 0.015559 0.999879
v -0.160047 0.583163 0.031592
vn -0.000290 0.015559 0.999879
v -0.159972 0.579118 -0.228377
vn 0.000290 -0.015559 -0.999879
v -0.170034 1.118959 -0.236780
vn 0.000290 -0.015559 -0.999879
v 0.129914 1.124549 -0.236780
vn 0.000290 -0.015559 -0.999879
v 0.139976 0.584709 -0.228377
vn 0.000290 -0.015559 -0.999879
v 0.079647 1.146105 -0.106992
vn 0.999468 0.032606 -0.000218
v 0.072475 1.365906 -0.112982
vn 0.999468 0.032606 -0.000218
v 0.072328 1.371895 0.106936
vn 0.999468 0.032606 -0.000218
v 0.079499 1.152093 0.112926
vn 0.999468 0.032606 -0.000218
v -0.120394 1.145572 0.112970
vn -0.999468 -0.032606 0.000218
v -0.127566 1.365373 0.106979
vn -0.999468 -0.032606 0.000218
v -0.127419 1.359385 -0.112939
vn -0.999468 -0.032606 0.000218
v -0.120247 1.139584 -0.106949
vn -0.999468 -0.032606 0.000218
v -0.127566 1.365373 0.106979
vn -0.032600 0.999098 -0.027228
v 0.072328 1.371895 0.106936
vn -0.032600 0.999098 -0.027228
v 0.072475 1.365906 -0.112982
vn -0.032600 0.999098 -0.027228
v -0.127419 1.359385 -0.112939
vn -0.032600 0.999098 -0.027228
v -0.120247 1.139584 -0.106949
vn 0.032600 -0.999098 0.027228
v 0.079647 1.146105 -0.106992
vn 0.032600 -0.999098 0.027228
v 0.079499 1.152093 0.112926
vn 0.032600 -0.999098 0.027228
v -0.120394 1.145572 0.112970
vn 0.032600 -0.999098 0.027228
v 0.079499 1.152093 0.112926
vn -0.000670 0.027220 0.999629
v 0.072328 1.371895 0.106936
vn -0.000670 0.027220 0.999629
v -0.127566 1.365373 0.106979
vn -0.000670 0.027220 0.999629
v -0.120394 1.145572 0.112970
vn -0.000670 0.027220 0.999629
v -0.120247 1.139584 -0.106949
vn 0.000670 -0.027220 -0.999629
v -0.127419 1.359385 -0.112939
vn 0.000670 -0.027220 -0.999629
v 0.072475 1.365906 -0.112982
vn 0.000670 -0.027220 -0.999629
v 0.079647 1.146105 -0.106992
vn 0.000670 -0.027220 -0.999629
v 0.077238 1.221213 0.081031
vn 0.999468 0.032606 -0.000218
v 0.073978 1.321123 0.078308
vn 0.999468 0.032606 -0.000218
v 0.073951 1.322212 0.118294
vn 0.999468 0.032606 -0.000218
v 0.077211 1.222302 0.121016
vn 0.999468 0.032606 -0.000218
v -0.122683 1.215781 0.121060
vn -0.999468 -0.032606 0.000218
v -0.125943 1.315691 0.118337
vn -0.999468 -0.032606 0.000218
v -0.125916 1.314602 0.078352
vn -0.999468 -0.032606 0.000218
v -0.122656 1.214692 0.081075
vn -0.999468 -0.032606 0.000218
v -0.125943 1.315691 0.118337
vn -0.032600 0.999098 -0.027228
v 0.073951 1.322212 0.118294
vn -0.032600 0.999098 -0.027228
v 0.073978 1.321123 0.078308
vn -0.032600 0.999098 -0.027228
v -0.125916 1.314602 0.078352
vn -0.032600 0.999098 -0.027228
v -0.122656 1.214692 0.081075
vn 0.032600 -0.999098 0.027228
v 0.077238 1.221213 0.081031
vn 0.032600 -0.999098 0.027228
v 0.077211 1.222302 0.121016
vn 0.032600 -0.999098 0.027228
v -0.122683 1.215781 0.121060
vn 0.032600 -0.999098 0.027228
v 0.077211 1.222302 0.121016
vn -0.000670 0.027220 0.999629
v 0.073951 1.322212 0.118294
vn -0.000670 0.027220 0.999629
v -0.125943 1.315691 0.118337
vn -0.000670 0.027220 0.999629
v -0.122683 1.215781 0.121060
vn -0.000670 0.027220 0.999629
v -0.122656 1.214692 0.081075
vn 0.000670 -0.027220 -0.999629
v -0.125916 1.314602 0.078352
vn 0.000670 -0.027220 -0.999629
v 0.073978 1.321123 0.078308
vn 0.000670 -0.027220 -0.999629
v 0.077238 1.221213 0.081031
vn 0.000670 -0.027220 -0.999629
v -0.129717 1.091738 -0.041990
vn 0.996214 0.000000 0.086934
v -0.147192 1.103920 -0.010198
vn 0.646723 0.243640 0.722765
v -0.183609 1.108966 0.000424
vn -0.081610 0.344559 0.935211
v -0.217635 1.103920 -0.016345
vn -0.762137 0.243640 0.599822
v -0.229339 1.091738 -0.050683
vn -0.996214 -0.000000 -0.086934
v -0.211864 1.079556 -0.082475
vn -0.646722 -0.243640 -0.722765
v -0.175447 1.074510 -0.093097
vn 0.081610 -0.344559 -0.935211
v -0.141421 1.079556 -0.076328
vn 0.762137 -0.243640 -0.599822
v -0.140800 0.744395 0.085015
vn 0.996214 0.000000 0.086934
v -0.158275 0.756577 0.116806
vn 0.646723 0.243640 0.722765
v -0.194691 0.761623 0.127428
vn -0.081610 0.344559 0.935211
v -0.228718 0.756577 0.110659
vn -0.762137 0.243640 0.599822
v -0.240422 0.744395 0.076321
vn -0.996214 -0.000000 -0.086934
v -0.222947 0.732213 0.044530
vn -0.646722 -0.243640 -0.722765
v -0.186530 0.727167 0.033907
vn 0.081610 -0.344559 -0.935211
v -0.152504 0.732213 0.050677
vn 0.762137 -0.243640 -0.599822
v -0.179528 1.091738 -0.046336
vn 0.029954 0.938765 -0.343255
v -0.190611 0.744395 0.080668
vn -0.029954 -0.938765 0.343255
v 0.190179 1.097701 -0.051208
vn 0.995242 0.000000 -0.097436
v 0.178834 1.109982 -0.016785
vn 0.768349 0.245628 0.591022
v 0.144985 1.115069 0.000327
vn 0.091368 0.347370 0.933266
v 0.108460 1.109982 -0.009896
vn -0.639135 0.245628 0.728816
v 0.090654 1.097701 -0.041465
vn -0.995242 -0.000000 0.097436
v 0.101999 1.085419 -0.075888
vn -0.768349 -0.245628 -0.591022
v 0.135848 1.080332 -0.093000
vn -0.091368 -0.347370 -0.933266
v 0.172373 1.085419 -0.082777
vn 0.639135 -0.245628 -0.728816
v 0.202702 0.750741 0.076707
vn 0.995242 0.000000 -0.097436
v 0.191357 0.763023 0.111130
vn 0.768349 0.245628 0.591022
v 0.157508 0.768110 0.128242
vn 0.091368 0.347370 0.933266
v 0.120983 0.763023 0.118020
vn -0.639135 0.245628 0.728816
v 0.103177 0.750741 0.086451
vn -0.995242 -0.000000 0.097436
v 0.114522 0.738460 0.052028
vn -0.768349 -0.245628 -0.591022
v 0.148371 0.733373 0.034916
vn -0.091368 -0.347370 -0.933266
v 0.184896 0.738460 0.045138
vn 0.639135 -0.245628 -0.728816
v 0.140416 1.097701 -0.046336
vn -0.033846 0.937728 -0.345717
v 0.152940 0.750741 0.081579
vn 0.033846 -0.937728 0.345717
v -0.145781 0.744395 0.084580
vn 0.996214 0.000000 0.086934
v -0.157571 0.772226 0.068067
vn 0.734229 0.618467 -0.280011
v -0.188714 0.783754 0.058936
vn 0.042142 0.874645 -0.482929
v -0.220969 0.772226 0.062535
vn -0.674631 0.618467 -0.402954
v -0.235441 0.744395 0.076756
vn -0.996214 -0.000000 -0.086934
v -0.223651 0.716564 0.093268
vn -0.734229 -0.618467 0.280011
v -0.192507 0.705036 0.102400
vn -0.042142 -0.874645 0.482929
v -0.160252 0.716564 0.098801
vn 0.674631 -0.618467 0.402954
v -0.172394 0.914062 0.389547
vn 0.996214 0.000000 0.086934
v -0.184183 0.941893 0.373034
vn 0.734229 0.618467 -0.280011
v -0.215327 0.953421 0.363903
vn 0.042142 0.874645 -0.482929
v -0.247582 0.941893 0.367502
vn -0.674631 0.618467 -0.402954
v -0.262053 0.914062 0.381723
vn -0.996214 -0.000000 -0.086934
v -0.250264 0.886231 0.398235
vn -0.734229 -0.618467 0.280011
v -0.219120 0.874703 0.407366
vn -0.042142 -0.874645 0.482929
v -0.186865 0.886231 0.403767
vn 0.674631 -0.618467 0.402954
v -0.190611 0.744395 0.080668
vn 0.076036 -0.484765 -0.871333
v -0.217223 0.914062 0.385635
vn -0.076036 0.484765 0.871333
v 0.197725 0.750741 0.077194
vn 0.995242 0.000000 -0.097436
v 0.183095 0.778516 0.063027
vn 0.670125 0.617222 -0.412273
v 0.150800 0.790021 0.059727
vn -0.047542 0.872884 -0.485607
v 0.119758 0.778516 0.069227
vn -0.737359 0.617222 -0.274478
v 0.108154 0.750741 0.085964
vn -0.995242 -0.000000 0.097436
v 0.122784 0.722966 0.100131
vn -0.670125 -0.617222 0.412273
v 0.155079 0.711462 0.103431
vn 0.047542 -0.872884 0.485607
v 0.186121 0.722966 0.093930
vn 0.737360 -0.617222 0.274478
v 0.227493 0.921516 0.381250
vn 0.995242 0.000000 -0.097436
v 0.212863 0.949291 0.367082
vn 0.670125 0.617222 -0.412273
v 0.180568 0.960796 0.363782
vn -0.047542 0.872884 -0.485607
v 0.149526 0.949291 0.373283
vn -0.737359 0.617222 -0.274478
v 0.137921 0.921516 0.390019
vn -0.995242 -0.000000 0.097436
v 0.152551 0.893741 0.404187
vn -0.670125 -0.617222 0.412273
v 0.184846 0.882237 0.407487
vn 0.047542 -0.872884 0.485607
v 0.215888 0.893741 0.397986
vn 0.737360 -0.617222 0.274478
v 0.152940 0.750741 0.081579
vn -0.085050 -0.487928 -0.868730
v 0.182707 0.921516 0.385634
vn 0.085050 0.487928 0.868730
v -0.176567 0.879196 0.346184
vn 0.999826 0.018635 0.000000
v -0.177871 0.949175 0.345095
vn 0.999826 0.018635 0.000000
v -0.177906 0.951042 0.465080
vn 0.999826 0.018635 0.000000
v -0.176601 0.881063 0.466170
vn 0.999826 0.018635 0.000000
v -0.256588 0.879572 0.466170
vn -0.999826 -0.018635 0.000000
v -0.257892 0.949551 0.465080
vn -0.999826 -0.018635 0.000000
v -0.257857 0.947684 0.345095
vn -0.999826 -0.018635 0.000000
v -0.256553 0.877705 0.346184
vn -0.999826 -0.018635 0.000000
v -0.257892 0.949551 0.465080
vn -0.018633 0.999705 -0.015562
v -0.177906 0.951042 0.465080
vn -0.018633 0.999705 -0.015562
v -0.177871 0.949175 0.345095
vn -0.018633 0.999705 -0.015562
v -0.257857 0.947684 0.345095
vn -0.018633 0.999705 -0.015562
v -0.256553 0.877705 0.346184
vn 0.018633 -0.999705 0.015562
v -0.176567 0.879196 0.346184
vn 0.018633 -0.999705 0.015562
v -0.176601 0.881063 0.466170
vn 0.018633 -0.999705 0.015562
v -0.256588 0.879572 0.466170
vn 0.018633 -0.999705 0.015562
v -0.176601 0.881063 0.466170
vn -0.000290 0.015559 0.999879
v -0.177906 0.951042 0.465080
vn -0.000290 0.015559 0.999879
v -0.257892 0.949551 0.465080
vn -0.000290 0.015559 0.999879
v -0.256588 0.879572 0.466170
vn -0.000290 0.015559 0.999879
v -0.256553 0.877705 0.346184
vn 0.000290 -0.015559 -0.999879
v -0.257857 0.947684 0.345095
vn 0.000290 -0.015559 -0.999879
v -0.177871 0.949175 0.345095
vn 0.000290 -0.015559 -0.999879
v -0.176567 0.879196 0.346184
vn 0.000290 -0.015559 -0.999879
v 0.223364 0.886650 0.346184
vn 0.999826 0.018635 0.000000
v 0.222060 0.956629 0.345095
vn 0.999826 0.018635 0.000000
v 0.222025 0.958496 0.465080
vn 0.999826 0.018635 0.000000
v 0.223329 0.888517 0.466170
vn 0.999826 0.018635 0.000000
v 0.143343 0.887026 0.466170
vn -0.999826 -0.018635 0.000000
v 0.142039 0.957005 0.465080
vn -0.999826 -0.018635 0.000000
v 0.142073 0.955138 0.345095
vn -0.999826 -0.018635 0.000000
v 0.143378 0.885159 0.346184
vn -0.999826 -0.018635 0.000000
v 0.142039 0.957005 0.465080
vn -0.018633 0.999705 -0.015562
v 0.222025 0.958496 0.465080
vn -0.018633 0.999705 -0.015562
v 0.222060 0.956629 0.345095
vn -0.018633 0.999705 -0.015562
v 0.142073 0.955138 0.345095
vn -0.018633 0.999705 -0.015562
v 0.143378 0.885159 0.346184
vn 0.018633 -0.999705 0.015562
v 0.223364 0.886650 0.346184
vn 0.018633 -0.999705 0.015562
v 0.223329 0.888517 0.466170
vn 0.018633 -0.999705 0.015562
v 0.143343 0.887026 0.466170
vn 0.018633 -0.999705 0.015562
v 0.223329 0.888517 0.466170
vn -0.000290 0.015559 0.999879
v 0.222025 0.958496 0.465080
vn -0.000290 0.015559 0.999879
v 0.142039 0.957005 0.465080
vn -0.000290 0.015559 0.999879
v 0.143343 0.887026 0.466170
vn -0.000290 0.015559 0.999879
v 0.143378 0.885159 0.346184
vn 0.000290 -0.015559 -0.999879
v 0.142073 0.955138 0.345095
vn 0.000290 -0.015559 -0.999879
v 0.222060 0.956629 0.345095
vn 0.000290 -0.015559 -0.999879
v 0.223364 0.886650 0.346184
vn 0.000290 -0.015559 -0.999879
v -0.042000 0.591447 -0.122740
vn 0.974183 0.000000 0.225759
v -0.062934 0.640761 -0.123222
vn 0.675124 0.704488 0.218871
v -0.111552 0.661188 -0.132679
vn -0.019413 0.996296 0.083771
v -0.159373 0.640761 -0.145571
vn -0.702579 0.704488 -0.100401
v -0.178386 0.591447 -0.154346
vn -0.974183 -0.000000 -0.225759
v -0.157452 0.542133 -0.153864
vn -0.675124 -0.704488 -0.218871
v -0.108834 0.521706 -0.144407
vn 0.019413 -0.996296 -0.083771
v -0.061012 0.542133 -0.131515
vn 0.702579 -0.704487 0.100401
v -0.136468 0.555331 0.284901
vn 0.974183 0.000000 0.225759
v -0.157402 0.604645 0.284419
vn 0.675124 0.704488 0.218871
v -0.206020 0.625072 0.274962
vn -0.019413 0.996296 0.083771
v -0.253841 0.604645 0.262070
vn -0.702579 0.704488 -0.100401
v -0.272853 0.555331 0.253295
vn -0.974183 -0.000000 -0.225759
v -0.251919 0.506017 0.253777
vn -0.675124 -0.704488 -0.218871
v -0.203302 0.485590 0.263234
vn 0.019413 -0.996296 -0.083771
v -0.155480 0.506017 0.276126
vn 0.702579 -0.704487 0.100401
v -0.110193 0.591447 -0.138543
vn 0.224923 0.085991 -0.970575
v -0.204661 0.555331 0.269098
vn -0.224923 -0.085991 0.970575
v 0.157490 0.595174 -0.156274
vn 0.967390 0.000000 -0.253292
v 0.138619 0.644525 -0.147400
vn 0.697814 0.705015 -0.126530
v 0.091135 0.664967 -0.133339
vn 0.019468 0.997042 0.074352
v 0.042853 0.644525 -0.122326
vn -0.670282 0.705015 0.231679
v 0.022055 0.595174 -0.120813
vn -0.967390 -0.000000 0.253292
v 0.040925 0.545823 -0.129686
vn -0.697814 -0.705015 0.126530
v 0.088410 0.525381 -0.143748
vn -0.019468 -0.997042 -0.074352
v 0.136692 0.545823 -0.154761
vn 0.670283 -0.705015 -0.231679
v 0.263557 0.562894 0.248828
vn 0.967390 0.000000 -0.253292
v 0.244687 0.612245 0.257701
vn 0.697814 0.705015 -0.126530
v 0.197203 0.632687 0.271763
vn 0.019468 0.997042 0.074352
v 0.148920 0.612245 0.282776
vn -0.670282 0.705015 0.231679
v 0.128123 0.562894 0.284289
vn -0.967390 -0.000000 0.253292
v 0.146993 0.513543 0.275416
vn -0.697814 -0.705015 0.126530
v 0.194477 0.493101 0.261354
vn -0.019468 -0.997042 -0.074352
v 0.242760 0.513543 0.250341
vn 0.670283 -0.705015 -0.231679
v 0.089772 0.595174 -0.138543
vn -0.252543 0.076858 -0.964528
v 0.195840 0.562894 0.266559
vn 0.252543 -0.076858 0.964528
v -0.146210 0.555331 0.282644
vn 0.974183 0.000000 0.225759
v -0.172730 0.563474 0.319239
vn 0.532183 0.135708 0.835682
v -0.217954 0.566846 0.326462
vn -0.221563 0.191920 0.956074
v -0.255392 0.563474 0.300083
vn -0.845520 0.135708 0.516410
v -0.263112 0.555331 0.255552
vn -0.974183 -0.000000 -0.225759
v -0.236592 0.547189 0.218957
vn -0.532183 -0.135708 -0.835682
v -0.191367 0.543816 0.211734
vn 0.221563 -0.191920 -0.956074
v -0.153929 0.547189 0.238113
vn 0.845520 -0.135708 -0.516410
v -0.164407 0.143139 0.361169
vn 0.974183 0.000000 0.225759
v -0.190927 0.151281 0.397764
vn 0.532183 0.135708 0.835682
v -0.236152 0.154654 0.404988
vn -0.221563 0.191920 0.956074
v -0.273589 0.151281 0.378608
vn -0.845520 0.135708 0.516410
v -0.281309 0.143139 0.334078
vn -0.974183 -0.000000 -0.225759
v -0.254789 0.134996 0.297482
vn -0.532183 -0.135708 -0.835682
v -0.209564 0.131623 0.290259
vn 0.221563 -0.191920 -0.956074
v -0.172127 0.134996 0.316639
vn 0.845520 -0.135708 -0.516410
v -0.204661 0.555331 0.269098
vn 0.043328 0.981411 -0.186965
v -0.222858 0.143139 0.347623
vn -0.043328 -0.981411 0.186965
v 0.253884 0.562894 0.251361
vn 0.967390 0.000000 -0.253292
v 0.247413 0.571359 0.296030
vn 0.859551 0.141080 0.491190
v 0.210732 0.574865 0.323435
vn 0.248199 0.199518 0.947940
v 0.165328 0.571359 0.317523
vn -0.508545 0.141080 0.849399
v 0.137797 0.562894 0.281756
vn -0.967390 -0.000000 0.253292
v 0.144267 0.554429 0.237087
vn -0.859551 -0.141080 -0.491191
v 0.180948 0.550923 0.209682
vn -0.248199 -0.199518 -0.947940
v 0.226353 0.554429 0.215595
vn 0.508545 -0.141080 -0.849399
v 0.275109 0.151338 0.332426
vn 0.967390 0.000000 -0.253292
v 0.268638 0.159803 0.377095
vn 0.859551 0.141080 0.491190
v 0.231957 0.163309 0.404500
vn 0.248199 0.199518 0.947940
v 0.186553 0.159803 0.398587
vn -0.508545 0.141080 0.849399
v 0.159022 0.151338 0.362821
vn -0.967390 -0.000000 0.253292
v 0.165492 0.142873 0.318152
vn -0.859551 -0.141080 -0.491191
v 0.202173 0.139367 0.290747
vn -0.248199 -0.199518 -0.947940
v 0.247578 0.142873 0.296659
vn 0.508545 -0.141080 -0.849399
v 0.195840 0.562894 0.266559
vn -0.050536 0.979894 -0.193011
v 0.217065 0.151338 0.347623
vn 0.050536 -0.979894 0.193011
v -0.171542 0.073002 0.278721
vn 0.999826 0.018635 0.000000
v -0.173033 0.152978 0.277476
vn 0.999826 0.018635 0.000000
v -0.173108 0.157024 0.537445
vn 0.999826 0.018635 0.000000
v -0.171618 0.077047 0.538690
vn 0.999826 0.018635 0.000000
v -0.271600 0.075184 0.538690
vn -0.999826 -0.018635 0.000000
v -0.273091 0.155160 0.537445
vn -0.999826 -0.018635 0.000000
v -0.273016 0.151115 0.277476
vn -0.999826 -0.018635 0.000000
v -0.271525 0.071138 0.278721
vn -0.999826 -0.018635 0.000000
v -0.273091 0.155160 0.537445
vn -0.018633 0.999705 -0.015562
v -0.173108 0.157024 0.537445
vn -0.018633 0.999705 -0.015562
v -0.173033 0.152978 0.277476
vn -0.018633 0.999705 -0.015562
v -0.273016 0.151115 0.277476
vn -0.018633 0.999705 -0.015562
v -0.271525 0.071138 0.278721
vn 0.018633 -0.999705 0.015562
v -0.171542 0.073002 0.278721
vn 0.018633 -0.999705 0.015562
v -0.171618 0.077047 0.538690
vn 0.018633 -0.999705 0.015562
v -0.271600 0.075184 0.538690
vn 0.018633 -0.999705 0.015562
v -0.171618 0.077047 0.538690
vn -0.000290 0.015559 0.999879
v -0.173108 0.157024 0.537445
vn -0.000290 0.015559 0.999879
v -0.273091 0.155160 0.537445
vn -0.000290 0.015559 0.999879
v -0.271600 0.075184 0.538690
vn -0.000290 0.015559 0.999879
v -0.271525 0.071138 0.278721
vn 0.000290 -0.015559 -0.999879
v -0.273016 0.151115 0.277476
vn 0.000290 -0.015559 -0.999879
v -0.173033 0.152978 0.277476
vn 0.000290 -0.015559 -0.999879
v -0.171542 0.073002 0.278721
vn 0.000290 -0.015559 -0.999879
v 0.268381 0.081201 0.278721
vn 0.999826 0.018635 0.000000
v 0.266891 0.161178 0.277476
vn 0.999826 0.018635 0.000000
v 0.266815 0.165223 0.537445
vn 0.999826 0.018635 0.000000
v 0.268306 0.085247 0.538690
vn 0.999826 0.018635 0.000000
v 0.168323 0.083383 0.538690
vn -0.999826 -0.018635 0.000000
v 0.166833 0.163360 0.537445
vn -0.999826 -0.018635 0.000000
v 0.166908 0.159314 0.277476
vn -0.999826 -0.018635 0.000000
v 0.168399 0.079338 0.278721
vn -0.999826 -0.018635 0.000000
v 0.166833 0.163360 0.537445
vn -0.018633 0.999705 -0.015562
v 0.266815 0.165223 0.537445
vn -0.018633 0.999705 -0.015562
v 0.266891 0.161178 0.277476
vn -0.018633 0.999705 -0.015562
v 0.166908 0.159314 0.277476
vn -0.018633 0.999705 -0.015562
v 0.168399 0.079338 0.278721
vn 0.018633 -0.999705 0.015562
v 0.268381 0.081201 0.278721
vn 0.018633 -0.999705 0.015562
v 0.268306 0.085247 0.538690
vn 0.018633 -0.999705 0.015562
v 0.168323 0.083383 0.538690
vn 0.018633 -0.999705 0.015562
v 0.268306 0.085247 0.538690
vn -0.000290 0.015559 0.999879
v 0.266815 0.165223 0.537445
vn -0.000290 0.015559 0.999879
v 0.166833 0.163360 0.537445
vn -0.000290 0.015559 0.999879
v 0.168323 0.083383 0.538690
vn -0.000290 0.015559 0.999879
v 0.168399 0.079338 0.278721
vn 0.000290 -0.015559 -0.999879
v 0.166908 0.159314 0.277476
vn 0.000290 -0.015559 -0.999879
v 0.266891 0.161178 0.277476
vn 0.000290 -0.015559 -0.999879
v 0.268381 0.081201 0.278721
vn 0.000290 -0.015559 -0.999879
f 1/1 10/10 2/2
f 2/2 10/10 11/11
f 2/2 11/11 3/3
f 3/3 11/11 12/12
f 3/3 12/12 4/4
f 4/4 12/12 13/13
f 4/4 13/13 5/5
f 5/5 13/13 14/14
f 5/5 14/14 6/6
f 6/6 14/14 15/15
f 6/6 15/15 7/7
f 7/7 15/15 16/16
f 7/7 16/16 8/8
f 8/8 16/16 17/17
f 8/8 17/17 9/9
f 9/9 17/17 18/18
f 10/10 19/19 11/11
f 11/11 19/19 20/20
f 11/11 20/20 12/12
f 12/12 20/20 21/21
f 12/12 21/21 13/13
f 13/13 21/21 22/22
f 13/13 22/22 14/14
f 14/14 22/22 23/23
f 14/14 23/23 15/15
f 15/15 23/23 24/24
f 15/15 24/24 16/16
f 16/16 24/24 25/25
f 16/16 25/25 17/17
f 17/17 25/25 26/26
f 17/17 26/26 18/18
f 18/18 26/26 27/27
f 19/19 28/28 20/20
f 20/20 28/28 29/29
f 20/20 29/29 21/21
f 21/21 29/29 30/30
f 21/21 30/30 22/22
f 22/22 30/30 31/31
f 22/22 31/31 23/23
f 23/23 31/31 32/32
f 23/23 32/32 24/24
f 24/24 32/32 33/33
f 24/24 33/33 25/25
f 25/25 33/33 34/34
f 25/25 34/34 26/26
f 26/26 34/34 35/35
f 26/26 35/35 27/27
f 27/27 35/35 36/36
f 28/28 37/37 29/29
f 29/29 37/37 38/38
f 29/29 38/38 30/30
f 30/30 38/38 39/39
f 30/30 39/39 31/31
f 31/31 39/39 40/40
f 31/31 40/40 32/32
f 32/32 40/40 41/41
f 32/32 41/41 33/33
f 33/33 41/41 42/42
f 33/33 42/42 34/34
f 34/34 42/42 43/43
f 34/34 43/43 35/35
f 35/35 43/43 44/44
f 35/35 44/44 36/36
f 36/36 44/44 45/45
f 37/37 46/46 38/38
f 38/38 46/46 47/47
f 38/38 47/47 39/39
f 39/39 47/47 48/48
f 39/39 48/48 40/40
f 40/40 48/48 49/49
f 40/40 49/49 41/41
f 41/41 49/49 50/50
f 41/41 50/50 42/42
f 42/42 50/50 51/51
f 42/42 51/51 43/43
f 43/43 51/51 52/52
f 43/43 52/52 44/44
f 44/44 52/52 53/53
f 44/44 53/53 45/45
f 45/45 53/53 54/54
f 46/46 55/55 47/47
f 47/47 55/55 56/56
f 47/47 56/56 48/48
f 48/48 56/56 57/57
f 48/48 57/57 49/49
f 49/49 57/57 58/58
f 49/49 58/58 50/50
f 50/50 58/58 59/59
f 50/50 59/59 51/51
f 51/51 59/59 60/60
f 51/51 60/60 52/52
f 52/52 60/60 61/61
f 52/52 61/61 53/53
f 53/53 61/61 62/62
f 53/53 62/62 54/54
f 54/54 62/62 63/63
f 55/55 64/64 56/56
f 56/56 64/64 65/65
f 56/56 65/65 57/57
f 57/57 65/65 66/66
f 57/57 66/66 58/58
f 58/58 66/66 67/67
f 58/58 67/67 59/59
f 59/59 67/67 68/68
f 59/59 68/68 60/60
f 60/60 68/68 69/69
f 60/60 69/69 61/61
f 61/61 69/69 70/70
f 61/61 70/70 62/62
f 62/62 70/70 71/71
f 62/62 71/71 63/63
f 63/63 71/71 72/72
f 64/64 73/73 65/65
f 65/65 73/73 74/74
f 65/65 74/74 66/66
f 66/66 74/74 75/75
f 66/66 75/75 67/67
f 67/67 75/75 76/76
f 67/67 76/76 68/68
f 68/68 76/76 77/77
f 68/68 77/77 69/69
f 69/69 77/77 78/78
f 69/69 78/78 70/70
f 70/70 78/78 79/79
f 70/70 79/79 71/71
f 71/71 79/79 80/80
f 71/71 80/80 72/72
f 72/72 80/80 81/81
f 73/73 82/82 74/74
f 74/74 82/82 83/83
f 74/74 83/83 75/75
f 75/75 83/83 84/84
f 75/75 84/84 76/76
f 76/76 84/84 85/85
f 76/76 85/85 77/77
f 77/77 85/85 86/86
f 77/77 86/86 78/78
f 78/78 86/86 87/87
f 78/78 87/87 79/79
f 79/79 87/87 88/88
f 79/79 88/88 80/80
f 80/80 88/88 89/89
f 80/80 89/89 81/81
f 81/81 89/89 90/90
f 82/82 91/91 83/83
f 83/83 91/91 92/92
f 83/83 92/92 84/84
f 84/84 92/92 93/93
f 84/84 93/93 85/85
f 85/85 93/93 94/94
f 85/85 94/94 86/86
f 86/86 94/94 95/95
f 86/86 95/95 87/87
f 87/87 95/95 96/96
f 87/87 96/96 88/88
f 88/88 96/96 97/97
f 88/88 97/97 89/89
f 89/89 97/97 98/98
f 89/89 98/98 90/90
f 90/90 98/98 99/99
f 100/100 103/103 101/101
f 101/101 103/103 104/104
f 101/101 104/104 102/102
f 102/102 104/104 105/105
f 103/103 106/106 104/104
f 104/104 106/106 107/107
f 104/104 107/107 105/105
f 105/105 107/107 108/108
f 106/106 109/109 107/107
f 107/107 109/109 110/110
f 107/107 110/110 108/108
f 108/108 110/110 111/111
f 109/109 112/112 110/110
f 110/110 112/112 113/113
f 110/110 113/113 111/111
f 111/111 113/113 114/114
f 112/112 115/115 113/113
f 113/113 115/115 116/116
f 113/113 116/116 114/114
f 114/114 116/116 117/117
f 115/115 118/118 116/116
f 116/116 118/118 119/119
f 116/116 119/119 117/117
f 117/117 119/119 120/120
f 118/118 121/121 119/119
f 119/119 121/121 122/122
f 119/119 122/122 120/120
f 120/120 122/122 123/123
f 121/121 124/124 122/122
f 122/122 124/124 125/125
f 122/122 125/125 123/123
f 123/123 125/125 126/126
f 124/124 127/127 125/125
f 125/125 127/127 128/128
f 125/125 128/128 126/126
f 126/126 128/128 129/129
f 127/127 130/130 128/128
f 128/128 130/130 131/131
f 128/128 131/131 129/129
f 129/129 131/131 132/132
f 133/133 134/134 135/135
f 133/133 135/135 136/136
f 137/137 138/138 139/139
f 137/137 139/139 140/140
f 141/141 142/142 143/143
f 141/141 143/143 144/144
f 145/145 146/146 147/147
f 145/145 147/147 148/148
f 149/149 150/150 151/151
f 149/149 151/151 152/152
f 153/153 154/154 155/155
f 153/153 155/155 156/156
f 157/157 168/168 158/158
f 157/157 167/167 168/168
f 158/158 169/169 159/159
f 158/158 168/168 169/169
f 159/159 170/170 160/160
f 159/159 169/169 170/170
f 160/160 171/171 161/161
f 160/160 170/170 171/171
f 161/161 172/172 162/162
f 161/161 171/171 172/172
f 162/162 173/173 163/163
f 162/162 172/172 173/173
f 163/163 174/174 164/164
f 163/163 173/173 174/174
f 164/164 175/175 165/165
f 164/164 174/174 175/175
f 165/165 176/176 166/166
f 165/165 175/175 176/176
f 166/166 167/167 157/157
f 166/166 176/176 167/167
f 177/177 158/158 157/157
f 177/177 159/159 158/158
f 177/177 160/160 159/159
f 177/177 161/161 160/160
f 177/177 162/162 161/161
f 177/177 163/163 162/162
f 177/177 164/164 163/163
f 177/177 165/165 164/164
f 177/177 166/166 165/165
f 177/177 157/157 166/166
f 178/178 167/167 168/168
f 178/178 168/168 169/169
f 178/178 169/169 170/170
f 178/178 170/170 171/171
f 178/178 171/171 172/172
f 178/178 172/172 173/173
f 178/178 173/173 174/174
f 178/178 174/174 175/175
f 178/178 175/175 176/176
f 178/178 176/176 167/167
f 179/179 180/180 181/181
f 179/179 181/181 182/182
f 183/183 184/184 185/185
f 183/183 185/185 186/186
f 187/187 188/188 189/189
f 187/187 189/189 190/190
f 191/191 192/192 193/193
f 191/191 193/193 194/194
f 195/195 196/196 197/197
f 195/195 197/197 198/198
f 199/199 200/200 201/201
f 199/199 201/201 202/202
f 203/203 204/204 205/205
f 203/203 205/205 206/206
f 207/207 208/208 209/209
f 207/207 209/209 210/210
f 211/211 212/212 213/213
f 211/211 213/213 214/214
f 215/215 216/216 217/217
f 215/215 217/217 218/218
f 219/219 220/220 221/221
f 219/219 221/221 222/222
f 223/223 224/224 225/225
f 223/223 225/225 226/226
f 227/227 228/228 229/229
f 227/227 229/229 230/230
f 231/231 232/232 233/233
f 231/231 233/233 234/234
f 235/235 236/236 237/237
f 235/235 237/237 238/238
f 239/239 240/240 241/241
f 239/239 241/241 242/242
f 243/243 244/244 245/245
f 243/243 245/245 246/246
f 247/247 248/248 249/249
f 247/247 249/249 250/250
f 251/251 252/252 253/253
f 251/251 253/253 254/254
f 255/255 256/256 257/257
f 255/255 257/257 258/258
f 259/259 260/260 261/261
f 259/259 261/261 262/262
f 263/263 264/264 265/265
f 263/263 265/265 266/266
f 267/267 268/268 269/269
f 267/267 269/269 270/270
f 271/271 272/272 273/273
f 271/271 273/273 274/274
f 275/275 276/276 277/277
f 275/275 277/277 278/278
f 279/279 280/280 281/281
f 279/279 281/281 282/282
f 283/283 284/284 285/285
f 283/283 285/285 286/286
f 287/287 288/288 289/289
f 287/287 289/289 290/290
f 291/291 292/292 293/293
f 291/291 293/293 294/294
f 295/295 296/296 297/297
f 295/295 297/297 298/298
f 299/299 300/300 301/301
f 299/299 301/301 302/302
f 303/303 304/304 305/305
f 303/303 305/305 306/306
f 307/307 308/308 309/309
f 307/307 309/309 310/310
f 311/311 312/312 313/313
f 311/311 313/313 314/314
f 315/315 316/316 317/317
f 315/315 317/317 318/318
f 319/319 320/320 321/321
f 319/319 321/321 322/322
f 323/323 324/324 325/325
f 323/323 325/325 326/326
f 327/327 328/328 329/329
f 327/327 329/329 330/330
f 331/331 332/332 333/333
f 331/331 333/333 334/334
f 335/335 336/336 337/337
f 335/335 337/337 338/338
f 339/339 340/340 341/341
f 339/339 341/341 342/342
f 343/343 344/344 345/345
f 343/343 345/345 346/346
f 347/347 356/356 348/348
f 347/347 355/355 356/356
f 348/348 357/357 349/349
f 348/348 356/356 357/357
f 349/349 358/358 350/350
f 349/349 357/357 358/358
f 350/350 359/359 351/351
f 350/350 358/358 359/359
f 351/351 360/360 352/352
f 351/351 359/359 360/360
f 352/352 361/361 353/353
f 352/352 360/360 361/361
f 353/353 362/362 354/354
f 353/353 361/361 362/362
f 354/354 355/355 347/347
f 354/354 362/362 355/355
f 363/363 348/348 347/347
f 363/363 349/349 348/348
f 363/363 350/350 349/349
f 363/363 351/351 350/350
f 363/363 352/352 351/351
f 363/363 353/353 352/352
f 363/363 354/354 353/353
f 363/363 347/347 354/354
f 364/364 355/355 356/356
f 364/364 356/356 357/357
f 364/364 357/357 358/358
f 364/364 358/358 359/359
f 364/364 359/359 360/360
f 364/364 360/360 361/361
f 364/364 361/361 362/362
f 364/364 362/362 355/355
f 365/365 374/374 366/366
f 365/365 373/373 374/374
f 366/366 375/375 367/367
f 366/366 374/374 375/375
f 367/367 376/376 368/368
f 367/367 375/375 376/376
f 368/368 377/377 369/369
f 368/368 376/376 377/377
f 369/369 378/378 370/370
f 369/369 377/377 378/378
f 370/370 379/379 371/371
f 370/370 378/378 379/379
f 371/371 380/380 372/372
f 371/371 379/379 380/380
f 372/372 373/373 365/365
f 372/372 380/380 373/373
f 381/381 366/366 365/365
f 381/381 367/367 366/366
f 381/381 368/368 367/367
f 381/381 369/369 368/368
f 381/381 370/370 369/369
f 381/381 371/371 370/370
f 381/381 372/372 371/371
f 381/381 365/365 372/372
f 382/382 373/373 374/374
f 382/382 374/374 375/375
f 382/382 375/375 376/376
f 382/382 376/376 377/377
f 382/382 377/377 378/378
f 382/382 378/378 379/379
f 382/382 379/379 380/380
f 382/382 380/380 373/373
f 383/383 392/392 384/384
f 383/383 391/391 392/392
f 384/384 393/393 385/385
f 384/384 392/392 393/393
f 385/385 394/394 386/386
f 385/385 393/393 394/394
f 386/386 395/395 387/387
f 386/386 394/394 395/395
f 387/387 396/396 388/388
f 387/387 395/395 396/396
f 388/388 397/397 389/389
f 388/388 396/396 397/397
f 389/389 398/398 390/390
f 389/389 397/397 398/398
f 390/390 391/391 383/383
f 390/390 398/398 391/391
f 399/399 384/384 383/383
f 399/399 385/385 384/384
f 399/399 386/386 385/385
f 399/399 387/387 386/386
f 399/399 388/388 387/387
f 399/399 389/389 388/388
f 399/399 390/390 389/389
f 399/399 383/383 390/390
f 400/400 391/391 392/392
f 400/400 392/392 393/393
f 400/400 393/393 394/394
f 400/400 394/394 395/395
f 400/400 395/395 396/396
f 400/400 396/396 397/397
f 400/400 397/397 398/398
f 400/400 398/398 391/391
f 401/401 410/410 402/402
f 401/401 409/409 410/410
f 402/402 411/411 403/403
f 402/402 410/410 411/411
f 403/403 412/412 404/404
f 403/403 411/411 412/412
f 404/404 413/413 405/405
f 404/404 412/412 413/413
f 405/405 414/414 406/406
f 405/405 413/413 414/414
f 406/406 415/415 407/407
f 406/406 414/414 415/415
f 407/407 416/416 408/408
f 407/407 415/415 416/416
f 408/408 409/409 401/401
f 408/408 416/416 409/409
f 417/417 402/402 401/401
f 417/417 403/403 402/402
f 417/417 404/404 403/403
f 417/417 405/405 404/404
f 417/417 406/406 405/405
f 417/417 407/407 406/406
f 417/417 408/408 407/407
f 417/417 401/401 408/408
f 418/418 409/409 410/410
f 418/418 410/410 411/411
f 418/418 411/411 412/412
f 418/418 412/412 413/413
f 418/418 413/413 414/414
f 418/418 414/414 415/415
f 418/418 415/415 416/416
f 418/418 416/416 409/409
f 419/419 420/420 421/421
f 419/419 421/421 422/422
f 423/423 424/424 425/425
f 423/423 425/425 426/426
f 427/427 428/428 429/429
f 427/427 429/429 430/430
f 431/431 432/432 433/433
f 431/431 433/433 434/434
f 435/435 436/436 437/437
f 435/435 437/437 438/438
f 439/439 440/440 441/441
f 439/439 441/441 442/442
f 443/443 444/444 445/445
f 443/443 445/445 446/446
f 447/447 448/448 449/449
f 447/447 449/449 450/450
f 451/451 452/452 453/453
f 451/451 453/453 454/454
f 455/455 456/456 457/457
f 455/455 457/457 458/458
f 459/459 460/460 461/461
f 459/459 461/461 462/462
f 463/463 464/464 465/465
f 463/463 465/465 466/466
f 467/467 476/476 468/468
f 467/467 475/475 476/476
f 468/468 477/477 469/469
f 468/468 476/476 477/477
f 469/469 478/478 470/470
f 469/469 477/477 478/478
f 470/470 479/479 471/471
f 470/470 478/478 479/479
f 471/471 480/480 472/472
f 471/471 479/479 480/480
f 472/472 481/481 473/473
f 472/472 480/480 481/481
f 473/473 482/482 474/474
f 473/473 481/481 482/482
f 474/474 475/475 467/467
f 474/474 482/482 475/475
f 483/483 468/468 467/467
f 483/483 469/469 468/468
f 483/483 470/470 469/469
f 483/483 471/471 470/470
f 483/483 472/472 471/471
f 483/483 473/473 472/472
f 483/483 474/474 473/473
f 483/483 467/467 474/474
f 484/484 475/475 476/476
f 484/484 476/476 477/477
f 484/484 477/477 478/478
f 484/484 478/478 479/479
f 484/484 479/479 480/480
f 484/484 480/480 481/481
f 484/484 481/481 482/482
f 484/484 482/482 475/475
f 485/485 494/494 486/486
f 485/485 493/493 494/494
f 486/486 495/495 487/487
f 486/486 494/494 495/495
f 487/487 496/496 488/488
f 487/487 495/495 496/496
f 488/488 497/497 489/489
f 488/488 496/496 497/497
f 489/489 498/498 490/490
f 489/489 497/497 498/498
f 490/490 499/499 491/491
f 490/490 498/498 499/499
f 491/491 500/500 492/492
f 491/491 499/499 500/500
f 492/492 493/493 485/485
f 492/492 500/500 493/493
f 501/501 486/486 485/485
f 501/501 487/487 486/486
f 501/501 488/488 487/487
f 501/501 489/489 488/488
f 501/501 490/490 489/489
f 501/501 491/491 490/490
f 501/501 492/492 491/491
f 501/501 485/485 492/492
f 502/502 493/493 494/494
f 502/502 494/494 495/495
f 502/502 495/495 496/496
f 502/502 496/496 497/497
f 502/502 497/497 498/498
f 502/502 498/498 499/499
f 502/502 499/499 500/500
f 502/502 500/500 493/493
f 503/503 512/512 504/504
f 503/503 511/511 512/512
f 504/504 513/513 505/505
f 504/504 512/512 513/513
f 505/505 514/514 506/506
f 505/505 513/513 514/514
f 506/506 515/515 507/507
f 506/506 514/514 515/515
f 507/507 516/516 508/508
f 507/507 515/515 516/516
f 508/508 517/517 509/509
f 508/508 516/516 517/517
f 509/509 518/518 510/510
f 509/509 517/517 518/518
f 510/510 511/511 503/503
f 510/510 518/518 511/511
f 519/519 504/504 503/503
f 519/519 505/505 504/504
f 519/519 506/506 505/505
f 519/519 507/507 506/506
f 519/519 508/508 507/507
f 519/519 509/509 508/508
f 519/519 510/510 509/509
f 519/519 503/503 510/510
f 520/520 511/511 512/512
f 520/520 512/512 513/513
f 520/520 513/513 514/514
f 520/520 514/514 515/515
f 520/520 515/515 516/516
f 520/520 516/516 517/517
f 520/520 517/517 518/518
f 520/520 518/518 511/511
f 521/521 530/530 522/522
f 521/521 529/529 530/530
f 522/522 531/531 523/523
f 522/522 530/530 531/531
f 523/523 532/532 524/524
f 523/523 531/531 532/532
f 524/524 533/533 525/525
f 524/524 532/532 533/533
f 525/525 534/534 526/526
f 525/525 533/533 534/534
f 526/526 535/535 527/527
f 526/526 534/534 535/535
f 527/527 536/536 528/528
f 527/527 535/535 536/536
f 528/528 529/529 521/521
f 528/528 536/536 529/529
f 537/537 522/522 521/521
f 537/537 523/523 522/522
f 537/537 524/524 523/523
f 537/537 525/525 524/524
f 537/537 526/526 525/525
f 537/537 527/527 526/526
f 537/537 528/528 527/527
f 537/537 521/521 528/528
f 538/538 529/529 530/530
f 538/538 530/530 531/531
f 538/538 531/531 532/532
f 538/538 532/532 533/533
f 538/538 533/533 534/534
f 538/538 534/534 535/535
f 538/538 535/535 536/536
f 538/538 536/536 529/529
f 539/539 540/540 541/541
f 539/539 541/541 542/542
f 543/543 544/544 545/545
f 543/543 545/545 546/546
f 547/547 548/548 549/549
f 547/547 549/549 550/550
f 551/551 552/552 553/553
f 551/551 553/553 554/554
f 555/555 556/556 557/557
f 555/555 557/557 558/558
f 559/559 560/560 561/561
f 559/559 561/561 562/562
f 563/563 564/564 565/565
f 563/563 565/565 566/566
f 567/567 568/568 569/569
f 567/567 569/569 570/570
f 571/571 572/572 573/573
f 571/571 573/573 574/574
f 575/575 576/576 577/577
f 575/575 577/577 578/578
f 579/579 580/580 581/581
f 579/579 581/581 582/582
f 583/583 584/584 585/585
f 583/583 585/585 586/586
